<?xml version="1.0" encoding="UTF-8"?>
<svg id="_Шар_2" data-name="Шар 2" xmlns="http://www.w3.org/2000/svg" viewBox="0 0 7000 965.28">
  <defs>
    <style>
      .cls-1 {
        fill: #4b4c4c;
      }

      .cls-1, .cls-2, .cls-3, .cls-4 {
        stroke-width: 0px;
      }

      .cls-2 {
        fill: #999;
      }

      .cls-5 {
        font-size: 50px;
      }

      .cls-5, .cls-3, .cls-6 {
        fill: #fff;
      }

      .cls-5, .cls-6 {
        font-family: ComicSansMS-Bold, 'Comic Sans MS';
        font-weight: 700;
      }

      .cls-6 {
        font-size: 70px;
      }

      .cls-4 {
        fill: #88bc99;
      }
    </style>
  </defs>
  <g id="_Шар_1-2" data-name="Шар 1">
    <g>
      <g>
        <rect class="cls-1" x="23.63" y="15.65" width="6966.38" height="942.06"/>
        <path class="cls-3" d="M6974.39,0H25.61C11.47,0,0,11.47,0,25.61v914.05c0,14.15,11.47,25.61,25.61,25.61h6948.78c14.14,0,25.61-11.47,25.61-25.61V25.61c0-14.15-11.47-25.61-25.61-25.61ZM6975,330.91v142.01h-303.47c-5.29,0-9.57,4.29-9.57,9.57v5.76c0,5.29,4.29,9.57,9.57,9.57h303.47v416.83c0,14.15-11.47,25.61-25.61,25.61h-1127.17v-306.96c0-5.29-4.29-9.57-9.57-9.57h-5.76c-5.29,0-9.57,4.29-9.57,9.57v306.96h-88.79v-306.96c0-5.29-4.29-9.57-9.57-9.57h-5.76c-5.29,0-9.57,4.29-9.57,9.57v306.96h-2198.58v-306.96c0-5.29-4.29-9.57-9.57-9.57h-5.76c-5.29,0-9.57,4.29-9.57,9.57v306.96h-88.79v-306.96c0-5.29-4.29-9.57-9.57-9.57h-5.76c-5.29,0-9.57,4.29-9.57,9.57v306.96h-2003.68v-.62h-25.34v.62h-88.71v-306.96c0-5.29-4.29-9.57-9.57-9.57h-5.76c-5.29,0-9.57,4.29-9.57,9.57v306.96H50.61c-14.15,0-25.61-11.47-25.61-25.61v-416.83h315.41c5.29,0,9.57-4.29,9.57-9.57v-5.76c0-5.29-4.29-9.57-9.57-9.57H25V50.61c0-14.15,11.47-25.61,25.61-25.61h3295.8v8.02c0,5.46,4.43,9.89,9.89,9.89h5.14c5.46,0,9.89-4.43,9.89-9.89v-8.02h88.79v8.02c0,5.46,4.43,9.89,9.89,9.89h5.14c5.46,0,9.89-4.43,9.89-9.89v-8.02h3464.36c14.14,0,25.61,11.47,25.61,25.61v280.3Z"/>
      </g>
      <path class="cls-4" d="M1439.45,55.25h-226.14c-.49-.04-.98-.08-1.48-.08h-195.05c-11.01,0-19.94,8.93-19.94,19.94v271.5c0,11.01-8.93,19.94-19.94,19.94h-22.63c-11.01,0-19.94,8.93-19.94,19.94v42.01c0,11.01,8.93,19.94,19.94,19.94h257.56c11.01,0,19.94-8.93,19.94-19.94v-163.52c0-11.49,9.31-20.8,20.8-20.8h186.88c11.49,0,20.8-9.31,20.8-20.8V76.05c0-11.49-9.31-20.8-20.8-20.8Z"/>
      <path class="cls-4" d="M369.91,623.57c-9.64,0-17.45-7.81-17.45-17.45v-65.74c0-11.01-8.93-19.94-19.94-19.94H74.96c-11.01,0-19.94,8.93-19.94,19.94v353.39c0,11.01,8.93,19.94,19.94,19.94h195.05c11.01,0,19.94-8.93,19.94-19.94v-117.92c0-9.64,7.81-17.45,17.45-17.45h194.04c9.64,0,17.45-7.81,17.45-17.45v-99.9c0-9.64-7.81-17.45-17.45-17.45h-131.53Z"/>
      <path class="cls-4" d="M520.68,174.27v-101.71c0-9.56-7.75-17.31-17.31-17.31H74.96c-11.01,0-19.94,8.93-19.94,19.94v353.39c0,11.01,8.93,19.94,19.94,19.94h257.56c11.01,0,19.94-8.93,19.94-19.94v-42.01c0-11.01-8.93-19.94-19.94-19.94h-22.63c-11.01,0-19.94-8.93-19.94-19.94v-137.78c0-9.56,7.75-17.31,17.31-17.31h196.11c9.56,0,17.31-7.75,17.31-17.31Z"/>
      <path class="cls-4" d="M944.14,55.25h-256.67c-.85,0-1.68.03-2.52.07h-124.5c-11.01,0-19.94,8.52-19.94,19.04v115.98c0,8.58-6.95,15.53-15.53,15.53h-200.94c-8.58,0-15.53,6.95-15.53,15.53v108.34c0,8.58,6.95,15.53,15.53,15.53h403.11c.48,0,.95-.04,1.43-.07h215.56c16.95,0,30.7-8.52,30.7-19.04V74.29c0-10.52-13.74-19.04-30.7-19.04Z"/>
      <path class="cls-2" d="M1162.22,623.74h-166.7c-11.01,0-19.94,8.52-19.94,19.04v251.88c0,10.52,8.93,19.04,19.94,19.04h166.7c11.01,0,19.94-8.52,19.94-19.04v-251.88c0-10.52-8.93-19.04-19.94-19.04Z"/>
      <path class="cls-2" d="M935.4,623.74h-149.28c-9.86,0-17.85,8.52-17.85,19.04v251.88c0,10.52,7.99,19.04,17.85,19.04h149.28c9.86,0,17.85-8.52,17.85-19.04v-251.88c0-10.52-7.99-19.04-17.85-19.04Z"/>
      <path class="cls-2" d="M1490.11,623.74h-111.12c-7.34,0-13.29,8.52-13.29,19.04v251.88c0,10.52,5.95,19.04,13.29,19.04h111.12c7.34,0,13.29-8.52,13.29-19.04v-251.88c0-10.52-5.95-19.04-13.29-19.04Z"/>
      <path class="cls-2" d="M3314.44,623.74h-132.39c-8.74,0-15.83,8.52-15.83,19.04v251.88c0,10.52,7.09,19.04,15.83,19.04h132.39c8.74,0,15.83-8.52,15.83-19.04v-251.88c0-10.52-7.09-19.04-15.83-19.04Z"/>
      <path class="cls-2" d="M3518.56,623.74h132.39c8.74,0,15.83,8.52,15.83,19.04v251.88c0,10.52-7.09,19.04-15.83,19.04h-132.39c-8.74,0-15.83-8.52-15.83-19.04v-251.88c0-10.52,7.09-19.04,15.83-19.04Z"/>
      <path class="cls-2" d="M3707.85,623.74h156.7c10.35,0,18.74,8.52,18.74,19.04v251.88c0,10.52-8.39,19.04-18.74,19.04h-156.7c-10.35,0-18.74-8.52-18.74-19.04v-251.88c0-10.52,8.39-19.04,18.74-19.04Z"/>
      <path class="cls-2" d="M4089.2,672.43h-166.7c-11.01,0-19.94,7.11-19.94,15.89v210.18c0,8.77,8.93,15.89,19.94,15.89h166.7c11.01,0,19.94-7.11,19.94-15.89v-210.18c0-8.77-8.93-15.89-19.94-15.89Z"/>
      <path class="cls-2" d="M4314.39,672.43h-166.7c-11.01,0-19.94,7.11-19.94,15.89v210.18c0,8.77,8.93,15.89,19.94,15.89h166.7c11.01,0,19.94-7.11,19.94-15.89v-210.18c0-8.77-8.93-15.89-19.94-15.89Z"/>
      <rect class="cls-2" x="2919.72" y="55.17" width="646.47" height="392.93" rx="25.66" ry="25.66"/>
      <rect class="cls-2" x="3586.1" y="55.17" width="1241.56" height="392.93" rx="25.66" ry="25.66"/>
      <rect class="cls-2" x="4352.06" y="623.74" width="257.3" height="290.65" rx="25.66" ry="25.66"/>
      <rect class="cls-2" x="4628.83" y="623.32" width="505.76" height="290.38" rx="25.66" ry="25.66"/>
      <rect class="cls-2" x="5157.3" y="623.32" width="505.76" height="290.38" rx="25.66" ry="25.66"/>
      <rect class="cls-4" x="4845.3" y="55.17" width="443" height="393.76" rx="33.59" ry="33.59"/>
      <rect class="cls-4" x="5306.88" y="55.17" width="443" height="393.76" rx="33.59" ry="33.59"/>
      <path class="cls-4" d="M5765.39,75.11v353.39c0,11.01,8.93,19.94,19.94,19.94h257.56c11.01,0,19.94-8.93,19.94-19.94v-42.01c0-11.01-8.93-19.94-19.94-19.94h-22.63c-11.01,0-19.94-8.93-19.94-19.94V75.11c0-11.01-8.93-19.94-19.94-19.94h-195.05c-11.01,0-19.94,8.93-19.94,19.94Z"/>
      <path class="cls-4" d="M6942.14,75.11v353.39c0,11.01-8.93,19.94-19.94,19.94h-257.56c-11.01,0-19.94-8.93-19.94-19.94v-42.01c0-11.01,8.93-19.94,19.94-19.94h22.63c11.01,0,19.94-8.93,19.94-19.94V75.11c0-11.01,8.93-19.94,19.94-19.94h195.05c11.01,0,19.94,8.93,19.94,19.94Z"/>
      <path class="cls-4" d="M6942.14,903.82v-353.39c0-11.01-8.93-19.94-19.94-19.94h-257.56c-11.01,0-19.94,8.93-19.94,19.94v42.01c0,11.01,8.93,19.94,19.94,19.94h22.63c11.01,0,19.94,8.93,19.94,19.94v271.5c0,11.01,8.93,19.94,19.94,19.94h195.05c11.01,0,19.94-8.93,19.94-19.94Z"/>
      <path class="cls-4" d="M6209.78,55.17h-166.7c-11.01,0-19.94,8.52-19.94,19.04v251.88c0,10.52,8.93,19.04,19.94,19.04h166.7c11.01,0,19.94-8.52,19.94-19.04V74.21c0-10.52-8.93-19.04-19.94-19.04Z"/>
      <path class="cls-4" d="M6437.52,55.17h-166.7c-11.01,0-19.94,8.52-19.94,19.04v251.88c0,10.52,8.93,19.04,19.94,19.04h166.7c11.01,0,19.94-8.52,19.94-19.04V74.21c0-10.52-8.93-19.04-19.94-19.04Z"/>
      <path class="cls-4" d="M6665.26,55.17h-166.7c-11.01,0-19.94,8.52-19.94,19.04v251.88c0,10.52,8.93,19.04,19.94,19.04h166.7c11.01,0,19.94-8.52,19.94-19.04V74.21c0-10.52-8.93-19.04-19.94-19.04Z"/>
      <path class="cls-2" d="M6029.6,633.8h-166.7c-11.01,0-19.94,8.52-19.94,19.04v251.88c0,10.52,8.93,19.04,19.94,19.04h166.7c11.01,0,19.94-8.52,19.94-19.04v-251.88c0-10.52-8.93-19.04-19.94-19.04Z"/>
      <path class="cls-2" d="M6234.17,633.8h-146c-9.64,0-17.46,8.52-17.46,19.04v251.88c0,10.52,7.82,19.04,17.46,19.04h146c9.64,0,17.46-8.52,17.46-19.04v-251.88c0-10.52-7.82-19.04-17.46-19.04Z"/>
      <path class="cls-4" d="M6665.6,633.8h-166.7c-11.01,0-19.94,8.52-19.94,19.04v251.88c0,10.52,8.93,19.04,19.94,19.04h166.7c11.01,0,19.94-8.52,19.94-19.04v-251.88c0-10.52-8.93-19.04-19.94-19.04Z"/>
      <path class="cls-4" d="M6438.02,633.8h-149.28c-9.86,0-17.85,8.52-17.85,19.04v251.88c0,10.52,7.99,19.04,17.85,19.04h149.28c9.86,0,17.85-8.52,17.85-19.04v-251.88c0-10.52-7.99-19.04-17.85-19.04Z"/>
      <text class="cls-5" transform="translate(72.15 115)"><tspan x="0" y="0">№7</tspan></text>
      <text class="cls-5" transform="translate(72.15 883)"><tspan x="0" y="0">№9</tspan></text>
      <text class="cls-5" transform="translate(328.48 883)"><tspan x="0" y="0">№102</tspan></text>
      <text class="cls-5" transform="translate(556.23 115)"><tspan x="0" y="0">№5</tspan></text>
      <text class="cls-5" transform="translate(1016.06 115)"><tspan x="0" y="0">№6</tspan></text>
      <text class="cls-5" transform="translate(6284.06 901.38)"><tspan x="0" y="0">№118</tspan></text>
      <text class="cls-5" transform="translate(6494.7 901.38)"><tspan x="0" y="0">№117</tspan></text>
      <text class="cls-5" transform="translate(6723.72 901.38)"><tspan x="0" y="0">№116</tspan></text>
      <text class="cls-5" transform="translate(5807.63 115)"><tspan x="0" y="0">№111</tspan></text>
      <text class="cls-5" transform="translate(6038.1 115)"><tspan x="0" y="0">№112</tspan></text>
      <text class="cls-5" transform="translate(6267.46 115)"><tspan x="0" y="0">№113</tspan></text>
      <text class="cls-5" transform="translate(6493.51 115)"><tspan x="0" y="0">№114</tspan></text>
      <text class="cls-5" transform="translate(6720.91 115)"><tspan x="0" y="0">№115</tspan></text>
      <text class="cls-6" transform="translate(412.94 509.64)"><tspan x="0" y="0">Готель</tspan></text>
      <text class="cls-6" transform="translate(6133.62 509.64)"><tspan x="0" y="0">Секція №110</tspan></text>
      <text class="cls-5" transform="translate(127.49 300.29)"><tspan x="0" y="0">3/0</tspan></text>
      <text class="cls-5" transform="translate(705.53 237.99)"><tspan x="0" y="0">2/0</tspan></text>
      <text class="cls-5" transform="translate(1070.13 285.99)"><tspan x="0" y="0">3/0</tspan></text>
      <text class="cls-5" transform="translate(127.49 721.06)"><tspan x="0" y="0">3/0</tspan></text>
      <text class="cls-5" transform="translate(6786.69 290.59)"><tspan x="0" y="0">3/0</tspan></text>
      <text class="cls-5" transform="translate(6540.57 228.29)"><tspan x="0" y="0">2/0</tspan></text>
      <text class="cls-5" transform="translate(6312.82 228.29)"><tspan x="0" y="0">2/0</tspan></text>
      <text class="cls-5" transform="translate(6091.2 228.29)"><tspan x="0" y="0">2/0</tspan></text>
      <text class="cls-5" transform="translate(5845.08 287.53)"><tspan x="0" y="0">3/0</tspan></text>
      <text class="cls-5" transform="translate(6537.5 775.7)"><tspan x="0" y="0">2/0</tspan></text>
      <text class="cls-5" transform="translate(6320.99 775.7)"><tspan x="0" y="0">2/0</tspan></text>
      <text class="cls-5" transform="translate(6786.69 711.35)"><tspan x="0" y="0">3/0</tspan></text>
      <path class="cls-4" d="M727.15,623.74h-166.7c-11.01,0-19.94,8.52-19.94,19.04v117.39c0,8.32-6.74,15.06-15.06,15.06h-198.81c-8.32,0-15.06,6.74-15.06,15.06v108.26c0,8.32,6.74,15.06,15.06,15.06h232.11c.56.05,1.13.08,1.7.08h166.7c11.01,0,19.94-8.52,19.94-19.04v-251.88c0-10.52-8.93-19.04-19.94-19.04Z"/>
      <path class="cls-3" d="M1327.69,623.49h4.83c5.71,0,10.35,4.64,10.35,10.35v308.31c0,1.26-1.02,2.28-2.28,2.28h-20.98c-1.26,0-2.28-1.02-2.28-2.28v-308.31c0-5.71,4.64-10.35,10.35-10.35Z"/>
      <path class="cls-4" d="M1876.43,54.72c-21.53.15-43.06.3-64.6.45h-315.89c-11.01,0-19.94,11.56-19.94,25.82v154.42c0,13.31-10.79,24.1-24.1,24.1h-176.41c-13.31,0-24.1,10.79-24.1,24.1v140.73c0,13.31,10.79,24.1,24.1,24.1h225.35c125.19-.17,250.38-.34,375.57-.52,13.96,0,25.28-11.32,25.28-25.28V80c0-13.96-11.32-25.28-25.28-25.28Z"/>
      <path class="cls-4" d="M1876.43,54.72c-21.53.15-43.06.3-64.6.45h-315.89c-11.01,0-19.94,11.56-19.94,25.82v154.42c0,13.31-10.79,24.1-24.1,24.1h-176.41c-13.31,0-24.1,10.79-24.1,24.1v140.73c0,13.31,10.79,24.1,24.1,24.1h225.35c125.19-.17,250.38-.34,375.57-.52,13.96,0,25.28-11.32,25.28-25.28V80c0-13.96-11.32-25.28-25.28-25.28Z"/>
      <path class="cls-4" d="M2880.04,54.72c-17.87.15-35.74.3-53.61.45h-262.19c-9.14,0-16.55,11.56-16.55,25.82v154.42c0,13.31-8.95,24.1-20,24.1h-146.42c-11.05,0-20,10.79-20,24.1v140.73c0,13.31,8.95,24.1,20,24.1h187.04c103.91-.17,207.82-.34,311.73-.52,11.59,0,20.98-11.32,20.98-25.28V80c0-13.96-9.39-25.28-20.98-25.28Z"/>
      <path class="cls-4" d="M1850.4,772.94h-131.21c-7.5,0-13.57-6.08-13.57-13.57v-116.58c0-10.52-7.78-19.04-17.38-19.04h-145.32c-9.6,0-17.38,8.52-17.38,19.04v251.88c0,10.52,7.78,19.04,17.38,19.04h307.07c11.08,0,20.06-8.52,20.06-19.04v-106.87c0-8.2-8.79-14.85-19.64-14.85Z"/>
      <path class="cls-4" d="M2869.95,623.74h-492.82c-8.94,0-16.19,8.52-16.19,19.04v251.88c0,10.52,7.25,19.04,16.19,19.04h351.79c8.94,0,16.19-8.52,16.19-19.04v-109.47c0-11.42,11.28-20.69,25.2-20.69h100.15c13.21,0,23.93-6.65,23.93-14.85v-106.87c0-10.52-10.94-19.04-24.43-19.04Z"/>
      <path class="cls-4" d="M2344.94,642.03c0-10.1-8.19-18.3-18.3-18.3h-584.15c-11.11,0-20.12,8.52-20.12,19.04v92.33c0,10.74,11.55,19.44,25.8,19.44h126.09c8.2,0,14.85,6.65,14.85,14.85v125.25c0,10.52,7.99,19.04,17.85,19.04h419.68c10.1,0,18.3-8.19,18.3-18.3v-253.37Z"/>
      <path class="cls-4" d="M2531.06,74c0-10.65-8.63-19.28-19.28-19.28h-191.11c-125.19.17-250.38.34-375.57.52-13.96,0-25.28,11.32-25.28,25.28v342.64c0,13.96,11.32,25.28,25.28,25.28,21.53-.15,43.06-.3,64.6-.45h315.89c11.01,0,19.94-11.56,19.94-25.82v-154.42c0-13.31,10.79-24.1,24.1-24.1h142.16c10.65,0,19.28-8.63,19.28-19.28V74Z"/>
      <path class="cls-4" d="M3127.39,623.74h-195.12c-12.89,0-23.34,8.52-23.34,19.04v110.24c0,13.68-11.09,24.77-24.77,24.77h-106.89c-10.53,0-19.06,8.54-19.06,19.06v98.47c0,10.53,8.54,19.06,19.06,19.06,116.7-.23,233.41-.46,350.11-.68,12.89,0,23.34-8.52,23.34-19.04v-251.88c0-10.52-10.45-19.04-23.34-19.04Z"/>
      <text class="cls-5" transform="translate(330.02 883)"><tspan x="0" y="0">№8</tspan></text>
      <text class="cls-5" transform="translate(599.83 764.97)"><tspan x="0" y="0">2/0</tspan></text>
      <text class="cls-5" transform="translate(1500.15 115)"><tspan x="0" y="0">№10</tspan></text>
      <text class="cls-5" transform="translate(1623.66 285.99)"><tspan x="0" y="0">3/0</tspan></text>
      <text class="cls-5" transform="translate(1943.38 115)"><tspan x="0" y="0">№11</tspan></text>
      <text class="cls-5" transform="translate(2093.45 285.99)"><tspan x="0" y="0">3/0</tspan></text>
      <text class="cls-5" transform="translate(2566.36 115)"><tspan x="0" y="0">№12</tspan></text>
      <text class="cls-5" transform="translate(2668.42 285.99)"><tspan x="0" y="0">3/0</tspan></text>
      <text class="cls-5" transform="translate(4870.36 115)"><tspan x="0" y="0">№120</tspan></text>
      <text class="cls-5" transform="translate(5026.55 285.99)"><tspan x="0" y="0">3/0</tspan></text>
      <text class="cls-5" transform="translate(5327.89 115)"><tspan x="0" y="0">№119</tspan></text>
      <text class="cls-5" transform="translate(5484.08 285.99)"><tspan x="0" y="0">3/0</tspan></text>
      <text class="cls-5" transform="translate(1541 883)"><tspan x="0" y="0">№4</tspan></text>
      <text class="cls-5" transform="translate(1574.89 755.53)"><tspan x="0" y="0">2/0</tspan></text>
      <text class="cls-5" transform="translate(1908.66 883)"><tspan x="0" y="0">№3</tspan></text>
      <text class="cls-5" transform="translate(2067.15 755.53)"><tspan x="0" y="0">3/0</tspan></text>
      <text class="cls-5" transform="translate(2378.19 883)"><tspan x="0" y="0">№2</tspan></text>
      <text class="cls-5" transform="translate(2536.68 755.53)"><tspan x="0" y="0">3/0</tspan></text>
      <text class="cls-5" transform="translate(2774.44 883)"><tspan x="0" y="0">№1</tspan></text>
      <text class="cls-5" transform="translate(2985.02 755.53)"><tspan x="0" y="0">3/0</tspan></text>
    </g>
  </g>
</svg>