<?xml version="1.0" encoding="UTF-8"?>
<svg id="_Шар_2" data-name="Шар 2" xmlns="http://www.w3.org/2000/svg" viewBox="0 0 7000 965.28">
  <defs>
    <style>
      .cls-1 {
        fill: #4b4c4c;
      }

      .cls-1, .cls-2, .cls-3, .cls-4 {
        stroke-width: 0px;
      }

      .cls-2 {
        fill: #999;
      }

      .cls-5 {
        font-size: 50px;
      }

      .cls-5, .cls-3, .cls-6 {
        fill: #fff;
      }

      .cls-5, .cls-6 {
        font-family: ComicSansMS-Bold, 'Comic Sans MS';
        font-weight: 700;
      }

      .cls-6 {
        font-size: 70px;
      }

      .cls-4 {
        fill: #88bc99;
      }
    </style>
  </defs>
  <g id="_Шар_1-2" data-name="Шар 1">
    <g>
      <rect class="cls-1" x="23.63" y="15.65" width="6966.38" height="942.06"/>
      <rect class="cls-4" x="5764.68" y="55.17" width="236.09" height="393.76" rx="33.59" ry="33.59"/>
      <path class="cls-3" d="M6974.39,0H25.61C11.47,0,0,11.47,0,25.61v914.05c0,14.15,11.47,25.61,25.61,25.61h6948.78c14.15,0,25.61-11.47,25.61-25.61V25.61c0-14.15-11.47-25.61-25.61-25.61ZM2915.31,940.28h-1572.58v-280.67c0-6.06,4.99-10.96,11.15-10.96h1550.27c6.16,0,11.15,4.91,11.15,10.96v280.67ZM6671.53,497.83h303.47v416.83c0,14.15-11.47,25.61-25.61,25.61h-1127.17v-306.96c0-5.29-4.29-9.57-9.57-9.57h-5.76c-5.29,0-9.57,4.29-9.57,9.57v306.96h-88.79v-306.96c0-5.29-4.29-9.57-9.57-9.57h-5.76c-5.29,0-9.57,4.29-9.57,9.57v306.96h-2198.58v-306.96c0-5.29-4.29-9.57-9.57-9.57h-5.76c-5.29,0-9.57,4.29-9.57,9.57v306.96h-88.79v-306.96c0-5.29-4.29-9.57-9.57-9.57h-5.76c-5.29,0-9.57,4.29-9.57,9.57v306.96h-405.76v-305.58c0-6.06-4.99-10.96-11.15-10.96h-1600.96c-6.16,0-11.15,4.91-11.15,10.96v2.98s0,.05,0,.07v302.52h-88.71v-306.96c0-5.29-4.29-9.57-9.57-9.57h-5.76c-5.29,0-9.57,4.29-9.57,9.57v306.96H50.61c-14.15,0-25.61-11.47-25.61-25.61v-416.83h315.41c5.29,0,9.57-4.29,9.57-9.57v-5.76c0-5.29-4.29-9.57-9.57-9.57H25V50.61c0-14.15,11.47-25.61,25.61-25.61h3295.8v8.02c0,5.46,4.43,9.89,9.89,9.89h5.14c5.46,0,9.89-4.43,9.89-9.89v-8.02h88.79v8.02c0,5.46,4.43,9.89,9.89,9.89h5.14c5.46,0,9.89-4.43,9.89-9.89v-8.02h3464.36c14.15,0,25.61,11.47,25.61,25.61v422.31h-303.47c-5.29,0-9.57,4.29-9.57,9.57v5.76c0,5.29,4.29,9.57,9.57,9.57Z"/>
      <path class="cls-2" d="M55.02,75.18v353.39c0,11.01,8.93,19.94,19.94,19.94h257.56c11.01,0,19.94-8.93,19.94-19.94v-42.01c0-11.01-8.93-19.94-19.94-19.94h-22.63c-11.01,0-19.94-8.93-19.94-19.94V75.18c0-11.01-8.93-19.94-19.94-19.94H74.96c-11.01,0-19.94,8.93-19.94,19.94Z"/>
      <path class="cls-4" d="M1231.77,75.11v353.39c0,11.01-8.93,19.94-19.94,19.94h-257.56c-11.01,0-19.94-8.93-19.94-19.94v-42.01c0-11.01,8.93-19.94,19.94-19.94h22.63c11.01,0,19.94-8.93,19.94-19.94V75.11c0-11.01,8.93-19.94,19.94-19.94h195.05c11.01,0,19.94,8.93,19.94,19.94Z"/>
      <path class="cls-2" d="M55.02,893.76v-353.39c0-11.01,8.93-19.94,19.94-19.94h257.56c11.01,0,19.94,8.93,19.94,19.94v42.01c0,11.01-8.93,19.94-19.94,19.94h-22.63c-11.01,0-19.94,8.93-19.94,19.94v271.5c0,11.01-8.93,19.94-19.94,19.94H74.96c-11.01,0-19.94-8.93-19.94-19.94Z"/>
      <path class="cls-4" d="M499.41,55.25h-166.7c-11.01,0-19.94,8.52-19.94,19.04v251.88c0,10.52,8.93,19.04,19.94,19.04h166.7c11.01,0,19.94-8.52,19.94-19.04V74.29c0-10.52-8.93-19.04-19.94-19.04Z"/>
      <path class="cls-4" d="M727.15,55.25h-166.7c-11.01,0-19.94,8.52-19.94,19.04v251.88c0,10.52,8.93,19.04,19.94,19.04h166.7c11.01,0,19.94-8.52,19.94-19.04V74.29c0-10.52-8.93-19.04-19.94-19.04Z"/>
      <path class="cls-4" d="M954.9,55.25h-166.7c-11.01,0-19.94,8.52-19.94,19.04v251.88c0,10.52,8.93,19.04,19.94,19.04h166.7c11.01,0,19.94-8.52,19.94-19.04V74.29c0-10.52-8.93-19.04-19.94-19.04Z"/>
      <path class="cls-2" d="M4808.11,55.17h-157.52c-10.41,0-18.84,11.56-18.84,25.82v341.61c0,14.26,8.43,25.82,18.84,25.82h157.52c10.41,0,18.84-11.56,18.84-25.82V81c0-14.26-8.43-25.82-18.84-25.82Z"/>
      <path class="cls-2" d="M2227.67,721.55h-150.52c-9.94,0-18,5.94-18,13.28v175.66c0,7.33,8.06,13.28,18,13.28h150.52c9.94,0,18-5.94,18-13.28v-175.66c0-7.33-8.06-13.28-18-13.28Z"/>
      <path class="cls-2" d="M2444.88,721.55h-157.52c-10.41,0-18.84,5.94-18.84,13.28v175.66c0,7.33,8.43,13.28,18.84,13.28h157.52c10.41,0,18.84-5.94,18.84-13.28v-175.66c0-7.33-8.43-13.28-18.84-13.28Z"/>
      <path class="cls-2" d="M2661.39,721.55h-157.52c-10.41,0-18.84,5.94-18.84,13.28v175.66c0,7.33,8.43,13.28,18.84,13.28h157.52c10.41,0,18.84-5.94,18.84-13.28v-175.66c0-7.33-8.43-13.28-18.84-13.28Z"/>
      <path class="cls-2" d="M2877.9,669.46h-157.52c-10.41,0-18.84,7.48-18.84,16.7v220.9c0,9.22,8.43,16.7,18.84,16.7h157.52c10.41,0,18.84-7.48,18.84-16.7v-220.9c0-9.22-8.43-16.7-18.84-16.7Z"/>
      <path class="cls-4" d="M499.41,623.74h-166.7c-11.01,0-19.94,8.52-19.94,19.04v251.88c0,10.52,8.93,19.04,19.94,19.04h166.7c11.01,0,19.94-8.52,19.94-19.04v-251.88c0-10.52-8.93-19.04-19.94-19.04Z"/>
      <path class="cls-4" d="M727.15,623.74h-166.7c-11.01,0-19.94,8.52-19.94,19.04v251.88c0,10.52,8.93,19.04,19.94,19.04h166.7c11.01,0,19.94-8.52,19.94-19.04v-251.88c0-10.52-8.93-19.04-19.94-19.04Z"/>
      <path class="cls-2" d="M1162.22,623.74h-166.7c-11.01,0-19.94,8.52-19.94,19.04v251.88c0,10.52,8.93,19.04,19.94,19.04h166.7c11.01,0,19.94-8.52,19.94-19.04v-251.88c0-10.52-8.93-19.04-19.94-19.04Z"/>
      <path class="cls-2" d="M935.4,623.74h-149.28c-9.86,0-17.85,8.52-17.85,19.04v251.88c0,10.52,7.99,19.04,17.85,19.04h149.28c9.86,0,17.85-8.52,17.85-19.04v-251.88c0-10.52-7.99-19.04-17.85-19.04Z"/>
      <path class="cls-2" d="M3314.44,633.8h-132.39c-8.74,0-15.83,8.52-15.83,19.04v251.88c0,10.52,7.09,19.04,15.83,19.04h132.39c8.74,0,15.83-8.52,15.83-19.04v-251.88c0-10.52-7.09-19.04-15.83-19.04Z"/>
      <path class="cls-2" d="M3126.04,633.8h-149.28c-9.86,0-17.85,8.52-17.85,19.04v251.88c0,10.52,7.99,19.04,17.85,19.04h149.28c9.86,0,17.85-8.52,17.85-19.04v-251.88c0-10.52-7.99-19.04-17.85-19.04Z"/>
      <path class="cls-2" d="M3518.56,633.8h132.39c8.74,0,15.83,8.52,15.83,19.04v251.88c0,10.52-7.09,19.04-15.83,19.04h-132.39c-8.74,0-15.83-8.52-15.83-19.04v-251.88c0-10.52,7.09-19.04,15.83-19.04Z"/>
      <path class="cls-2" d="M3707.85,633.8h156.7c10.35,0,18.74,8.52,18.74,19.04v251.88c0,10.52-8.39,19.04-18.74,19.04h-156.7c-10.35,0-18.74-8.52-18.74-19.04v-251.88c0-10.52,8.39-19.04,18.74-19.04Z"/>
      <path class="cls-2" d="M2017.28,721.04h-166.7c-11.01,0-19.94,5.96-19.94,13.31v176.1c0,7.35,8.93,13.31,19.94,13.31h166.7c11.01,0,19.94-5.96,19.94-13.31v-176.1c0-7.35-8.93-13.31-19.94-13.31Z"/>
      <path class="cls-2" d="M4089.2,676.36h-166.7c-11.01,0-19.94,7.27-19.94,16.25v214.91c0,8.97,8.93,16.25,19.94,16.25h166.7c11.01,0,19.94-7.27,19.94-16.25v-214.91c0-8.97-8.93-16.25-19.94-16.25Z"/>
      <path class="cls-2" d="M4314.39,676.36h-166.7c-11.01,0-19.94,7.27-19.94,16.25v214.91c0,8.97,8.93,16.25,19.94,16.25h166.7c11.01,0,19.94-7.27,19.94-16.25v-214.91c0-8.97-8.93-16.25-19.94-16.25Z"/>
      <path class="cls-2" d="M1800.42,831.85h-184.91c-6.44,0-11.66-5.14-11.66-11.49v-35.57c0-16.31,13.42-29.53,29.98-29.53h22.98c16.56,0,29.98-13.22,29.98-29.53v-27.57c0-16.31-13.42-29.53-29.98-29.53h-264.73c-16.56,0-29.98,13.22-29.98,29.53v196.09c0,16.31,13.42,29.53,29.98,29.53h408.34c8.17,0,14.79-6.52,14.79-14.57v-62.78c0-8.05-6.62-14.57-14.79-14.57Z"/>
      <rect class="cls-2" x="2919.72" y="55.17" width="646.47" height="392.93" rx="25.66" ry="25.66"/>
      <rect class="cls-2" x="3586.1" y="55.17" width="1023.32" height="392.93" rx="25.66" ry="25.66"/>
      <rect class="cls-2" x="4352.06" y="626.57" width="265.73" height="297.19" rx="25.66" ry="25.66"/>
      <path class="cls-4" d="M6942.14,75.11v353.39c0,11.01-8.93,19.94-19.94,19.94h-257.56c-11.01,0-19.94-8.93-19.94-19.94v-42.01c0-11.01,8.93-19.94,19.94-19.94h22.63c11.01,0,19.94-8.93,19.94-19.94V75.11c0-11.01,8.93-19.94,19.94-19.94h195.05c11.01,0,19.94,8.93,19.94,19.94Z"/>
      <path class="cls-4" d="M6942.14,903.82v-353.39c0-11.01-8.93-19.94-19.94-19.94h-257.56c-11.01,0-19.94,8.93-19.94,19.94v42.01c0,11.01,8.93,19.94,19.94,19.94h22.63c11.01,0,19.94,8.93,19.94,19.94v271.5c0,11.01,8.93,19.94,19.94,19.94h195.05c11.01,0,19.94-8.93,19.94-19.94Z"/>
      <path class="cls-4" d="M6209.78,55.17h-166.7c-11.01,0-19.94,8.52-19.94,19.04v251.88c0,10.52,8.93,19.04,19.94,19.04h166.7c11.01,0,19.94-8.52,19.94-19.04V74.21c0-10.52-8.93-19.04-19.94-19.04Z"/>
      <path class="cls-4" d="M6437.52,55.17h-166.7c-11.01,0-19.94,8.52-19.94,19.04v251.88c0,10.52,8.93,19.04,19.94,19.04h166.7c11.01,0,19.94-8.52,19.94-19.04V74.21c0-10.52-8.93-19.04-19.94-19.04Z"/>
      <path class="cls-4" d="M6665.26,55.17h-166.7c-11.01,0-19.94,8.52-19.94,19.04v251.88c0,10.52,8.93,19.04,19.94,19.04h166.7c11.01,0,19.94-8.52,19.94-19.04V74.21c0-10.52-8.93-19.04-19.94-19.04Z"/>
      <path class="cls-2" d="M6029.6,633.8h-166.7c-11.01,0-19.94,8.52-19.94,19.04v251.88c0,10.52,8.93,19.04,19.94,19.04h166.7c11.01,0,19.94-8.52,19.94-19.04v-251.88c0-10.52-8.93-19.04-19.94-19.04Z"/>
      <path class="cls-2" d="M6234.17,633.8h-146c-9.64,0-17.46,8.52-17.46,19.04v251.88c0,10.52,7.82,19.04,17.46,19.04h146c9.64,0,17.46-8.52,17.46-19.04v-251.88c0-10.52-7.82-19.04-17.46-19.04Z"/>
      <path class="cls-4" d="M6665.6,633.8h-166.7c-11.01,0-19.94,8.52-19.94,19.04v251.88c0,10.52,8.93,19.04,19.94,19.04h166.7c11.01,0,19.94-8.52,19.94-19.04v-251.88c0-10.52-8.93-19.04-19.94-19.04Z"/>
      <path class="cls-4" d="M6438.02,633.8h-149.28c-9.86,0-17.85,8.52-17.85,19.04v251.88c0,10.52,7.99,19.04,17.85,19.04h149.28c9.86,0,17.85-8.52,17.85-19.04v-251.88c0-10.52-7.99-19.04-17.85-19.04Z"/>
      <text class="cls-5" transform="translate(328.49 115)"><tspan x="0" y="0">№106</tspan></text>
      <text class="cls-5" transform="translate(328.49 883)"><tspan x="0" y="0">№103</tspan></text>
      <text class="cls-5" transform="translate(556.23 115)"><tspan x="0" y="0">№107</tspan></text>
      <text class="cls-5" transform="translate(783.97 115)"><tspan x="0" y="0">№108</tspan></text>
      <text class="cls-5" transform="translate(1016.06 115)"><tspan x="0" y="0">№109</tspan></text>
      <text class="cls-5" transform="translate(6284.06 901.38)"><tspan x="0" y="0">№118</tspan></text>
      <text class="cls-5" transform="translate(6494.7 901.38)"><tspan x="0" y="0">№117</tspan></text>
      <text class="cls-5" transform="translate(6723.72 901.38)"><tspan x="0" y="0">№116</tspan></text>
      <text class="cls-5" transform="translate(5783.63 115)"><tspan x="0" y="0">№111</tspan></text>
      <text class="cls-5" transform="translate(6038.1 115)"><tspan x="0" y="0">№112</tspan></text>
      <text class="cls-5" transform="translate(6267.46 115)"><tspan x="0" y="0">№113</tspan></text>
      <text class="cls-5" transform="translate(6493.51 115)"><tspan x="0" y="0">№114</tspan></text>
      <text class="cls-5" transform="translate(6720.91 115)"><tspan x="0" y="0">№115</tspan></text>
      <text class="cls-6" transform="translate(412.94 509.64)"><tspan x="0" y="0">Секція №101</tspan></text>
      <text class="cls-6" transform="translate(6133.62 509.64)"><tspan x="0" y="0">Секція №110</tspan></text>
      <text class="cls-5" transform="translate(374.64 237.99)"><tspan x="0" y="0">2/0</tspan></text>
      <text class="cls-5" transform="translate(374.64 764.97)"><tspan x="0" y="0">2/0</tspan></text>
      <text class="cls-5" transform="translate(557.25 883)"><tspan x="0" y="0">№102</tspan></text>
      <text class="cls-5" transform="translate(603.4 764.97)"><tspan x="0" y="0">2/0</tspan></text>
      <text class="cls-5" transform="translate(601.36 237.99)"><tspan x="0" y="0">2/0</tspan></text>
      <text class="cls-5" transform="translate(829.11 237.99)"><tspan x="0" y="0">2/0</tspan></text>
      <text class="cls-5" transform="translate(1070.13 285.99)"><tspan x="0" y="0">3/0</tspan></text>
      <text class="cls-5" transform="translate(6786.69 290.59)"><tspan x="0" y="0">3/0</tspan></text>
      <text class="cls-5" transform="translate(6540.57 228.29)"><tspan x="0" y="0">2/0</tspan></text>
      <text class="cls-5" transform="translate(6312.82 228.29)"><tspan x="0" y="0">2/0</tspan></text>
      <text class="cls-5" transform="translate(6091.2 228.29)"><tspan x="0" y="0">2/0</tspan></text>
      <text class="cls-5" transform="translate(5839.46 287.53)"><tspan x="0" y="0">3/0</tspan></text>
      <text class="cls-5" transform="translate(6537.5 775.7)"><tspan x="0" y="0">2/0</tspan></text>
      <text class="cls-5" transform="translate(6320.99 775.7)"><tspan x="0" y="0">2/0</tspan></text>
      <text class="cls-5" transform="translate(6786.69 711.36)"><tspan x="0" y="0">3/0</tspan></text>
      <rect class="cls-4" x="1254.54" y="55.17" width="443" height="393.76" rx="33.59" ry="33.59"/>
      <rect class="cls-4" x="1719.23" y="55.17" width="443" height="393.76" rx="33.59" ry="33.59"/>
      <rect class="cls-4" x="4848.42" y="55.17" width="437.84" height="393.76" rx="33.59" ry="33.59"/>
      <rect class="cls-4" x="5307.69" y="55.17" width="437.84" height="393.76" rx="33.59" ry="33.59"/>
      <rect class="cls-2" x="2184.42" y="55.17" width="714.56" height="393.76" rx="33.59" ry="33.59"/>
      <rect class="cls-2" x="4636.75" y="633.38" width="505.76" height="290.38" rx="25.66" ry="25.66"/>
      <rect class="cls-2" x="5159.44" y="633.38" width="505.76" height="290.38" rx="25.66" ry="25.66"/>
      <text class="cls-5" transform="translate(1274.95 115)"><tspan x="0" y="0">№122</tspan></text>
      <text class="cls-5" transform="translate(1430.13 285.99)"><tspan x="0" y="0">3/0</tspan></text>
      <text class="cls-5" transform="translate(4868.31 115)"><tspan x="0" y="0">№120</tspan></text>
      <text class="cls-5" transform="translate(5023.49 285.99)"><tspan x="0" y="0">3/0</tspan></text>
      <text class="cls-5" transform="translate(5335.55 115)"><tspan x="0" y="0">№119</tspan></text>
      <text class="cls-5" transform="translate(5490.72 285.99)"><tspan x="0" y="0">3/0</tspan></text>
      <text class="cls-5" transform="translate(1742.19 115)"><tspan x="0" y="0">№121</tspan></text>
      <text class="cls-5" transform="translate(1897.36 285.99)"><tspan x="0" y="0">3/0</tspan></text>
    </g>
  </g>
</svg>