<?xml version="1.0" encoding="UTF-8"?>
<svg id="_Шар_2" data-name="Шар 2" xmlns="http://www.w3.org/2000/svg" viewBox="0 0 7000 965.28">
  <defs>
    <style>
      .cls-1 {
        fill: #4b4c4c;
      }

      .cls-1, .cls-2, .cls-3, .cls-4 {
        stroke-width: 0px;
      }

      .cls-2 {
        fill: #999;
      }

      .cls-5 {
        font-size: 50px;
      }

      .cls-5, .cls-3, .cls-6 {
        fill: #fff;
      }

      .cls-5, .cls-6 {
        font-family: ComicSansMS-Bold, 'Comic Sans MS';
        font-weight: 700;
      }

      .cls-6 {
        font-size: 70px;
      }

      .cls-4 {
        fill: #88bc99;
      }
    </style>
  </defs>
  <g id="_Шар_1-2" data-name="Шар 1">
    <g>
      <rect class="cls-1" x="23.63" y="15.65" width="6966.38" height="942.06"/>
      <path class="cls-3" d="M6974.39,0H25.61C11.47,0,0,11.47,0,25.61v914.05c0,14.15,11.47,25.61,25.61,25.61h6948.78c14.14,0,25.61-11.47,25.61-25.61V25.61c0-14.15-11.47-25.61-25.61-25.61ZM6975,330.91v142.01h-303.47c-5.29,0-9.57,4.29-9.57,9.57v5.76c0,5.29,4.29,9.57,9.57,9.57h303.47v416.83c0,14.15-11.47,25.61-25.61,25.61h-1127.17v-306.96c0-5.29-4.29-9.57-9.57-9.57h-5.76c-5.29,0-9.57,4.29-9.57,9.57v306.96h-88.79v-306.96c0-5.29-4.29-9.57-9.57-9.57h-5.76c-5.29,0-9.57,4.29-9.57,9.57v306.96h-2198.58v-306.96c0-5.29-4.29-9.57-9.57-9.57h-5.76c-5.29,0-9.57,4.29-9.57,9.57v306.96h-88.79v-306.96c0-5.29-4.29-9.57-9.57-9.57h-5.76c-5.29,0-9.57,4.29-9.57,9.57v306.96h-2003.68v-.62h-25.34v.62h-88.71v-306.96c0-5.29-4.29-9.57-9.57-9.57h-5.76c-5.29,0-9.57,4.29-9.57,9.57v306.96H50.61c-14.15,0-25.61-11.47-25.61-25.61v-416.83h315.41c5.29,0,9.57-4.29,9.57-9.57v-5.76c0-5.29-4.29-9.57-9.57-9.57H25V50.61c0-14.15,11.47-25.61,25.61-25.61h3295.8v8.02c0,5.46,4.43,9.89,9.89,9.89h5.14c5.46,0,9.89-4.43,9.89-9.89v-8.02h88.79v8.02c0,5.46,4.43,9.89,9.89,9.89h5.14c5.46,0,9.89-4.43,9.89-9.89v-8.02h3464.36c14.14,0,25.61,11.47,25.61,25.61v280.3Z"/>
      <path class="cls-4" d="M751.23,73.85c0-10.27-8.1-18.6-18.08-18.6h-56.31c-.82,0-1.64.03-2.44.07h-121.01c-10.7,0-19.38,8.52-19.38,19.04v115.98c0,8.58-6.76,15.53-15.1,15.53h-195.3c-8.34,0-15.1,6.95-15.1,15.53v108.34c0,8.58,6.76,15.53,15.1,15.53h391.81c.47,0,.93-.04,1.39-.07h16.34c9.99,0,18.08-8.33,18.08-18.6V73.85Z"/>
      <path class="cls-4" d="M369.91,623.57c-9.64,0-17.45-7.81-17.45-17.45v-65.74c0-11.01-8.93-19.94-19.94-19.94H74.96c-11.01,0-19.94,8.93-19.94,19.94v353.39c0,11.01,8.93,19.94,19.94,19.94h195.05c11.01,0,19.94-8.93,19.94-19.94v-117.92c0-9.64,7.81-17.45,17.45-17.45h194.04c9.64,0,17.45-7.81,17.45-17.45v-99.9c0-9.64-7.81-17.45-17.45-17.45h-131.53Z"/>
      <path class="cls-4" d="M520.68,174.27v-101.71c0-9.56-7.75-17.31-17.31-17.31H74.96c-11.01,0-19.94,8.93-19.94,19.94v353.39c0,11.01,8.93,19.94,19.94,19.94h257.56c11.01,0,19.94-8.93,19.94-19.94v-42.01c0-11.01-8.93-19.94-19.94-19.94h-22.63c-11.01,0-19.94-8.93-19.94-19.94v-137.78c0-9.56,7.75-17.31,17.31-17.31h196.11c9.56,0,17.31-7.75,17.31-17.31Z"/>
      <path class="cls-2" d="M1162.22,623.74h-166.7c-11.01,0-19.94,8.52-19.94,19.04v251.88c0,10.52,8.93,19.04,19.94,19.04h166.7c11.01,0,19.94-8.52,19.94-19.04v-251.88c0-10.52-8.93-19.04-19.94-19.04Z"/>
      <path class="cls-2" d="M935.4,623.74h-149.28c-9.86,0-17.85,8.52-17.85,19.04v251.88c0,10.52,7.99,19.04,17.85,19.04h149.28c9.86,0,17.85-8.52,17.85-19.04v-251.88c0-10.52-7.99-19.04-17.85-19.04Z"/>
      <path class="cls-2" d="M954.49,55.25h-166.34c-10.99,0-19.89,8.52-19.89,19.04v251.88c0,10.52,8.91,19.04,19.89,19.04h166.34c10.99,0,19.89-8.52,19.89-19.04V74.29c0-10.52-8.91-19.04-19.89-19.04Z"/>
      <path class="cls-2" d="M1852.32,623.74h-118.33c-7.82,0-14.15,8.52-14.15,19.04v251.88c0,10.52,6.34,19.04,14.15,19.04h118.33c7.82,0,14.15-8.52,14.15-19.04v-251.88c0-10.52-6.34-19.04-14.15-19.04Z"/>
      <path class="cls-2" d="M3313.49,623.74h-120.6c-7.97,0-14.42,8.52-14.42,19.04v251.88c0,10.52,6.46,19.04,14.42,19.04h120.6c7.97,0,14.42-8.52,14.42-19.04v-251.88c0-10.52-6.46-19.04-14.42-19.04Z"/>
      <rect class="cls-2" x="2919.72" y="55.17" width="646.47" height="392.93" rx="25.66" ry="25.66"/>
      <rect class="cls-2" x="3586.1" y="55.17" width="975" height="392.93" rx="25.66" ry="25.66"/>
      <rect class="cls-2" x="4584.09" y="55.17" width="239.3" height="392.93" rx="25.66" ry="25.66"/>
      <rect class="cls-2" x="4846.04" y="55.17" width="238.98" height="392.93" rx="25.66" ry="25.66"/>
      <rect class="cls-2" x="3509.51" y="623.74" width="334.66" height="290.65" rx="25.66" ry="25.66"/>
      <rect class="cls-2" x="3864.91" y="623.74" width="212.11" height="290.65" rx="25.66" ry="25.66"/>
      <rect class="cls-2" x="4097.76" y="623.74" width="212.11" height="290.65" rx="25.66" ry="25.66"/>
      <rect class="cls-2" x="4330.61" y="623.74" width="212.11" height="290.65" rx="25.66" ry="25.66"/>
      <rect class="cls-2" x="4561.11" y="623.32" width="573.48" height="290.38" rx="25.66" ry="25.66"/>
      <rect class="cls-2" x="5157.3" y="623.32" width="505.76" height="290.38" rx="25.66" ry="25.66"/>
      <rect class="cls-4" x="5106.47" y="55.17" width="643.4" height="393.76" rx="33.59" ry="33.59"/>
      <path class="cls-4" d="M5765.39,75.11v353.39c0,11.01,8.93,19.94,19.94,19.94h257.56c11.01,0,19.94-8.93,19.94-19.94v-42.01c0-11.01-8.93-19.94-19.94-19.94h-22.63c-11.01,0-19.94-8.93-19.94-19.94V75.11c0-11.01-8.93-19.94-19.94-19.94h-195.05c-11.01,0-19.94,8.93-19.94,19.94Z"/>
      <path class="cls-4" d="M6942.14,75.11v353.39c0,11.01-8.93,19.94-19.94,19.94h-257.56c-11.01,0-19.94-8.93-19.94-19.94v-42.01c0-11.01,8.93-19.94,19.94-19.94h22.63c11.01,0,19.94-8.93,19.94-19.94V75.11c0-11.01,8.93-19.94,19.94-19.94h195.05c11.01,0,19.94,8.93,19.94,19.94Z"/>
      <path class="cls-4" d="M6942.14,903.82v-353.39c0-11.01-8.93-19.94-19.94-19.94h-257.56c-11.01,0-19.94,8.93-19.94,19.94v42.01c0,11.01,8.93,19.94,19.94,19.94h22.63c11.01,0,19.94,8.93,19.94,19.94v271.5c0,11.01,8.93,19.94,19.94,19.94h195.05c11.01,0,19.94-8.93,19.94-19.94Z"/>
      <path class="cls-4" d="M6209.78,55.17h-166.7c-11.01,0-19.94,8.52-19.94,19.04v251.88c0,10.52,8.93,19.04,19.94,19.04h166.7c11.01,0,19.94-8.52,19.94-19.04V74.21c0-10.52-8.93-19.04-19.94-19.04Z"/>
      <path class="cls-4" d="M6437.52,55.17h-166.7c-11.01,0-19.94,8.52-19.94,19.04v251.88c0,10.52,8.93,19.04,19.94,19.04h166.7c11.01,0,19.94-8.52,19.94-19.04V74.21c0-10.52-8.93-19.04-19.94-19.04Z"/>
      <path class="cls-4" d="M6665.26,55.17h-166.7c-11.01,0-19.94,8.52-19.94,19.04v251.88c0,10.52,8.93,19.04,19.94,19.04h166.7c11.01,0,19.94-8.52,19.94-19.04V74.21c0-10.52-8.93-19.04-19.94-19.04Z"/>
      <path class="cls-2" d="M6029.6,633.8h-166.7c-11.01,0-19.94,8.52-19.94,19.04v251.88c0,10.52,8.93,19.04,19.94,19.04h166.7c11.01,0,19.94-8.52,19.94-19.04v-251.88c0-10.52-8.93-19.04-19.94-19.04Z"/>
      <path class="cls-2" d="M6234.17,633.8h-146c-9.64,0-17.46,8.52-17.46,19.04v251.88c0,10.52,7.82,19.04,17.46,19.04h146c9.64,0,17.46-8.52,17.46-19.04v-251.88c0-10.52-7.82-19.04-17.46-19.04Z"/>
      <path class="cls-4" d="M6665.6,633.8h-166.7c-11.01,0-19.94,8.52-19.94,19.04v251.88c0,10.52,8.93,19.04,19.94,19.04h166.7c11.01,0,19.94-8.52,19.94-19.04v-251.88c0-10.52-8.93-19.04-19.94-19.04Z"/>
      <path class="cls-4" d="M6438.02,633.8h-149.28c-9.86,0-17.85,8.52-17.85,19.04v251.88c0,10.52,7.99,19.04,17.85,19.04h149.28c9.86,0,17.85-8.52,17.85-19.04v-251.88c0-10.52-7.99-19.04-17.85-19.04Z"/>
      <text class="cls-5" transform="translate(72.15 115)"><tspan x="0" y="0">№15</tspan></text>
      <text class="cls-5" transform="translate(72.15 883)"><tspan x="0" y="0">№13</tspan></text>
      <text class="cls-5" transform="translate(328.48 883)"><tspan x="0" y="0">№102</tspan></text>
      <text class="cls-5" transform="translate(556.23 115)"><tspan x="0" y="0">№14</tspan></text>
      <text class="cls-5" transform="translate(6284.06 901.38)"><tspan x="0" y="0">№118</tspan></text>
      <text class="cls-5" transform="translate(6494.7 901.38)"><tspan x="0" y="0">№117</tspan></text>
      <text class="cls-5" transform="translate(6723.72 901.38)"><tspan x="0" y="0">№116</tspan></text>
      <text class="cls-5" transform="translate(5807.63 115)"><tspan x="0" y="0">№111</tspan></text>
      <text class="cls-5" transform="translate(6038.1 115)"><tspan x="0" y="0">№112</tspan></text>
      <text class="cls-5" transform="translate(6267.46 115)"><tspan x="0" y="0">№113</tspan></text>
      <text class="cls-5" transform="translate(6493.51 115)"><tspan x="0" y="0">№114</tspan></text>
      <text class="cls-5" transform="translate(6720.91 115)"><tspan x="0" y="0">№115</tspan></text>
      <text class="cls-6" transform="translate(412.94 509.64)"><tspan x="0" y="0">Готель</tspan></text>
      <text class="cls-6" transform="translate(6133.62 509.64)"><tspan x="0" y="0">Секція №110</tspan></text>
      <text class="cls-5" transform="translate(127.49 300.29)"><tspan x="0" y="0">3/0</tspan></text>
      <text class="cls-5" transform="translate(611.57 237.99)"><tspan x="0" y="0">2/0</tspan></text>
      <text class="cls-5" transform="translate(127.49 721.06)"><tspan x="0" y="0">3/0</tspan></text>
      <text class="cls-5" transform="translate(6786.69 290.59)"><tspan x="0" y="0">3/0</tspan></text>
      <text class="cls-5" transform="translate(6540.57 228.29)"><tspan x="0" y="0">2/0</tspan></text>
      <text class="cls-5" transform="translate(6312.82 228.29)"><tspan x="0" y="0">2/0</tspan></text>
      <text class="cls-5" transform="translate(6091.2 228.29)"><tspan x="0" y="0">2/0</tspan></text>
      <text class="cls-5" transform="translate(5845.08 287.53)"><tspan x="0" y="0">3/0</tspan></text>
      <text class="cls-5" transform="translate(6537.5 775.7)"><tspan x="0" y="0">2/0</tspan></text>
      <text class="cls-5" transform="translate(6320.99 775.7)"><tspan x="0" y="0">2/0</tspan></text>
      <text class="cls-5" transform="translate(6786.69 711.36)"><tspan x="0" y="0">3/0</tspan></text>
      <path class="cls-4" d="M727.15,623.74h-166.7c-11.01,0-19.94,8.52-19.94,19.04v117.39c0,8.32-6.74,15.06-15.06,15.06h-198.81c-8.32,0-15.06,6.74-15.06,15.06v108.26c0,8.32,6.74,15.06,15.06,15.06h232.11c.56.05,1.13.08,1.7.08h166.7c11.01,0,19.94-8.52,19.94-19.04v-251.88c0-10.52-8.93-19.04-19.94-19.04Z"/>
      <path class="cls-3" d="M1327.69,623.49h4.83c5.71,0,10.35,4.64,10.35,10.35v308.31c0,1.26-1.02,2.28-2.28,2.28h-20.98c-1.26,0-2.28-1.02-2.28-2.28v-308.31c0-5.71,4.64-10.35,10.35-10.35Z"/>
      <text class="cls-5" transform="translate(330.02 883)"><tspan x="0" y="0">№11</tspan></text>
      <text class="cls-5" transform="translate(599.83 764.97)"><tspan x="0" y="0">2/0</tspan></text>
      <text class="cls-5" transform="translate(5127.21 115)"><tspan x="0" y="0">№15а</tspan></text>
      <text class="cls-5" transform="translate(5386.04 285.99)"><tspan x="0" y="0">3/0</tspan></text>
      <text class="cls-5" transform="translate(2378.19 883)"><tspan x="0" y="0">№2</tspan></text>
      <path class="cls-4" d="M1416.6,82.76c0-15.2-12.32-27.51-27.51-27.51h-375.26c-11.01,0-19.94,8.93-19.94,19.94v271.5c0,11.01-8.93,19.94-19.94,19.94h-22.63c-11.01,0-19.94,8.93-19.94,19.94v42.01c0,11.01,8.93,19.94,19.94,19.94h257.56c11.01,0,19.94-8.93,19.94-19.94v-155.35c0-15.2,12.32-27.51,27.51-27.51h132.77c15.2,0,27.51-12.32,27.51-27.51V82.76Z"/>
      <path class="cls-4" d="M1432.85,82.09v150.89c0,14.92-12.1,27.02-27.02,27.02h-135.57c-14.92,0-27.02,12.1-27.02,27.02v134.46c0,14.92,12.1,27.02,27.02,27.02h337.11c14.92,0,27.02-12.1,27.02-27.02V82.09c0-14.92-12.1-27.02-27.02-27.02h-147.49c-14.92,0-27.02,12.1-27.02,27.02Z"/>
      <rect class="cls-4" x="1366.85" y="622.17" width="335.7" height="292.17" rx="35.53" ry="35.53"/>
      <text class="cls-5" transform="translate(1011.72 115)"><tspan x="0" y="0">№12</tspan></text>
      <text class="cls-5" transform="translate(1067.06 287.02)"><tspan x="0" y="0">2/0</tspan></text>
      <text class="cls-5" transform="translate(1443.72 115)"><tspan x="0" y="0">№10</tspan></text>
      <text class="cls-5" transform="translate(1490.89 287.02)"><tspan x="0" y="0">2/0</tspan></text>
      <text class="cls-5" transform="translate(1385.51 883)"><tspan x="0" y="0">№9</tspan></text>
      <text class="cls-5" transform="translate(1496.76 773.4)"><tspan x="0" y="0">2/0</tspan></text>
      <path class="cls-4" d="M2018.13,90.09c0-19.39-15.72-35.11-35.11-35.11h-293.62c-19.39,0-35.11,15.72-35.11,35.11v322.72c0,19.39,15.72,35.11,35.11,35.11h176.54c19.39,0,35.11-15.72,35.11-35.11v-132c0-19.39,15.72-35.11,35.11-35.11h46.86c19.39,0,35.11-15.72,35.11-35.11v-120.51Z"/>
      <path class="cls-4" d="M2034.86,90.09v136.6c0,19.39-15.72,35.11-35.11,35.11h-46.86c-19.39,0-35.11,15.72-35.11,35.11v115.91c0,19.39,15.72,35.11,35.11,35.11h293.62c19.39,0,35.11-15.72,35.11-35.11V90.09c0-19.39-15.72-35.11-35.11-35.11h-176.54c-19.39,0-35.11,15.72-35.11,35.11Z"/>
      <path class="cls-4" d="M2248.94,887.41c0,14.52-15.72,26.29-35.11,26.29h-293.62c-19.39,0-35.11-11.77-35.11-26.29v-241.64c0-14.52,15.72-26.29,35.11-26.29h176.54c19.39,0,35.11,11.77,35.11,26.29v98.83c0,14.52,15.72,26.29,35.11,26.29h46.86c19.39,0,35.11,11.77,35.11,26.29v90.23Z"/>
      <path class="cls-4" d="M2265.67,887.41v-102.28c0-14.52-15.72-26.29-35.11-26.29h-46.86c-19.39,0-35.11-11.77-35.11-26.29v-86.79c0-14.52,15.72-26.29,35.11-26.29h293.62c19.39,0,35.11,11.77,35.11,26.29v241.64c0,14.52-15.72,26.29-35.11,26.29h-176.54c-19.39,0-35.11-11.77-35.11-26.29Z"/>
      <path class="cls-4" d="M2896.43,645.78c0-14.52-15.72-26.29-35.11-26.29h-293.62c-19.39,0-35.11,11.77-35.11,26.29v241.64c0,14.52,15.72,26.29,35.11,26.29h176.54c19.39,0,35.11-11.77,35.11-26.29v-98.83c0-14.52,15.72-26.29,35.11-26.29h46.86c19.39,0,35.11-11.77,35.11-26.29v-90.23Z"/>
      <path class="cls-4" d="M2913.16,645.78v102.28c0,14.52-15.72,26.29-35.11,26.29h-46.86c-19.39,0-35.11,11.77-35.11,26.29v86.79c0,14.52,15.72,26.29,35.11,26.29h293.62c19.39,0,35.11-11.77,35.11-26.29v-241.64c0-14.52-15.72-26.29-35.11-26.29h-176.54c-19.39,0-35.11,11.77-35.11,26.29Z"/>
      <path class="cls-4" d="M2536.24,222.09V90.09c0-19.39-15.72-35.11-35.11-35.11h-167.3c-19.39,0-35.11,15.72-35.11,35.11v322.72c0,19.39,15.72,35.11,35.11,35.11h276.26c19.39,0,35.11-15.72,35.11-35.11v-120.51c0-19.39-15.72-35.11-35.11-35.11h-38.74c-19.39,0-35.11-15.72-35.11-35.11Z"/>
      <path class="cls-4" d="M2665.04,54.98h-76.66c-19.39,0-35.11,15.72-35.11,35.11v115.91c0,19.39,15.72,35.11,35.11,35.11h41.55c19.39,0,35.11,15.72,35.11,35.11v136.6c0,19.39,15.72,35.11,35.11,35.11h167.3c19.39,0,35.11-15.72,35.11-35.11V90.09c0-19.39-15.72-35.11-35.11-35.11h-202.41Z"/>
      <text class="cls-5" transform="translate(1672.74 115)"><tspan x="0" y="0">№8</tspan></text>
      <text class="cls-5" transform="translate(1732.17 287.02)"><tspan x="0" y="0">2/0</tspan></text>
      <text class="cls-5" transform="translate(2052.65 115)"><tspan x="0" y="0">№6</tspan></text>
      <text class="cls-5" transform="translate(2112.08 287.02)"><tspan x="0" y="0">2/0</tspan></text>
      <text class="cls-5" transform="translate(2321.25 115)"><tspan x="0" y="0">№4</tspan></text>
      <text class="cls-5" transform="translate(2380.68 287.02)"><tspan x="0" y="0">2/0</tspan></text>
      <text class="cls-5" transform="translate(2576.57 115)"><tspan x="0" y="0">№2</tspan></text>
      <text class="cls-5" transform="translate(2738.13 287.02)"><tspan x="0" y="0">2/0</tspan></text>
      <text class="cls-5" transform="translate(1908.4 883)"><tspan x="0" y="0">№7</tspan></text>
      <text class="cls-5" transform="translate(1970.64 773.4)"><tspan x="0" y="0">2/0</tspan></text>
      <text class="cls-5" transform="translate(2286.78 883)"><tspan x="0" y="0">№5</tspan></text>
      <text class="cls-5" transform="translate(2349.02 773.4)"><tspan x="0" y="0">2/0</tspan></text>
      <text class="cls-5" transform="translate(2556.4 883)"><tspan x="0" y="0">№3</tspan></text>
      <text class="cls-5" transform="translate(2638.55 773.4)"><tspan x="0" y="0">2/0</tspan></text>
      <text class="cls-5" transform="translate(2816.83 883)"><tspan x="0" y="0">№1</tspan></text>
      <text class="cls-5" transform="translate(2990.89 773.4)"><tspan x="0" y="0">2/0</tspan></text>
    </g>
  </g>
</svg>