<?xml version="1.0" encoding="UTF-8"?>
<svg id="_Шар_2" data-name="Шар 2" xmlns="http://www.w3.org/2000/svg" viewBox="0 0 1087.09 924.35">
  <defs>
    <style>
      .cls-1 {
        fill: #23a23d;
        stroke-width: 0px;
      }
    </style>
  </defs>
  <g id="_Шар_1-2" data-name="Шар 1">
    <g>
      <path class="cls-1" d="M186.84,767.96c31.46-31.93,46.68-72.13,61.01-113.44,15.01-43.28,43.73-74.52,90.12-85.86,7.59-1.85,15.52-2.27,23.21-3.34.9-2.63-.76-4.25-1.86-5.94-23.78-36.87-26.89-77.67-23.46-119.95,2.29-28.2,10.75-55.26,14.19-83.22,3.74-30.35-2.7-58.22-18.59-84.41-7.08-11.68-16.36-15.76-28.96-12.84-28.23,6.53-54.69,16.58-73.2,40.62-8.02,10.42-18.56,15.77-31.44,15.3-53.62-1.96-83.1,31.59-107.63,72.55-4.49,7.5-3.45,13.88,3.45,20.01,10.89,9.67,21.55,19.67,31.47,30.32,7.38,7.92,15.28,16.83,10.32,29.03-5.1,12.55-17.31,12.8-28.39,14.17-11.73,1.45-23.5,2.55-35.27,3.63-9.57.87-16.62,5.18-20.58,14.12-5.53,12.47-9.57,25.92-16.98,37.14-10.58,16.02-16.19,30.96-5.43,49.09,2.74,4.63,1.95,11.44-.3,16.9-2.64,6.41-1.47,11.93,2.73,16.92,14.28,16.99,17.91,37.22,18.66,58.58.3,8.43,2.18,16.8,3.37,25.19,1.06,7.52,4.67,13.54,10.25,18.72,8.46,7.84,16.61,16.01,24.8,24.14,2.15,2.13,4.05,4.53,5.87,6.95q15.26,20.32,36.4,31.39c-17.24-1.98-32.3-2.34-41.6-18.43-5.45-9.44-14.91-16.21-23.95-22.12-22.59-14.77-30.77-36.57-32.38-61.84-1.26-19.79-5.34-38.17-18.88-53.76-7.12-8.2-8.93-18.35-5.32-29.09,1.86-5.55.38-10.87-2.31-15.77-8.77-15.93-8.37-31.01,2.82-45.89,5.85-7.78,8.74-17.27,12.39-26.25,2.17-5.33,4.47-10.61,6.47-16.01,8.23-22.24,24.88-32.64,47.83-34.38,7.86-.6,15.71-1.33,23.56-2.06,2.67-.25,6.21.27,7.41-2.41,1.37-3.07-2.18-4.62-4-6.34-9.06-8.54-18.53-16.65-27.43-25.34-15.17-14.81-17.51-25.6-9.06-45.02,11.12-25.56,28.98-46.17,49.85-64.2,5.9-5.09,10.19-10.59,13.37-17.82,45.69-103.93,119.68-180.74,221.92-230.18,5.64-2.73,10.12-6.09,13.85-11.18,14.22-19.37,35.52-27.12,57.47-32.36,44.68-10.68,89.34-13.39,132.84,5.78,6.49,2.86,12.05,1.94,18.02-1.5,19.51-11.24,39.8-20.68,62.16-24.87,32.14-6.03,63.43-1.3,94.22,7.95,24.75,7.43,48.78,16.73,70.12,31.74,25.64,18.04,30.87,32.18,22.77,62.39-4.86,18.13-10.31,36.09-15.46,54.14-.58,2.03-.91,4.13-1.35,6.2-1.38,6.38.19,8.74,6.83,5.48,11.15-5.48,22.8-10.04,33.61-16.11,35.85-20.12,68.56-16.44,99.7,10.4,17.46,15.05,36.48,28.04,57.51,38.1,16.69,7.98,23.01,23.6,24.51,41.02,1.1,12.78,3.79,23.67,14.35,32.84,11.7,10.16,12.78,25.09,10.73,39.67-2.83,20.04-1.25,38.99,8.12,57.47,9.03,17.81,17.04,36.2,22.71,55.47,4.13,14.04,4.41,27.9-.51,41.96-6.71,19.14-12.84,38.49-19.17,57.77-1.71,5.21-2.31,10.47-1.81,16.07.71,7.91-2.84,14.79-7.29,21.06-7.68,10.83-17.71,19.03-30.2,24.79,4.06-5.32,8.24-10.55,12.16-15.96,7.65-10.57,12.3-21.44,10.1-35.48-2.38-15.13,2.74-29.99,6.54-44.66,2.2-8.5,4.11-17.14,7.12-25.35,5.12-13.95,3.71-27.16-1.74-40.65-7.05-17.46-15.23-34.38-23.57-51.21-9.37-18.91-11.79-38.69-8.96-59.29,1.57-11.44.39-21.02-9.94-29.03-13.38-10.37-14.6-26.72-16.27-42.07-1.21-11.16-6.06-18.45-16.52-22.75-17-6.99-31.5-18.12-46.06-29.09-9.94-7.48-19.82-15-30.87-20.9-8.29-4.43-16.35-5.07-25.32-2.08-15.34,5.1-29.45,12.79-43.98,19.61-9.87,4.64-19.57,9.7-30.37,11.99-19.97,4.24-32.53-5.57-33.07-26.09-.4-15.08,4.05-29.32,8.06-43.61,4.18-14.86,8.3-29.74,12.77-44.51,2.04-6.74.31-11.96-4.92-16.18-4.24-3.42-8.44-7.02-13.11-9.77-31.3-18.42-65.28-29.1-101.24-32.78-29.12-2.98-56.2,5.36-80.53,20.7-19.62,12.37-38.16,12.47-59.45,4.52-43.59-16.28-86.53-9.47-128.1,8.63-14.16,6.17-19.81,18.67-20.95,33.7-4.65,61.08,18.44,110.73,62.4,151.72,26.48,24.7,51.77,50.43,72.84,80.03,21.53,30.23,37.9,62.73,44.34,99.69,3.63,20.83,3.3,41.65.46,62.5-.39,2.84-3.02,6.48.07,8.27,2.72,1.58,5.4-1.91,7.88-3.44,26.5-16.38,55.46-24.66,86.43-24.15,31.16.51,60.26,9.64,87.45,24.89,15.69,8.8,30.48,18.94,43.58,31.23,47.6,44.64,103.63,73.39,166.69,88.86,7.78,1.91,10.16,3.75,6.76,12.19-62.23,154.36-173.73,253.25-337.09,284.55-165.76,31.76-307.71-19.25-422.79-143.28-7.87-8.48-7.72-8.62-18.92-3.9ZM512.47,840.44c-1.71-.9-2.57-1.12-3.11-1.67-2.8-2.78-5.8-5.41-8.21-8.5-33.01-42.32-45.8-90.32-39.06-143.36,1.8-14.18-.12-26.71-9.96-37.18-16.28-17.3-36.08-30.56-54.02-45.97-1.72-1.48-4.41-1.91-6.71-2.64-37.4-11.82-70.44-2.29-95.69,27.65-12.61,14.95-22.45,31.65-30.61,49.37-9.57,20.79-21.2,40.25-36.54,57.36-8.39,9.35-8.55,9.52-.06,18.58,107.64,114.92,239.79,162.31,394.36,133.01,145.05-27.49,247.31-113.45,308.18-248.11,7.75-17.14,7.41-17.27-10.81-19.67-3-.4-5.96-1.09-8.94-1.63-51.24-9.29-98.66-27.03-138.58-61.84-15.41-13.43-32.73-24.13-51.5-32.29-25.2-10.96-51.39-16.37-78.91-12.39-33.89,4.9-61.1,22.36-84.84,46.02-7.06,7.04-14.71,13.68-18.77,23.21-9.62,22.58-19.8,44.95-28.83,67.76-17.29,43.69-23.88,88.76-15.5,135.48,3.48,19.39,9.97,37.83,18.12,56.81ZM530.53,470.95c.57-10.32-.06-20.58-1.66-30.79-4.86-30.98-18.73-58.04-36.52-83.34-18.25-25.95-40.05-48.75-63.19-70.3-14.69-13.68-28.79-27.85-40.6-44.17-28.53-39.42-42.77-83.2-40.31-132.07.13-2.66,2.07-6.09-.22-7.78-2.85-2.1-5.59,1.07-8.12,2.47-49.55,27.3-91.82,63.23-127.02,107.49-17.24,21.67-32.14,44.86-44.74,69.52-.92,1.81-2.86,3.85-1.39,5.82,1.42,1.89,4.04,1.09,5.99.55,7.14-1.99,14.48-1.28,21.72-1.83,5.48-.42,9.6-2.3,12.97-6.96,21.8-30.11,52.74-45.76,87.92-53.94,23.31-5.42,43.97-.99,59.23,19.34,19.57,26.07,28.98,55.61,30.31,87.93.98,23.91-4.94,46.83-9.85,69.96-5.79,27.29-9.7,54.7-7.11,82.94,3.32,36.29,20.46,64.53,46.37,88.86,19.05,17.88,40.73,32.68,59.08,51.31,4.3,4.37,5.3.96,6.65-2.27,10.89-25.98,22.14-51.81,32.54-77.98,9.53-23.98,17.18-48.55,17.93-74.73Z"/>
      <path class="cls-1" d="M753.87,439c67.35,35.94,125.62,83.75,196.95,107.6,6.58,2.2,13.14,4.45,19.59,7.12-20.1-2.52-39.26-8.61-58.17-15.57-41.21-15.15-79.45-36.12-116.39-59.61-13.6-8.65-27.69-16.32-42.84-21.93-2.69-1-5.5-1.71-9.85-3.04,64.69,41.11,119.9,93.21,189.07,123.95,5.79,2.57,11.53,5.25,16.85,9.25-5.04-1.67-10.13-3.2-15.11-5.04-54.45-20.18-103.75-49.88-151.58-82.27-23.74-16.07-48.64-29.84-76.79-36.52-39.4-9.34-77.6-6.99-113.78,12.87-2.55,1.4-4.93,3.65-8.43,3.14-1.83-7.94,1.28-15.6,1.17-23.41-.53-37.54-10.33-72.44-29.73-104.56-13.42-22.23-29.88-41.99-49.08-59.53-26.06-23.81-50.69-48.96-70.06-78.73-10.61-16.3-19.26-33.53-23.74-52.83,25.78,66.15,82.83,103.94,133.26,148.04,1.23-4.03-1.96-6.19-3.67-8.7-15.05-22.11-31.69-43-48.64-63.67-26.85-32.73-45.8-69.16-51.42-111.7-.24-1.8-.66-3.6-.68-5.4-.08-6.98-.03-13.96-.03-23.26,5.21,44.94,23.07,82.16,49.31,115.5,20.06,25.49,42.58,48.99,61.46,75.85,2.86-3.2.35-5.07-.61-6.76-7.51-13.18-14.83-26.49-22.95-39.29-24.82-39.1-36.37-82.27-40.08-127.93-.76-9.31-2.34-18.58-.6-28.33,7.27,76.7,43.34,140.97,87.44,201.96-25.84-59.67-45.43-120.78-42.77-186.83.07-1.64-.7-3.69,1.93-5.22,5.33,43.53,13.72,86.07,30.33,126.59,8.35,20.38,16.95,40.66,26.87,60.75-15.34-61.83-24.81-123.85-11.39-187.24-.79,31.62,1.37,63.08,6.24,94.26,4.9,31.42,13.94,61.92,22.71,92.57.08-21.76-2.53-43.38-2.27-65.11.27-22.18,2.29-44.18,5.08-66.16,2.78-21.93,6.55-43.64,11.88-65.14-4.1,64.32-8.32,128.61,2.28,192.98,4.71-64.26,22.23-125.23,46.86-184.41-14.3,63.8-30.83,127.22-30.46,193.57,17.59-64.2,44.83-124.37,75.68-183.04-20.2,61.19-45.11,120.86-58.51,184.28,20.88-43.97,45.42-85.37,78.16-121.53-24.84,45.57-50.31,90.77-66.59,140.54,27.15-32.44,55.37-63.51,90.14-88.16-23.93,31.38-48.12,62.54-68.91,96.43,44.91-36.79,93.69-66.56,147.67-87.67-46.03,27.47-90.37,57.25-129.63,94.39,63.28-34.73,131.43-57.31,198.94-81.55-60.01,32.38-124.38,56.13-182.59,92.4,71.17-34.14,149.17-41.36,224.81-57.91-68.43,25.82-142.34,35.02-208.78,68.35,1.87,2.25,3.45.68,4.79.27,47.89-14.72,97.1-20.3,146.96-22.29,26.3-1.05,52.57-3.42,78.52-8.46-21.1,7.68-42.94,12.14-65.09,15.05-47.72,6.29-95.68,11.19-141.93,25.61-4.1,1.28-8.78,1.55-13.11,6.26,18.01-3.06,34.67-5.54,51.45-7.29,26.72-2.77,53.41-1.51,80.04.33,33,2.29,65.94,5.45,99.06,1.62-17.51,5.29-35.49,7.34-53.57,7.96-34.58,1.18-69.22-.92-103.8,1.87-19.61,1.58-39.07,3.85-58.37,9.39,79.82-8.62,156.57,17.78,237.58,19.15-39.42,5.4-76.55,1.52-113.68-1.95-38.63-3.61-77.27-6.04-116.24-.39,3.45.52,6.89,1.41,10.35,1.51,45.79,1.45,89.85,12.55,133.94,23.67,27.91,7.04,56.05,13.03,84.99,14-33.42,3.16-66.22-1.64-98.9-7.79-40.81-7.68-81.61-15.4-123.36-15.63-3.58-.02-7.16,0-10.87,1.55,15.61,3.75,31.32,7.13,46.81,11.32,31.65,8.55,61.93,21.01,92.28,33.25,27.79,11.21,56,21.11,85.56,26.75-31.62-.59-61.56-9.23-91.21-19.01-39.97-13.18-79.74-27.02-121.3-34.6-5.66-1.03-11.36-1.83-17.06-2.6-1.43-.19-2.93.17-4.67,1.67,5.55,1.7,11.1,3.39,16.64,5.11,26.19,8.12,50.41,20.75,74.93,32.69,41.43,20.16,82.91,40.21,126.62,55.14.82.28,1.52.91,4.17,2.56-21.8-3.87-40.68-10.13-59.53-16.5-41.13-13.89-80.39-32.32-120.3-49.2-15.52-6.56-31.62-11.46-50.21-15.35Z"/>
      <path class="cls-1" d="M60.98,575.45c43.41-16.78,85.15-38.17,131.45-47.17-41,1.11-81.11,9.82-121.85,12.53,45.18-11.13,90.38-22.13,136.86-27.03-33.16-6.58-66.49-5.94-99.83-5.98,36.8-8,73.92-9.38,111.54-5.16-21.13-12-44.05-19.27-66.58-27.63,25.49,2.02,50.05,8.58,75.04,14.59-25.31-20.65-53.86-36.03-81.84-52.51,26.67,6.16,50.66,18.7,75,31.11-7.77-9.95-17.71-17.4-27.28-25.22-9.64-7.88-19.47-15.51-29.26-23.2-9.99-7.85-20.03-15.65-29.61-24.1,34.48,18.48,66.97,39.95,97.66,64.6-3.94-9-10.29-16.29-16.45-23.62-6.45-7.66-13.21-15.07-20.07-22.37-6.65-7.09-13.61-13.87-20.38-20.85-6.92-7.13-13.78-14.33-20.47-21.71,30.94,21.28,59.24,45.56,83.9,74.31-14.11-33.45-36.03-62.03-55.79-92.03,27.23,25.61,50.19,54.6,68.58,87.36-8.53-36.3-23.9-69.5-42.98-101.15,26.44,27.21,42.82,60.22,55.49,95.54-3.42-40.58-14.41-78.94-31.71-115.64,12.25,15.97,21.46,33.48,28.86,52.05,7.41,18.58,10.43,38.32,15.67,57.51,5.05-44.36-2.08-86.85-19.47-127.82,24.27,36.32,33.61,76.82,33.16,120.13,6.56-42.73,16.65-85.2-.68-127.33,28.15,43.52,15.92,91.14,13.79,137.82,14.02-41.87,29.46-83.38,18.94-128.8,9.02,20.85,10.58,42.5,8.72,64.75-2.1,25.2-9.56,49.31-14.34,73.95-8.3,42.79-.96,81.38,30.74,114.4-6.24,4.04-13.19,2.8-19.36,4.01-35.14,6.9-61.99,25.33-79.8,56.38-12.4,21.6-20.33,45.35-31.5,67.56-9.53,18.96-19.39,37.7-32.35,54.7,19.61-36.22,32.45-75.1,44.92-114.32-20.93,41.93-42.58,83.29-77.27,116,31.52-39.24,50.78-85.04,69.87-131.11-30.97,38.57-54.65,82.84-91.03,117.16,30.76-39.42,52.55-84.56,80.7-125.7-37.73,31.3-61.01,76.16-100.49,105.78,16.5-17.01,29.99-36.33,43.45-55.67,13.69-19.65,28.39-38.49,44.33-56.57-38.85,23.08-66.09,60.57-104.82,83.71,32.58-28.05,57.49-63.81,91.35-90.74-38.24,19.18-67.6,51.62-105.96,70.58,35.88-26.64,65.09-61.36,103.58-85-37.77,13.82-67.61,42.18-105.14,56.33,36.96-23.05,68.13-54.64,108.55-72.72-42.65,9.82-78.89,35.69-120.88,46.96,41.32-19.45,78.19-47.65,122.44-61.52-44.06,5.08-84.3,24.41-127.38,32.85Z"/>
      <path class="cls-1" d="M814.44,754.06c-1.53-1.26-2.74-2.16-3.84-3.18-7.28-6.82-14.55-13.66-21.81-20.51-2.01-1.89-4.04-3.49-1.2-6.65,3.09-3.44,5.06-1.67,7.37.62,4.32,4.3,8.01,9.19,14.27,1.42,3.96-4.92,4.55-7.93-.64-11.6-1.22-.86-2.18-2.09-3.3-3.11-2.28-2.07-2.07-3.91.02-6.12,2.16-2.29,3.81-2.18,6-.07,7.62,7.35,15.32,14.62,23.07,21.82,2.43,2.25,2.98,4.15.43,6.79-2.84,2.95-4.39.67-6.81-.69-3.91-2.21-5.5-11.19-12.73-4.66-7.76,7-7.78,7.41.58,15.98,1.5,1.54,4.79,2.58,3.05,5.62-.96,1.68-2.87,2.82-4.48,4.33Z"/>
      <path class="cls-1" d="M668.9,802.35c-9.67,16.91-.38,27.21,13.18,35.55-5.72,5.37-9.9,4.43-13.97-.14-1.6-1.8-3.55-3.3-5.29-4.99-1.85-1.79-3.91-3.23-6.45-1.79-2.91,1.64-1.46,4.19-.81,6.44.59,2.03,1.18,4.08,2.02,6.02,1.14,2.63-.13,4.07-2.27,5.02-2.6,1.16-4.75.73-5.76-2.28-3.46-10.31-6.92-20.63-10.34-30.95-.89-2.68-.54-4.64,2.82-5.36,2.93-.63,4.2.29,5.51,3,1.68,3.45.53,10.46,6.01,9.49,5.26-.93,3.57-7.49,4.06-11.77.68-5.88,3.83-8.47,11.29-8.23Z"/>
      <path class="cls-1" d="M732.61,770.11c1.03-4.14,4.4-7.54,8.68-4.85,10.45,6.56,20.18,14.26,30.18,21.54,1.23.89,2.63,2.31.83,3.54-2.06,1.41-3.83,3.5-7.24,2.3-9.75-3.41-14.68-.07-15.7,10.35-.33,3.33-2.43,5-5.06,5.52-3.1.62-2.76-2.44-3.23-4.33-2.78-11.08-5.51-22.17-8.47-34.07ZM742.97,776.67c.65,4.77-.96,10.44,4.94,12.22,1.25.38,4.89-2.2,4.84-3.3-.26-5.63-5.42-6.92-9.78-8.92Z"/>
      <path class="cls-1" d="M851.41,712.53c-1.29-1.42-2.38-2.41-3.21-3.58-6.29-8.92-12.5-17.88-18.79-26.8-1.65-2.33-2.84-4.38-.77-7.3,2.09-2.95,4.27-3.64,7.72-2.65,10.17,2.9,20.44,5.47,30.65,8.25,2.04.56,5.68-.15,4.62,3.73-.71,2.58-2.41,4.48-5.89,4.61-9.64.34-13.72,6.25-10.57,15.24,1.49,4.26-1.2,5.88-3.76,8.5ZM839.64,682.27c2.71,3.82,3.06,9.95,9.16,9.33,1.29-.13,3.61-3.8,3.16-4.86-2.25-5.33-7.54-4.37-12.33-4.47Z"/>
      <path class="cls-1" d="M706.11,786.01c6.07-.28,10.28,2.47,12.03,7.94,2.07,6.47.4,12.41-5.88,15.57-6.65,3.34-10.57,6.72-4.94,14.15,1.58,2.09,1.38,4.21-1.69,5.81-3.5,1.82-4.87.4-6.25-2.45-4.38-8.99-8.71-18.01-13.34-26.87-1.97-3.78-1.53-6.27,2.44-7.95,5.8-2.45,10.98-6.68,17.63-6.21ZM702.69,792.67c-2.52,1.62-7.86,1.35-7.12,5.95.56,3.48,1.38,9.34,6.9,8.69,3.91-.46,8.39-2.68,7.88-8.17-.38-4.12-2.99-6.34-7.66-6.47Z"/>
      <path class="cls-1" d="M589.37,822.16c8.34-3.96,11.12,1.59,14.51,6.23,1.54,2.11,2.6,5.78,5.5,5.41,3.54-.46,2.1-4.38,2.76-6.82.24-.87.51-1.74.7-2.62.88-4.09,1.38-9.8,7.03-8.15,4.38,1.28,1.48,6.08.76,9.37-1.74,7.95-3.47,15.91-5.28,23.85-.82,3.59-2.06,7-5.34,9.16-2.1,1.38-4.6,2.68-6.49.38-1.57-1.91-.29-3.87,1.73-5.25,4.45-3.05,3.31-6.46.57-10.01-5.34-6.93-10.62-13.91-16.43-21.54Z"/>
      <path class="cls-1" d="M771.93,738.63c.66,1.51,1,3.14,1.94,4.28,6.51,7.91,13.13,15.73,19.75,23.54,1.88,2.22,3.3,4.05.25,6.75-2.97,2.63-4.76,1.42-6.71-.89-6.79-8.07-13.58-16.14-20.34-24.24-1.16-1.39-2.45-2.98-.78-4.74,1.2-1.27,2.74-2.22,5.89-4.7Z"/>
      <circle class="cls-1" cx="758.44" cy="739.99" r="3.36"/>
      <circle class="cls-1" cx="765.76" cy="733.06" r="3.36"/>
    </g>
  </g>
</svg>