<?xml version="1.0" encoding="UTF-8"?>
<svg id="_Шар_2" data-name="Шар 2" xmlns="http://www.w3.org/2000/svg" viewBox="0 0 669.23 767.31">
  <defs>
    <style>
      .cls-1 {
        fill: #efc825;
        stroke-width: 0px;
      }
    </style>
  </defs>
  <g id="_Шар_1-2" data-name="Шар 1">
    <g>
      <path class="cls-1" d="M199.89,0c-14.34,5.89-24.08,15.51-26.45,31.57-2.88,19.59,13,39.54,32.77,40.7,3.48.2,6.98.11,10.48.11,109.02,0,218.05-.02,327.07.02,23.59,0,40.88,10.95,48.64,30.51,2.91,7.32,3.51,15.08,3.51,22.79.08,171.64.07,343.28.06,514.93,0,22.63-8.22,40.37-30.13,49.65-7.7,3.26-15.92,3.82-24.21,3.82-110.02-.02-220.04-.03-330.06,0-20.96,0-35.1,12.14-38.15,32.51-2.87,19.14,13.11,38.97,32.5,40.26,2.73.18,5.49.11,8.23.11,110.52,0,221.05-.8,331.56.33,58.33.6,114.4-41.39,122.64-106.49.72-5.66.59-11.45.59-17.18.03-173.64-.48-347.28.31-520.91.26-56.27-38.29-109.94-98.3-121.52-1.45-.28-2.86-.79-4.29-1.2-122.25,0-244.51,0-366.76,0Z"/>
      <path class="cls-1" d="M125.58,346.77c3.33-3.49,5.16-5.49,7.08-7.4,33.32-33.34,66.75-66.57,99.95-100.04,19.51-19.67,14.25-50.2-10.39-60.77-13.57-5.82-26.34-3.53-37.9,5.51-2.15,1.68-4.04,3.71-5.98,5.65-54.68,54.66-109.35,109.33-164.01,164.01-19.06,19.07-19.11,39.89-.11,58.9,55.19,55.21,110.36,110.43,165.62,165.58,15.22,15.19,37.28,16.53,51.87,3.46,16.67-14.93,17.03-38.35.53-54.94-33.24-33.42-66.61-66.71-100.01-99.97-1.86-1.85-4.45-2.96-7.73-5.07,5.79-2.65,8.79-1.96,11.69-1.96,90.03-.05,180.07-.02,270.1-.07,14.46,0,25.52-6.33,32.32-19.14,6.77-12.75,6.08-25.6-1.78-37.62-7.4-11.32-18.34-16.17-31.84-16.16-89.54.09-179.08.04-268.62.04-2.94,0-5.87,0-10.78,0Z"/>
    </g>
  </g>
</svg>