<?xml version="1.0" encoding="UTF-8"?>
<svg id="_Шар_2" data-name="Шар 2" xmlns="http://www.w3.org/2000/svg" viewBox="0 0 592.08 678.85">
  <defs>
    <style>
      .cls-1 {
        fill: #efc825;
        stroke-width: 0px;
      }
    </style>
  </defs>
  <g id="_Шар_1-2" data-name="Шар 1">
    <g>
      <path class="cls-1" d="M176.84,0c-12.69,5.21-21.31,13.72-23.4,27.93-2.55,17.33,11.5,34.98,28.99,36.01,3.08.18,6.18.09,9.27.09,96.45,0,192.91-.02,289.36.02,20.87,0,36.16,9.69,43.03,26.99,2.57,6.48,3.11,13.34,3.11,20.16.07,151.85.06,303.71.05,455.56,0,20.02-7.27,35.71-26.66,43.92-6.81,2.88-14.09,3.38-21.42,3.38-97.34-.02-194.67-.03-292.01,0-18.55,0-31.05,10.74-33.76,28.76-2.54,16.93,11.6,34.47,28.75,35.62,2.42.16,4.85.1,7.28.1,97.78,0,195.56-.71,293.33.29,51.61.53,101.21-36.62,108.5-94.21.63-5.01.52-10.13.52-15.2.02-153.62-.43-307.24.28-460.86.23-49.78-33.88-97.26-86.97-107.51-1.28-.25-2.53-.7-3.79-1.06-108.16,0-216.32,0-324.48,0Z"/>
      <path class="cls-1" d="M111.1,306.79c2.94-3.08,4.57-4.85,6.26-6.55,29.48-29.5,59.06-58.9,88.42-88.51,17.26-17.41,12.61-44.41-9.19-53.77-12.01-5.15-23.3-3.12-33.53,4.87-1.9,1.49-3.57,3.28-5.29,5-48.37,48.36-96.75,96.72-145.1,145.1-16.86,16.87-16.9,35.29-.1,52.11,48.82,48.85,97.64,97.7,146.52,146.49,13.46,13.44,32.98,14.63,45.89,3.06,14.75-13.21,15.07-33.93.47-48.61-29.41-29.57-58.93-59.02-88.48-88.45-1.64-1.64-3.94-2.62-6.84-4.49,5.12-2.34,7.78-1.73,10.34-1.73,79.66-.04,159.31-.02,238.97-.06,12.79,0,22.58-5.6,28.6-16.93,5.99-11.28,5.38-22.65-1.57-33.28-6.55-10.01-16.23-14.3-28.17-14.29-79.22.08-158.43.04-237.65.04-2.6,0-5.2,0-9.54,0Z"/>
    </g>
  </g>
</svg>