<?xml version="1.0" encoding="UTF-8"?>
<svg id="_Шар_2" data-name="Шар 2" xmlns="http://www.w3.org/2000/svg" viewBox="0 0 112.87 165.71">
  <defs>
    <style>
      .cls-1 {
        fill: #00a43c;
        stroke-width: 0px;
      }
    </style>
  </defs>
  <g id="_Шар_1-2" data-name="Шар 1">
    <path class="cls-1" d="M107.01,137.98c-12.69-11.16-25.45-22.27-38.17-33.41-6.95-6.08-13.88-12.17-20.82-18.27-1.46-1.28-2.22-2.37-2.31-3.44.09-1.08.85-2.16,2.31-3.44,6.94-6.09,13.87-12.19,20.82-18.27,12.72-11.14,25.47-22.25,38.17-33.41,7.1-6.24,7.8-15.22,1.86-21.85-2.82-3.14-6.6-4.89-10.91-5.89h-6.62c-2.59.49-4.86,1.42-6.94,2.65-.04.03-.09.05-.13.08-1.57.94-3.03,2.05-4.41,3.3-4.87,4.4-9.87,8.69-14.82,13.03C45.26,36.41,25.49,53.77,5.69,71.1c-2.59,2.27-4.49,4.87-5.23,8.01-.09.38-.16.75-.23,1.12-.16.86-.23,1.74-.23,2.63,0,.9.07,1.78.23,2.63.06.37.14.74.23,1.12.74,3.14,2.64,5.74,5.23,8.01,19.8,17.33,39.57,34.69,59.35,52.04,4.95,4.34,9.95,8.62,14.82,13.03,1.38,1.25,2.84,2.36,4.41,3.3.04.03.09.05.13.08,2.08,1.23,4.35,2.16,6.94,2.65h6.62c4.31-1,8.09-2.75,10.91-5.89,5.95-6.63,5.24-15.61-1.86-21.85Z"/>
  </g>
</svg>