<?xml version="1.0" encoding="UTF-8"?>
<svg id="_Шар_2" data-name="Шар 2" xmlns="http://www.w3.org/2000/svg" viewBox="0 0 163.49 163.45">
  <defs>
    <style>
      .cls-1 {
        fill: #00a43c;
        stroke-width: 0px;
      }
    </style>
  </defs>
  <g id="_Шар_1-2" data-name="Шар 1">
    <path class="cls-1" d="M88.03,163.45h-12.76c-.26-.06-.51-.16-.77-.18-9.53-.77-18.64-3.17-27.23-7.33-22.07-10.7-36.81-27.78-44.14-51.21-1.69-5.39-2.5-10.96-3.13-16.56,0-4.25,0-8.5,0-12.76.45-3.1.74-6.22,1.36-9.28,3.77-18.63,12.87-34.23,27.35-46.49C47.38,3.85,69.02-2.44,93.23.85c17.66,2.4,32.89,10.15,45.58,22.66,14.93,14.71,23.17,32.6,24.51,53.52.87,13.59-1.51,26.72-7.47,39.02-11.4,23.52-29.78,38.67-55.11,45.3-4.17,1.09-8.44,1.57-12.71,2.1ZM72.2,96.18c0,7.22,0,14.44,0,21.67,0,1.22.06,2.43.26,3.65.58,3.57,2.58,6.06,5.91,7.29,3.38,1.25,6.58.7,9.39-1.67,2.62-2.22,3.33-5.2,3.33-8.44,0-14.76,0-29.52,0-44.29,0-1.17-.08-2.33-.25-3.49-.94-6.39-7.83-9.94-13.54-6.91-3.75,1.99-5.09,5.37-5.1,9.41-.01,7.59,0,15.19,0,22.78ZM91,43.54c.02-5.1-4.23-9.35-9.34-9.37-5.1-.02-9.35,4.23-9.37,9.34-.02,5.1,4.23,9.35,9.34,9.37,5.1.02,9.35-4.23,9.37-9.34Z"/>
  </g>
</svg>