<?xml version="1.0" encoding="UTF-8"?>
<svg id="_Шар_2" data-name="Шар 2" xmlns="http://www.w3.org/2000/svg" viewBox="0 0 855.11 664.22">
  <defs>
    <style>
      .cls-1 {
        fill: #718679;
        stroke-width: 0px;
      }
    </style>
  </defs>
  <g id="_Шар_1-2" data-name="Шар 1">
    <g>
      <path class="cls-1" d="M427.53,526.22c-103.15,0-206.31,0-309.46,0-13.3,0-13.33.04-13.33,13.08-.02,27.95.03,55.9-.02,83.85-.03,17.76-6.31,24.38-23.73,24.56-19.3.2-38.6.23-57.9-.02-15.44-.2-22.68-7.36-22.93-22.72-.29-17.63-.09-35.27-.09-52.91,0-180.35,0-360.7.04-541.05h0C.11,14.08,13.76.26,30.71.11c18.87-.17,37.75-.15,56.62.17,10.22.17,16.45,6.88,17.26,17.1.29,3.64.14,7.32.14,10.98,0,84.19.18,168.37-.22,252.56-.05,10.23,2.94,12.81,12.96,12.8,213.96-.28,427.92.5,641.87-.76,46.83-.28,96.12,34.3,95.76,96.48-.47,82.52-.09,165.04-.13,247.57,0,21.65-5.61,27.2-27.13,27.21-17.97.01-35.94.04-53.91-.01-18.08-.05-23.58-5.64-23.6-24.05-.04-33.94-.35-67.89.2-101.82.16-9.81-3.13-12.3-12.55-12.28-103.48.29-206.97.18-310.45.18Z"/>
      <path class="cls-1" d="M251.8,260.93c-34.26,0-68.52-.26-102.77.18-9.1.12-12.13-2.75-11.97-11.92.49-28.26.41-56.54.04-84.81-.11-8.28,2.79-10.92,10.95-10.86,42.9.34,85.82-.25,128.71.39,49.3.73,93.28,48.49,91.45,97.88-.29,7.91-4,9.25-10.65,9.22-35.25-.16-70.51-.08-105.77-.07Z"/>
    </g>
  </g>
</svg>