<?xml version="1.0" encoding="UTF-8"?>
<svg id="_Шар_2" data-name="Шар 2" xmlns="http://www.w3.org/2000/svg" viewBox="0 0 947.19 949.61">
  <defs>
    <style>
      .cls-1 {
        fill: #00a43c;
        stroke-width: 0px;
      }
    </style>
  </defs>
  <g id="_Шар_1-2" data-name="Шар 1">
    <g>
      <path class="cls-1" d="M0,761.39V184.63c5.17-9.76,13.27-15.46,23.63-19.33C167.69,111.46,311.69,57.47,455.6,3.23c11.41-4.3,24-4.3,35.41,0,143.5,54.07,287.11,107.85,430.69,161.73,21.05,7.9,25.49,14.45,25.49,37.22,0,180.54,0,361.09,0,541.63,0,22.96-4.57,29.58-26.24,37.71-70.35,26.39-140.74,52.7-211.08,79.13-78.79,29.6-157.55,59.32-236.32,88.98-6.86-1.81-13.16-5.12-19.76-7.59-141.95-53.25-283.89-106.53-425.9-159.62-11.56-4.32-22.15-9.26-27.87-21.01ZM113.03,751.36c2.2,2.63,5.41,2.99,8.19,4.04,113.83,42.73,227.69,85.36,341.47,128.23,7.43,2.8,13.89,2.81,21.3.02,112.05-42.22,224.18-84.22,336.29-126.27,4.51-1.69,9.01-3.4,15.29-5.78-4.62-1.97-7.33-3.25-10.14-4.3-113.85-42.69-227.73-85.29-341.51-128.16-7.43-2.8-13.83-2.81-21.24-.01-113.48,42.76-227.05,85.28-340.59,127.91-3.07,1.15-6.6,1.52-9.06,4.33ZM444.7,388c0-44.34,0-88.69,0-133.03,0-12.63-.1-25.25.02-37.88.05-5.86-2.11-8.1-7.87-5.71-1.7.71-3.47,1.27-5.2,1.92-120.75,45.3-241.46,90.71-362.33,135.68-9.55,3.55-12.37,8.63-12.35,18.32.27,109.32.16,218.64.18,327.96,0,13.9.36,14.16,13.23,9.33,121.05-45.39,242.07-90.88,363.2-136.07,8.18-3.05,11.38-7.13,11.32-16.08-.39-54.81-.2-109.63-.19-164.44ZM501.78,387.3c0,55.43.12,110.87-.14,166.3-.04,7.69,2.53,11.73,9.81,14.3,19.45,6.85,38.67,14.35,57.99,21.56q14.07,5.25,14.08-10.2c0-73.29,0-146.59,0-219.88,0-3.08,0-6.16,0-9.24.1-28.41,17.77-40.76,44.62-30.81,42.14,15.61,84.19,31.49,126.26,47.3,21.04,7.9,26.24,15.43,26.25,37.94.02,84.38.1,168.76-.13,253.15-.02,7.96,2.41,12.12,10.13,14.89,28.96,10.41,57.67,21.53,86.5,32.32,11.55,4.33,12.17,3.87,12.18-8.96.02-109.64-.09-219.27.19-328.9.03-9.84-3.11-14.65-12.55-18.17-121.18-45.08-242.19-90.6-363.25-136-11.44-4.29-11.93-3.97-11.93,8.11-.02,55.43,0,110.87,0,166.3ZM889.35,252.51c0-8.32-.51-16.67.13-24.94.73-9.44-2.76-14.35-11.93-17.64-36.21-13-72.14-26.8-108.17-40.32-85.9-32.22-171.78-64.46-257.69-96.66-9.54-3.58-9.87-3.33-9.9,6.63-.05,18.48.48,36.98-.22,55.43-.35,9.1,3.32,12.96,11.43,15.96,60.34,22.3,120.53,45.04,180.77,67.62,61.39,23.02,122.78,46.04,184.18,69.04,10.23,3.83,11.24,3.18,11.38-7.4.11-9.24.02-18.48.03-27.72ZM444.69,109.41c0-9.55.07-19.09-.02-28.63-.09-10.3-1.03-11.03-10.69-7.41-122.49,45.89-244.94,91.87-367.47,137.64-6.88,2.57-9.58,6.46-9.46,13.67.3,17.85.05,35.72.09,53.57.03,13.12.66,13.51,12.97,8.89,67.44-25.28,134.88-50.56,202.31-75.84,53.89-20.21,107.73-40.56,161.72-60.48,7.92-2.92,11.34-7.02,10.69-15.54-.66-8.57-.14-17.23-.15-25.85ZM641.75,500.75c0,35.12.16,70.23-.13,105.35-.06,7.62,2.47,11.74,9.82,14.32,20.33,7.14,40.4,15.01,60.61,22.49,9.33,3.45,10.27,2.88,10.28-6.72.06-69.93-.06-139.85.16-209.77.02-7.33-2.53-11.19-9.39-13.63-19.43-6.93-38.67-14.4-57.98-21.64-13.28-4.98-13.36-4.95-13.37,8.88-.02,33.58,0,67.15,0,100.73Z"/>
      <path class="cls-1" d="M390.69,417.74c0,22.18-.09,44.35.04,66.53.09,15.04-6.72,25.24-20.75,30.51-73.21,27.49-146.36,55.13-219.69,82.28-20.93,7.75-39.77-5.83-39.9-28.22-.26-45.27-.11-90.55-.06-135.83.02-14.17,6.59-24.12,19.93-29.14,73.48-27.65,146.91-55.41,220.52-82.7,21.04-7.8,39.59,5.69,39.84,28.2.26,22.79.06,45.58.06,68.38ZM168.53,488.46c0,10.15.16,20.31-.06,30.46-.14,6.7,2.01,9.03,8.8,6.47,49.2-18.57,98.43-37.03,147.7-55.4,5.42-2.02,7.63-5.38,7.59-11.09-.15-19.69-.18-39.38.03-59.07.08-7.18-2.11-9.51-9.32-6.78-48.89,18.49-97.84,36.84-146.83,55.07-5.79,2.15-8.18,5.62-8,11.73.29,9.53.08,19.07.07,28.61Z"/>
    </g>
  </g>
</svg>