<?xml version="1.0" encoding="utf-8"?>
<!-- Generator: Adobe Illustrator 28.2.0, SVG Export Plug-In . SVG Version: 6.00 Build 0)  -->
<svg version="1.1" id="Шар_1" xmlns="http://www.w3.org/2000/svg" xmlns:xlink="http://www.w3.org/1999/xlink" x="0px" y="0px"
	 viewBox="0 0 1920 1080" style="enable-background:new 0 0 1920 1080;" xml:space="preserve">
<style type="text/css">
	.st0{display:none;}
	.st1{display:inline;fill:#00A43C;}
	.st2{fill:#070C08;}
</style>
<g class="st0">
	<path class="st1" d="M452.4,1013.1c-6.5,0-16.6-1.1-30.3-3.3c-13.7-2.2-23.5-3.3-29.5-3.3l-114.8-0.4c-9.9,0-24.9,1.2-44.9,3.7
		c-20.1,2.5-35.2,3.7-45.3,3.7c-2.9,0-7-0.5-12.5-1.6s-9.6-1.6-12.5-1.6c-23.4,0-39.3-9.5-47.7-28.5c-5.2-12-7.8-30.5-7.8-55.5
		c0-48.7,10.8-89.5,32.4-122.3c16.7-25.3,43.6-50.5,80.9-75.8c35.2-23.2,70.2-46.2,105.1-69.1c41.1-29.9,61.7-63.9,61.7-102
		c0-9.9-8.2-19.7-24.6-29.5s-32.4-14.6-48-14.6c-27.6,0-56.8,12.3-87.7,36.9s-52,36.9-63.5,36.9c-13.8,0-25.9-3.4-36.3-10.2
		c-13-8.3-19.5-19.9-19.5-34.8c0-15.9,6.5-29.6,19.5-41c31.5-27.9,59-48.2,82.4-60.9c33.8-18.5,68.9-27.7,105.1-27.7
		c45,0,85.7,11.9,121.9,35.5c41.4,27.1,62.1,62.5,62.1,106.2c0,44.3-10.2,81.9-30.5,112.9c-15.9,24.7-41,48.8-75.4,72.3
		c-32.6,20.6-65.1,41-97.7,61.3c-49.5,32.3-76,69.1-79.7,110.5c14.3-1.8,35.4-3.9,63.3-6.2c55.5-2.9,95.2-4.3,119.1-4.3
		c22.4,0,44.5,4.8,66.4,14.5c27.1,12,40.6,27.3,40.6,46.1c0,13.5-4.8,25.4-14.5,35.5C480.1,1007.7,467.5,1013.1,452.4,1013.1z"/>
</g>
<g class="st0">
	<path class="st1" d="M348.7,842H192.8c-83.6,0-125.4-17.1-125.4-51.2c0-14.3,7.3-30.3,21.9-48c12-13.5,24.1-27.2,36.3-41
		c41.9-59.9,105.9-149,191.8-267.2c20.3-27.1,46.7-40.6,79.3-40.6c15.4,0,28.6,3.9,39.8,11.7c13.3,9.4,19.9,22.5,19.9,39.5
		l0.4,293.8c34.1,1,56.9,4.6,68.4,10.5c12.8,7,19.1,20.8,19.1,41.4c0.3,21.6-9.6,36.5-29.7,44.5c-14.1,5.5-33.3,7.7-57.8,6.6
		c0.8,37.5,0.6,78.1-0.4,121.9c-0.3,14.3-5,26.2-14.1,35.5c-9.1,9.4-21.5,14.1-37.1,14.1c-39.6,0-58.5-26-56.6-78.1V842z
		 M348.7,563.5c-25.3,39.8-64.2,98.3-116.8,175.4h116.8V563.5z"/>
</g>
<g class="st0">
	<path class="st1" d="M424.1,679.1c53.6,30,80.5,77.9,80.5,143.8c0,53.1-19.7,98.2-59,135.2c-39.3,37-87.1,55.5-143.4,55.5
		c-41.9,0-79.7-8.5-113.3-25.4c-38.8-19.8-65-47.9-78.5-84.4c-2.1-5.5-3.1-11.3-3.1-17.6c0-14.6,5.9-26.7,17.6-36.3
		c10.9-8.8,23.4-13.3,37.5-13.3c16.4,0,29.6,6.5,39.5,19.5c16.7,22.4,26.3,34.6,28.9,36.7c16.1,13,40,19.5,71.5,19.5
		c24.7,0,46.4-7.4,65-22.3c18.6-14.8,27.9-32.7,27.9-53.5c0-64.8-43.6-101.6-130.9-110.2c-38.3-3.6-57.4-19.7-57.4-48
		c0-21.6,14.8-37.4,44.5-47.3c28.1-6.2,56.1-12.6,84-19.1c17.7-5.5,31-12.6,39.8-21.5c8.9-8.9,13.4-19.4,13.7-31.6
		c1-38.8-29.3-58.2-91-58.2c-20.3,0-42.6,7.8-66.8,23.2c-24.2,15.5-40.8,23.2-49.6,23.2c-14.8,0-27.5-5.3-37.9-16
		c-10.4-10.7-15.6-22.8-15.6-36.3c0-22.1,21.9-44.1,65.6-66c39.1-19.5,70.8-29.3,95.3-29.3c59.1,0,106.6,12.8,142.6,38.3
		c39.3,28.1,59,68.2,59,120.3c0,28.6-5.5,53.1-16.6,73.2C462.8,651.5,446.2,667.4,424.1,679.1z"/>
</g>
<g>
	<path class="st2" d="M181.3-21.2H84.4c-53.5,0-96.9-43.4-96.9-96.9v-106.1c0-53.5,43.4-96.9,96.9-96.9h96.9
		c53.5,0,96.9,43.4,96.9,96.9v106.1C278.3-64.6,234.9-21.2,181.3-21.2z"/>
	<path class="st2" d="M518.2-21.2h-96.9c-53.5,0-96.9-43.4-96.9-96.9v-106.1c0-53.5,43.4-96.9,96.9-96.9h96.9
		c53.5,0,96.9,43.4,96.9,96.9v106.1C615.1-64.6,571.7-21.2,518.2-21.2z"/>
	<path class="st2" d="M858.6-21.2h-96.9c-53.5,0-96.9-43.4-96.9-96.9v-106.1c0-53.5,43.4-96.9,96.9-96.9h96.9
		c53.5,0,96.9,43.4,96.9,96.9v106.1C955.6-64.6,912.2-21.2,858.6-21.2z"/>
	<path class="st2" d="M1199.1-21.2h-96.9c-53.5,0-96.9-43.4-96.9-96.9v-106.1c0-53.5,43.4-96.9,96.9-96.9h96.9
		c53.5,0,96.9,43.4,96.9,96.9v106.1C1296-64.6,1252.6-21.2,1199.1-21.2z"/>
	<path class="st2" d="M1535.9-21.2l-96.9,0c-53.5,0-96.9-43.4-96.9-96.9v-106.1c0-53.5,43.4-96.9,96.9-96.9h96.9
		c53.5,0,96.9,43.4,96.9,96.9v106.1C1632.9-64.6,1589.5-21.2,1535.9-21.2z"/>
	<path class="st2" d="M1876.4-21.2h-96.9c-53.5,0-96.9-43.4-96.9-96.9v-106.1c0-53.5,43.4-96.9,96.9-96.9h96.9
		c53.5,0,96.9,43.4,96.9,96.9v106.1C1973.3-64.6,1929.9-21.2,1876.4-21.2z"/>
	<path class="st2" d="M2213.2-21.2h-96.9c-53.5,0-96.9-43.4-96.9-96.9v-106.1c0-53.5,43.4-96.9,96.9-96.9h96.9
		c53.5,0,96.9,43.4,96.9,96.9v106.1C2310.2-64.6,2266.8-21.2,2213.2-21.2z"/>
	<path class="st2" d="M2550.1-21.2h-96.9c-53.5,0-96.9-43.4-96.9-96.9v-106.1c0-53.5,43.4-96.9,96.9-96.9h96.9
		c53.5,0,96.9,43.4,96.9,96.9v106.1C2647.1-64.6,2603.7-21.2,2550.1-21.2z"/>
	<path class="st2" d="M2890.6-21.2h-96.9c-53.5,0-96.9-43.4-96.9-96.9v-106.1c0-53.5,43.4-96.9,96.9-96.9h96.9
		c53.5,0,96.9,43.4,96.9,96.9v106.1C2987.5-64.6,2944.1-21.2,2890.6-21.2z"/>
</g>
</svg>
