<?xml version="1.0" encoding="UTF-8"?>
<svg id="_Шар_2" data-name="Шар 2" xmlns="http://www.w3.org/2000/svg" viewBox="0 0 7000 965.28">
  <defs>
    <style>
      .cls-1 {
        fill: #4b4c4c;
      }

      .cls-1, .cls-2, .cls-3, .cls-4 {
        stroke-width: 0px;
      }

      .cls-2 {
        fill: #999;
      }

      .cls-5 {
        font-size: 50px;
      }

      .cls-5, .cls-3, .cls-6 {
        fill: #fff;
      }

      .cls-5, .cls-6 {
        font-family: ComicSansMS-Bold, 'Comic Sans MS';
        font-weight: 700;
      }

      .cls-6 {
        font-size: 70px;
      }

      .cls-4 {
        fill: #88bc99;
      }
    </style>
  </defs>
  <g id="_Шар_1-2" data-name="Шар 1">
    <g>
      <rect class="cls-1" x="12.68" y="15.65" width="6966.38" height="942.06"/>
      <path class="cls-4" d="M55.02,75.18v353.39c0,11.01,8.93,19.94,19.94,19.94h257.56c11.01,0,19.94-8.93,19.94-19.94v-42.01c0-11.01-8.93-19.94-19.94-19.94h-22.63c-11.01,0-19.94-8.93-19.94-19.94V75.18c0-11.01-8.93-19.94-19.94-19.94H74.96c-11.01,0-19.94,8.93-19.94,19.94Z"/>
      <path class="cls-4" d="M1254.68,75.18v353.39c0,11.01,8.56,19.94,19.13,19.94h247.06c10.56,0,19.13-8.93,19.13-19.94v-42.01c0-11.01-8.56-19.94-19.13-19.94h-21.71c-10.56,0-19.13-8.93-19.13-19.94V75.18c0-11.01-8.56-19.94-19.13-19.94h-187.1c-10.56,0-19.13,8.93-19.13,19.94Z"/>
      <path class="cls-4" d="M2316.67,75.18v353.39c0,11.01-7.97,19.94-17.79,19.94h-229.86c-9.83,0-17.79-8.93-17.79-19.94v-42.01c0-11.01,7.97-19.94,17.79-19.94h20.2c9.83,0,17.79-8.93,17.79-19.94V75.18c0-11.01,7.97-19.94,17.79-19.94h174.07c9.83,0,17.79,8.93,17.79,19.94Z"/>
      <path class="cls-4" d="M1231.77,75.11v353.39c0,11.01-8.93,19.94-19.94,19.94h-257.56c-11.01,0-19.94-8.93-19.94-19.94v-42.01c0-11.01,8.93-19.94,19.94-19.94h22.63c11.01,0,19.94-8.93,19.94-19.94V75.11c0-11.01,8.93-19.94,19.94-19.94h195.05c11.01,0,19.94,8.93,19.94,19.94Z"/>
      <path class="cls-4" d="M55.02,893.76v-353.39c0-11.01,8.93-19.94,19.94-19.94h257.56c11.01,0,19.94,8.93,19.94,19.94v42.01c0,11.01-8.93,19.94-19.94,19.94h-22.63c-11.01,0-19.94,8.93-19.94,19.94v271.5c0,11.01-8.93,19.94-19.94,19.94H74.96c-11.01,0-19.94-8.93-19.94-19.94Z"/>
      <path class="cls-4" d="M499.41,55.25h-166.7c-11.01,0-19.94,8.52-19.94,19.04v251.88c0,10.52,8.93,19.04,19.94,19.04h166.7c11.01,0,19.94-8.52,19.94-19.04V74.29c0-10.52-8.93-19.04-19.94-19.04Z"/>
      <path class="cls-4" d="M727.15,55.25h-166.7c-11.01,0-19.94,8.52-19.94,19.04v251.88c0,10.52,8.93,19.04,19.94,19.04h166.7c11.01,0,19.94-8.52,19.94-19.04V74.29c0-10.52-8.93-19.04-19.94-19.04Z"/>
      <path class="cls-4" d="M954.9,55.25h-166.7c-11.01,0-19.94,8.52-19.94,19.04v251.88c0,10.52,8.93,19.04,19.94,19.04h166.7c11.01,0,19.94-8.52,19.94-19.04V74.29c0-10.52-8.93-19.04-19.94-19.04Z"/>
      <path class="cls-4" d="M4540.15,75.18v353.39c0,11.01,7.97,19.94,17.8,19.94h229.98c9.83,0,17.8-8.93,17.8-19.94v-42.01c0-11.01-7.97-19.94-17.8-19.94h-20.21c-9.83,0-17.8-8.93-17.8-19.94V75.18c0-11.01-7.97-19.94-17.8-19.94h-174.16c-9.83,0-17.8,8.93-17.8,19.94Z"/>
      <path class="cls-4" d="M4955.75,55.25h-166.7c-11.01,0-19.94,8.52-19.94,19.04v251.88c0,10.52,8.93,19.04,19.94,19.04h166.7c11.01,0,19.94-8.52,19.94-19.04V74.29c0-10.52-8.93-19.04-19.94-19.04Z"/>
      <path class="cls-4" d="M5183.5,55.25h-166.7c-11.01,0-19.94,8.52-19.94,19.04v251.88c0,10.52,8.93,19.04,19.94,19.04h166.7c11.01,0,19.94-8.52,19.94-19.04V74.29c0-10.52-8.93-19.04-19.94-19.04Z"/>
      <path class="cls-4" d="M5411.24,55.25h-166.7c-11.01,0-19.94,8.52-19.94,19.04v251.88c0,10.52,8.93,19.04,19.94,19.04h166.7c11.01,0,19.94-8.52,19.94-19.04V74.29c0-10.52-8.93-19.04-19.94-19.04Z"/>
      <path class="cls-4" d="M5703.82,54.72h-222.79c-14.72,0-26.65,11.58-26.65,25.86v342.07c0,14.28,11.93,25.86,26.65,25.86h222.79c14.72,0,26.65-11.58,26.65-25.86V80.58c0-14.28-11.93-25.86-26.65-25.86Z"/>
      <path class="cls-4" d="M1665.33,55.25h-148.14c-9.79,0-17.72,8.52-17.72,19.04v251.88c0,10.52,7.93,19.04,17.72,19.04h148.14c9.79,0,17.72-8.52,17.72-19.04V74.29c0-10.52-7.93-19.04-17.72-19.04Z"/>
      <path class="cls-4" d="M1867.72,55.25h-148.14c-9.79,0-17.72,8.52-17.72,19.04v251.88c0,10.52,7.93,19.04,17.72,19.04h148.14c9.79,0,17.72-8.52,17.72-19.04V74.29c0-10.52-7.93-19.04-17.72-19.04Z"/>
      <path class="cls-4" d="M2070.1,55.25h-148.14c-9.79,0-17.72,8.52-17.72,19.04v251.88c0,10.52,7.93,19.04,17.72,19.04h148.14c9.79,0,17.72-8.52,17.72-19.04V74.29c0-10.52-7.93-19.04-17.72-19.04Z"/>
      <path class="cls-4" d="M2342.1,75.18v353.39c0,11.01,8.56,19.94,19.13,19.94h247.06c10.56,0,19.13-8.93,19.13-19.94v-42.01c0-11.01-8.56-19.94-19.13-19.94h-21.71c-10.56,0-19.13-8.93-19.13-19.94V75.18c0-11.01-8.56-19.94-19.13-19.94h-187.1c-10.56,0-19.13,8.93-19.13,19.94Z"/>
      <path class="cls-4" d="M3404.08,75.18v353.39c0,11.01-7.97,19.94-17.79,19.94h-229.86c-9.83,0-17.79-8.93-17.79-19.94v-42.01c0-11.01,7.97-19.94,17.79-19.94h20.2c9.83,0,17.79-8.93,17.79-19.94V75.18c0-11.01,7.97-19.94,17.79-19.94h174.07c9.83,0,17.79,8.93,17.79,19.94Z"/>
      <path class="cls-4" d="M2752.75,55.25h-148.14c-9.79,0-17.72,8.52-17.72,19.04v251.88c0,10.52,7.93,19.04,17.72,19.04h148.14c9.79,0,17.72-8.52,17.72-19.04V74.29c0-10.52-7.93-19.04-17.72-19.04Z"/>
      <path class="cls-4" d="M2955.13,55.25h-148.14c-9.79,0-17.72,8.52-17.72,19.04v251.88c0,10.52,7.93,19.04,17.72,19.04h148.14c9.79,0,17.72-8.52,17.72-19.04V74.29c0-10.52-7.93-19.04-17.72-19.04Z"/>
      <path class="cls-4" d="M3157.51,55.25h-148.14c-9.79,0-17.72,8.52-17.72,19.04v251.88c0,10.52,7.93,19.04,17.72,19.04h148.14c9.79,0,17.72-8.52,17.72-19.04V74.29c0-10.52-7.93-19.04-17.72-19.04Z"/>
      <path class="cls-4" d="M3426.1,75.18v353.39c0,11.01,8.56,19.94,19.13,19.94h247.06c10.56,0,19.13-8.93,19.13-19.94v-42.01c0-11.01-8.56-19.94-19.13-19.94h-21.71c-10.56,0-19.13-8.93-19.13-19.94V75.18c0-11.01-8.56-19.94-19.13-19.94h-187.1c-10.56,0-19.13,8.93-19.13,19.94Z"/>
      <path class="cls-4" d="M4488.09,75.18v353.39c0,11.01-7.97,19.94-17.79,19.94h-229.86c-9.83,0-17.79-8.93-17.79-19.94v-42.01c0-11.01,7.97-19.94,17.79-19.94h20.2c9.83,0,17.79-8.93,17.79-19.94V75.18c0-11.01,7.97-19.94,17.79-19.94h174.07c9.83,0,17.79,8.93,17.79,19.94Z"/>
      <path class="cls-4" d="M3836.75,55.25h-148.14c-9.79,0-17.72,8.52-17.72,19.04v251.88c0,10.52,7.93,19.04,17.72,19.04h148.14c9.79,0,17.72-8.52,17.72-19.04V74.29c0-10.52-7.93-19.04-17.72-19.04Z"/>
      <path class="cls-4" d="M4039.14,55.25h-148.14c-9.79,0-17.72,8.52-17.72,19.04v251.88c0,10.52,7.93,19.04,17.72,19.04h148.14c9.79,0,17.72-8.52,17.72-19.04V74.29c0-10.52-7.93-19.04-17.72-19.04Z"/>
      <path class="cls-4" d="M4241.52,55.25h-148.14c-9.79,0-17.72,8.52-17.72,19.04v251.88c0,10.52,7.93,19.04,17.72,19.04h148.14c9.79,0,17.72-8.52,17.72-19.04V74.29c0-10.52-7.93-19.04-17.72-19.04Z"/>
      <path class="cls-4" d="M4488.09,903.82v-353.39c0-11.01-7.97-19.94-17.79-19.94h-229.86c-9.83,0-17.79,8.93-17.79,19.94v42.01c0,11.01,7.97,19.94,17.79,19.94h20.2c9.83,0,17.79,8.93,17.79,19.94v271.5c0,11.01,7.97,19.94,17.79,19.94h174.07c9.83,0,17.79-8.93,17.79-19.94Z"/>
      <path class="cls-4" d="M4241.52,923.76h-148.14c-9.79,0-17.72-8.52-17.72-19.04v-251.88c0-10.52,7.93-19.04,17.72-19.04h148.14c9.79,0,17.72,8.52,17.72,19.04v251.88c0,10.52-7.93,19.04-17.72,19.04Z"/>
      <path class="cls-4" d="M499.41,623.74h-166.7c-11.01,0-19.94,8.52-19.94,19.04v251.88c0,10.52,8.93,19.04,19.94,19.04h166.7c11.01,0,19.94-8.52,19.94-19.04v-251.88c0-10.52-8.93-19.04-19.94-19.04Z"/>
      <path class="cls-4" d="M727.15,623.74h-166.7c-11.01,0-19.94,8.52-19.94,19.04v251.88c0,10.52,8.93,19.04,19.94,19.04h166.7c11.01,0,19.94-8.52,19.94-19.04v-251.88c0-10.52-8.93-19.04-19.94-19.04Z"/>
      <path class="cls-4" d="M2094.84,623.74h-223.2c-14.74,0-26.69,8.52-26.69,19.04v251.88c0,10.52,11.95,19.04,26.69,19.04h223.2c14.74,0,26.69-8.52,26.69-19.04v-251.88c0-10.52-11.95-19.04-26.69-19.04Z"/>
      <path class="cls-4" d="M2322.13,623.74h-162.97c-10.76,0-19.49,8.52-19.49,19.04v251.88c0,10.52,8.73,19.04,19.49,19.04h162.97c10.76,0,19.49-8.52,19.49-19.04v-251.88c0-10.52-8.73-19.04-19.49-19.04Z"/>
      <path class="cls-4" d="M2633.12,623.74h194.13c12.82,0,23.22,8.52,23.22,19.04v251.88c0,10.52-10.39,19.04-23.22,19.04h-194.13c-12.82,0-23.22-8.52-23.22-19.04v-251.88c0-10.52,10.39-19.04,23.22-19.04Z"/>
      <path class="cls-4" d="M2382.63,623.74h187.72c12.4,0,22.45,8.52,22.45,19.04v251.88c0,10.52-10.05,19.04-22.45,19.04h-187.72c-12.4,0-22.45-8.52-22.45-19.04v-251.88c0-10.52,10.05-19.04,22.45-19.04Z"/>
      <path class="cls-2" d="M1162.22,623.74h-166.7c-11.01,0-19.94,8.52-19.94,19.04v251.88c0,10.52,8.93,19.04,19.94,19.04h166.7c11.01,0,19.94-8.52,19.94-19.04v-251.88c0-10.52-8.93-19.04-19.94-19.04Z"/>
      <path class="cls-2" d="M1474.38,623.74h-102.08c-6.74,0-12.21,8.52-12.21,19.04v251.88c0,10.52,5.47,19.04,12.21,19.04h102.08c6.74,0,12.21-8.52,12.21-19.04v-251.88c0-10.52-5.47-19.04-12.21-19.04Z"/>
      <path class="cls-2" d="M1644.92,623.74h-126c-8.32,0-15.07,8.52-15.07,19.04v251.88c0,10.52,6.75,19.04,15.07,19.04h126c8.32,0,15.07-8.52,15.07-19.04v-251.88c0-10.52-6.75-19.04-15.07-19.04Z"/>
      <path class="cls-2" d="M1811.02,623.74h-117.8c-7.78,0-14.09,8.52-14.09,19.04v251.88c0,10.52,6.31,19.04,14.09,19.04h117.8c7.78,0,14.09-8.52,14.09-19.04v-251.88c0-10.52-6.31-19.04-14.09-19.04Z"/>
      <path class="cls-2" d="M3217.54,623.74h102.08c6.74,0,12.21,8.52,12.21,19.04v251.88c0,10.52-5.47,19.04-12.21,19.04h-102.08c-6.74,0-12.21-8.52-12.21-19.04v-251.88c0-10.52,5.47-19.04,12.21-19.04Z"/>
      <path class="cls-2" d="M3047,623.74h126c8.32,0,15.07,8.52,15.07,19.04v251.88c0,10.52-6.75,19.04-15.07,19.04h-126c-8.32,0-15.07-8.52-15.07-19.04v-251.88c0-10.52,6.75-19.04,15.07-19.04Z"/>
      <path class="cls-2" d="M2880.9,623.74h117.8c7.78,0,14.09,8.52,14.09,19.04v251.88c0,10.52-6.31,19.04-14.09,19.04h-117.8c-7.78,0-14.09-8.52-14.09-19.04v-251.88c0-10.52,6.31-19.04,14.09-19.04Z"/>
      <path class="cls-2" d="M935.4,623.74h-149.28c-9.86,0-17.85,8.52-17.85,19.04v251.88c0,10.52,7.99,19.04,17.85,19.04h149.28c9.86,0,17.85-8.52,17.85-19.04v-251.88c0-10.52-7.99-19.04-17.85-19.04Z"/>
      <path class="cls-2" d="M6233.88,633.8h-166.7c-11.01,0-19.94,8.52-19.94,19.04v251.88c0,10.52,8.93,19.04,19.94,19.04h166.7c11.01,0,19.94-8.52,19.94-19.04v-251.88c0-10.52-8.93-19.04-19.94-19.04Z"/>
      <path class="cls-2" d="M6007.06,633.8h-149.28c-9.86,0-17.85,8.52-17.85,19.04v251.88c0,10.52,7.99,19.04,17.85,19.04h149.28c9.86,0,17.85-8.52,17.85-19.04v-251.88c0-10.52-7.99-19.04-17.85-19.04Z"/>
      <path class="cls-4" d="M6942.14,75.11v353.39c0,11.01-8.93,19.94-19.94,19.94h-257.56c-11.01,0-19.94-8.93-19.94-19.94v-42.01c0-11.01,8.93-19.94,19.94-19.94h22.63c11.01,0,19.94-8.93,19.94-19.94V75.11c0-11.01,8.93-19.94,19.94-19.94h195.05c11.01,0,19.94,8.93,19.94,19.94Z"/>
      <path class="cls-4" d="M5750.58,75.11v353.39c0,11.01,8.93,19.94,19.94,19.94h257.56c11.01,0,19.94-8.93,19.94-19.94v-42.01c0-11.01-8.93-19.94-19.94-19.94h-22.63c-11.01,0-19.94-8.93-19.94-19.94V75.11c0-11.01-8.93-19.94-19.94-19.94h-195.05c-11.01,0-19.94,8.93-19.94,19.94Z"/>
      <path class="cls-4" d="M6942.14,903.82v-353.39c0-11.01-8.93-19.94-19.94-19.94h-257.56c-11.01,0-19.94,8.93-19.94,19.94v42.01c0,11.01,8.93,19.94,19.94,19.94h22.63c11.01,0,19.94,8.93,19.94,19.94v271.5c0,11.01,8.93,19.94,19.94,19.94h195.05c11.01,0,19.94-8.93,19.94-19.94Z"/>
      <path class="cls-4" d="M6437.52,55.17h-166.7c-11.01,0-19.94,8.52-19.94,19.04v251.88c0,10.52,8.93,19.04,19.94,19.04h166.7c11.01,0,19.94-8.52,19.94-19.04V74.21c0-10.52-8.93-19.04-19.94-19.04Z"/>
      <path class="cls-4" d="M6210.66,55.17h-184.89c-12.21,0-22.11,8.52-22.11,19.04v251.88c0,10.52,9.9,19.04,22.11,19.04h184.89c12.21,0,22.11-8.52,22.11-19.04V74.21c0-10.52-9.9-19.04-22.11-19.04Z"/>
      <path class="cls-4" d="M6665.26,55.17h-166.7c-11.01,0-19.94,8.52-19.94,19.04v251.88c0,10.52,8.93,19.04,19.94,19.04h166.7c11.01,0,19.94-8.52,19.94-19.04V74.21c0-10.52-8.93-19.04-19.94-19.04Z"/>
      <path class="cls-4" d="M6665.6,633.8h-166.7c-11.01,0-19.94,8.52-19.94,19.04v251.88c0,10.52,8.93,19.04,19.94,19.04h166.7c11.01,0,19.94-8.52,19.94-19.04v-251.88c0-10.52-8.93-19.04-19.94-19.04Z"/>
      <path class="cls-4" d="M6438.02,633.8h-149.28c-9.86,0-17.85,8.52-17.85,19.04v251.88c0,10.52,7.99,19.04,17.85,19.04h149.28c9.86,0,17.85-8.52,17.85-19.04v-251.88c0-10.52-7.99-19.04-17.85-19.04Z"/>
      <path class="cls-2" d="M5298.58,633.8h155.76c10.29,0,18.63,8.52,18.63,19.04v251.88c0,10.52-8.34,19.04-18.63,19.04h-155.76c-10.29,0-18.63-8.52-18.63-19.04v-251.88c0-10.52,8.34-19.04,18.63-19.04Z"/>
      <path class="cls-2" d="M5508.47,633.8h139.49c9.21,0,16.68,8.52,16.68,19.04v251.88c0,10.52-7.47,19.04-16.68,19.04h-139.49c-9.21,0-16.68-8.52-16.68-19.04v-251.88c0-10.52,7.47-19.04,16.68-19.04Z"/>
      <path class="cls-4" d="M4540.15,903.82v-353.39c0-11.01,7.97-19.94,17.8-19.94h229.98c9.83,0,17.8,8.93,17.8,19.94v42.01c0,11.01-7.97,19.94-17.8,19.94h-20.21c-9.83,0-17.8,8.93-17.8,19.94v271.5c0,11.01-7.97,19.94-17.8,19.94h-174.16c-9.83,0-17.8-8.93-17.8-19.94Z"/>
      <path class="cls-4" d="M4797.08,633.8h243.5c16.08,0,29.12,8.52,29.12,19.04v251.88c0,10.52-13.04,19.04-29.12,19.04h-243.5c-16.08,0-29.12-8.52-29.12-19.04v-251.88c0-10.52,13.04-19.04,29.12-19.04Z"/>
      <path class="cls-2" d="M5105.79,633.8h139.49c9.21,0,16.68,8.52,16.68,19.04v251.88c0,10.52-7.47,19.04-16.68,19.04h-139.49c-9.21,0-16.68-8.52-16.68-19.04v-251.88c0-10.52,7.47-19.04,16.68-19.04Z"/>
      <path class="cls-2" d="M3705.45,633.8h148.98c9.84,0,17.82,8.52,17.82,19.04v251.88c0,10.52-7.98,19.04-17.82,19.04h-148.98c-9.84,0-17.82-8.52-17.82-19.04v-251.88c0-10.52,7.98-19.04,17.82-19.04Z"/>
      <path class="cls-2" d="M3906.21,633.8h133.41c8.81,0,15.96,8.52,15.96,19.04v251.88c0,10.52-7.14,19.04-15.96,19.04h-133.41c-8.81,0-15.96-8.52-15.96-19.04v-251.88c0-10.52,7.14-19.04,15.96-19.04Z"/>
      <path class="cls-2" d="M3521.06,633.8h133.41c8.81,0,15.96,8.52,15.96,19.04v251.88c0,10.52-7.14,19.04-15.96,19.04h-133.41c-8.81,0-15.96-8.52-15.96-19.04v-251.88c0-10.52,7.14-19.04,15.96-19.04Z"/>
      <text class="cls-5" transform="translate(72.14 115)"><tspan x="0" y="0">№205</tspan></text>
      <text class="cls-5" transform="translate(328.48 115)"><tspan x="0" y="0">№206</tspan></text>
      <text class="cls-5" transform="translate(72.14 883)"><tspan x="0" y="0">№204</tspan></text>
      <text class="cls-5" transform="translate(328.48 883)"><tspan x="0" y="0">№203</tspan></text>
      <text class="cls-5" transform="translate(554.19 883)"><tspan x="0" y="0">№202</tspan></text>
      <text class="cls-5" transform="translate(1859.38 883)"><tspan x="0" y="0">№217</tspan></text>
      <text class="cls-5" transform="translate(2155.04 883)"><tspan x="0" y="0">№216</tspan></text>
      <text class="cls-5" transform="translate(2374.1 883)"><tspan x="0" y="0">№220</tspan></text>
      <text class="cls-5" transform="translate(2622.27 883)"><tspan x="0" y="0">№219</tspan></text>
      <text class="cls-5" transform="translate(556.23 115)"><tspan x="0" y="0">№207</tspan></text>
      <text class="cls-5" transform="translate(783.97 115)"><tspan x="0" y="0">№208</tspan></text>
      <text class="cls-5" transform="translate(1016.06 115)"><tspan x="0" y="0">№209</tspan></text>
      <text class="cls-5" transform="translate(6284.06 901.38)"><tspan x="0" y="0">№251</tspan></text>
      <text class="cls-5" transform="translate(6494.7 901.38)"><tspan x="0" y="0">№250</tspan></text>
      <text class="cls-5" transform="translate(6723.72 901.38)"><tspan x="0" y="0">№249</tspan></text>
      <text class="cls-5" transform="translate(6267.46 115)"><tspan x="0" y="0">№246</tspan></text>
      <text class="cls-5" transform="translate(6493.51 115)"><tspan x="0" y="0">№247</tspan></text>
      <text class="cls-5" transform="translate(6720.91 115)"><tspan x="0" y="0">№248</tspan></text>
      <text class="cls-6" transform="translate(412.94 521.89)"><tspan x="0" y="0">Секція №201</tspan></text>
      <text class="cls-6" transform="translate(1571.07 521.89)"><tspan x="0" y="0">Секція №210</tspan></text>
      <text class="cls-6" transform="translate(2651.58 521.89)"><tspan x="0" y="0">Секція №218</tspan></text>
      <text class="cls-6" transform="translate(3736.18 521.89)"><tspan x="0" y="0">Секція №226</tspan></text>
      <text class="cls-6" transform="translate(4904.52 521.89)"><tspan x="0" y="0">Секція №235</tspan></text>
      <text class="cls-6" transform="translate(6133.62 509.64)"><tspan x="0" y="0">Секція №243</tspan></text>
      <text class="cls-5" transform="translate(127.49 300.29)"><tspan x="0" y="0">3/0</tspan></text>
      <text class="cls-5" transform="translate(374.64 237.99)"><tspan x="0" y="0">2/0</tspan></text>
      <text class="cls-5" transform="translate(374.64 764.97)"><tspan x="0" y="0">2/0</tspan></text>
      <text class="cls-5" transform="translate(600.85 764.97)"><tspan x="0" y="0">2/0</tspan></text>
      <text class="cls-5" transform="translate(1946.38 764.97)"><tspan x="0" y="0">2/0</tspan></text>
      <text class="cls-5" transform="translate(2203.23 764.97)"><tspan x="0" y="0">2/0</tspan></text>
      <text class="cls-5" transform="translate(2435.32 764.97)"><tspan x="0" y="0">2/0</tspan></text>
      <text class="cls-5" transform="translate(2690.38 764.97)"><tspan x="0" y="0">2/0</tspan></text>
      <text class="cls-5" transform="translate(4125.79 764.97)"><tspan x="0" y="0">2/0</tspan></text>
      <text class="cls-5" transform="translate(4881.02 764.97)"><tspan x="0" y="0">2/0</tspan></text>
      <text class="cls-5" transform="translate(601.36 237.99)"><tspan x="0" y="0">2/0</tspan></text>
      <text class="cls-5" transform="translate(829.1 237.99)"><tspan x="0" y="0">2/0</tspan></text>
      <text class="cls-5" transform="translate(1549.62 237.99)"><tspan x="0" y="0">2/0</tspan></text>
      <text class="cls-5" transform="translate(1751.83 237.99)"><tspan x="0" y="0">2/0</tspan></text>
      <text class="cls-5" transform="translate(1956.08 237.99)"><tspan x="0" y="0">2/0</tspan></text>
      <text class="cls-5" transform="translate(2634.21 237.99)"><tspan x="0" y="0">2/0</tspan></text>
      <text class="cls-5" transform="translate(2836.42 237.99)"><tspan x="0" y="0">2/0</tspan></text>
      <text class="cls-5" transform="translate(3040.68 237.99)"><tspan x="0" y="0">2/0</tspan></text>
      <text class="cls-5" transform="translate(3717.28 237.99)"><tspan x="0" y="0">2/0</tspan></text>
      <text class="cls-5" transform="translate(3919.49 237.99)"><tspan x="0" y="0">2/0</tspan></text>
      <text class="cls-5" transform="translate(4123.74 237.99)"><tspan x="0" y="0">2/0</tspan></text>
      <text class="cls-5" transform="translate(4829.45 237.99)"><tspan x="0" y="0">2/0</tspan></text>
      <text class="cls-5" transform="translate(5057.19 237.99)"><tspan x="0" y="0">2/0</tspan></text>
      <text class="cls-5" transform="translate(5285.96 237.99)"><tspan x="0" y="0">2/0</tspan></text>
      <text class="cls-5" transform="translate(1070.13 285.99)"><tspan x="0" y="0">3/0</tspan></text>
      <text class="cls-5" transform="translate(1274.95 115)"><tspan x="0" y="0">№211</tspan></text>
      <text class="cls-5" transform="translate(1509.34 115)"><tspan x="0" y="0">№212</tspan></text>
      <text class="cls-5" transform="translate(1713.85 115)"><tspan x="0" y="0">№213</tspan></text>
      <text class="cls-5" transform="translate(1917.59 115)"><tspan x="0" y="0">№214</tspan></text>
      <text class="cls-5" transform="translate(1329.02 285.99)"><tspan x="0" y="0">3/0</tspan></text>
      <text class="cls-5" transform="translate(2126.7 115)"><tspan x="0" y="0">№215</tspan></text>
      <text class="cls-5" transform="translate(2180.76 285.99)"><tspan x="0" y="0">3/0</tspan></text>
      <text class="cls-5" transform="translate(2359.55 115)"><tspan x="0" y="0">№221</tspan></text>
      <text class="cls-5" transform="translate(2601.59 115)"><tspan x="0" y="0">№222</tspan></text>
      <text class="cls-5" transform="translate(2800.74 115)"><tspan x="0" y="0">№223</tspan></text>
      <text class="cls-5" transform="translate(3005.25 115)"><tspan x="0" y="0">№224</tspan></text>
      <text class="cls-5" transform="translate(3685.17 115)"><tspan x="0" y="0">№228</tspan></text>
      <text class="cls-5" transform="translate(3884.31 115)"><tspan x="0" y="0">№229</tspan></text>
      <text class="cls-5" transform="translate(4088.82 115)"><tspan x="0" y="0">№230</tspan></text>
      <text class="cls-5" transform="translate(4788.14 115)"><tspan x="0" y="0">№239</tspan></text>
      <text class="cls-5" transform="translate(5014.1 115)"><tspan x="0" y="0">№240</tspan></text>
      <text class="cls-5" transform="translate(5240.06 115)"><tspan x="0" y="0">№241</tspan></text>
      <text class="cls-5" transform="translate(2413.62 285.99)"><tspan x="0" y="0">3/0</tspan></text>
      <text class="cls-5" transform="translate(3206.7 115)"><tspan x="0" y="0">№225</tspan></text>
      <text class="cls-5" transform="translate(3260.76 285.99)"><tspan x="0" y="0">3/0</tspan></text>
      <text class="cls-5" transform="translate(3439.55 115)"><tspan x="0" y="0">№227</tspan></text>
      <text class="cls-5" transform="translate(3493.62 285.99)"><tspan x="0" y="0">3/0</tspan></text>
      <text class="cls-5" transform="translate(4292.83 115)"><tspan x="0" y="0">№231</tspan></text>
      <text class="cls-5" transform="translate(4346.89 285.99)"><tspan x="0" y="0">3/0</tspan></text>
      <text class="cls-5" transform="translate(4554.78 115)"><tspan x="0" y="0">№238</tspan></text>
      <text class="cls-5" transform="translate(4601.7 285.99)"><tspan x="0" y="0">3/0</tspan></text>
      <text class="cls-5" transform="translate(4292.83 895.26)"><tspan x="0" y="0">№232</tspan></text>
      <text class="cls-5" transform="translate(4086.02 895.26)"><tspan x="0" y="0">№233</tspan></text>
      <text class="cls-5" transform="translate(4346.89 729.23)"><tspan x="0" y="0">3/0</tspan></text>
      <text class="cls-5" transform="translate(4554.78 895.26)"><tspan x="0" y="0">№237</tspan></text>
      <text class="cls-5" transform="translate(4781 895.26)"><tspan x="0" y="0">№236</tspan></text>
      <text class="cls-5" transform="translate(4601.7 729.23)"><tspan x="0" y="0">3/0</tspan></text>
      <text class="cls-5" transform="translate(5473.93 115)"><tspan x="0" y="0">№242</tspan></text>
      <text class="cls-5" transform="translate(5552.51 285.99)"><tspan x="0" y="0">3/0</tspan></text>
      <text class="cls-5" transform="translate(5765 115)"><tspan x="0" y="0">№244</tspan></text>
      <text class="cls-5" transform="translate(6018.53 115)"><tspan x="0" y="0">№245</tspan></text>
      <text class="cls-5" transform="translate(5819.06 285.99)"><tspan x="0" y="0">3/0</tspan></text>
      <text class="cls-5" transform="translate(127.49 721.06)"><tspan x="0" y="0">3/0</tspan></text>
      <text class="cls-5" transform="translate(6786.69 290.59)"><tspan x="0" y="0">3/0</tspan></text>
      <text class="cls-5" transform="translate(6540.57 228.29)"><tspan x="0" y="0">2/0</tspan></text>
      <text class="cls-5" transform="translate(6312.82 228.29)"><tspan x="0" y="0">2/0</tspan></text>
      <text class="cls-5" transform="translate(6075.89 228.29)"><tspan x="0" y="0">2/0</tspan></text>
      <text class="cls-5" transform="translate(6537.5 775.7)"><tspan x="0" y="0">2/0</tspan></text>
      <text class="cls-5" transform="translate(6320.99 775.7)"><tspan x="0" y="0">2/0</tspan></text>
      <text class="cls-5" transform="translate(6786.69 711.36)"><tspan x="0" y="0">3/0</tspan></text>
      <path class="cls-3" d="M6974.39,0H25.61C11.47,0,0,11.47,0,25.61v914.05c0,14.15,11.47,25.61,25.61,25.61h6948.78c14.15,0,25.61-11.47,25.61-25.61V25.61c0-14.15-11.47-25.61-25.61-25.61ZM3475.45,623.74h-5.76c-5.29,0-9.57,4.29-9.57,9.57v306.96h-88.79v-306.96c0-5.29-4.29-9.57-9.57-9.57h-5.76c-5.29,0-9.57,4.29-9.57,9.57v306.96h-155.86v.23h-1849.14v-306.63c0-5.56-4.51-10.06-10.06-10.06h-4.89c-5.56,0-10.06,4.51-10.06,10.06v306.63h-66.78v-.23h-20.93v-306.96c0-5.29-4.29-9.57-9.57-9.57h-5.76c-5.29,0-9.57,4.29-9.57,9.57v306.96H50.61c-14.15,0-25.61-11.47-25.61-25.61v-416.83h315.41c5.29,0,9.57-4.29,9.57-9.57v-5.76c0-5.29-4.29-9.57-9.57-9.57H25V50.61c0-14.15,11.47-25.61,25.61-25.61h4452.26v451.46h-254.43c-5.85,0-10.6,4.74-10.6,10.6v3.83c0,5.85,4.74,10.6,10.6,10.6h254.43v438.8h-1017.85v-306.96c0-5.29-4.29-9.57-9.57-9.57ZM6975,330.91v142.01h-303.47c-5.29,0-9.57,4.29-9.57,9.57v5.76c0,5.29,4.29,9.57,9.57,9.57h303.47v416.83c0,14.15-11.47,25.61-25.61,25.61h-1127.17v-306.96c0-5.29-4.29-9.57-9.57-9.57h-5.76c-5.29,0-9.57,4.29-9.57,9.57v306.96h-88.79v-306.96c0-5.29-4.29-9.57-9.57-9.57h-5.76c-5.29,0-9.57,4.29-9.57,9.57v306.96h-1155.71v-438.8h254.43c5.85,0,10.6-4.74,10.6-10.6v-3.83c0-5.85-4.74-10.6-10.6-10.6h-254.43V25h2421.5c14.15,0,25.61,11.47,25.61,25.61v280.3Z"/>
    </g>
  </g>
</svg>