<?xml version="1.0" encoding="UTF-8"?>
<svg id="_Шар_2" data-name="Шар 2" xmlns="http://www.w3.org/2000/svg" viewBox="0 0 815.26 934.73">
  <defs>
    <style>
      .cls-1 {
        fill: #efc825;
        stroke-width: 0px;
      }
    </style>
  </defs>
  <g id="_Шар_1-2" data-name="Шар 1">
    <g>
      <path class="cls-1" d="M243.5,0c-17.47,7.18-29.34,18.89-32.22,38.46-3.51,23.86,15.84,48.17,39.92,49.58,4.24.25,8.51.13,12.76.13,132.81,0,265.62-.02,398.43.03,28.74.01,49.8,13.34,59.25,37.16,3.54,8.92,4.28,18.37,4.28,27.76.1,209.09.08,418.19.07,627.28,0,27.56-10.01,49.18-36.71,60.48-9.38,3.97-19.39,4.65-29.49,4.65-134.03-.03-268.05-.04-402.08,0-25.54,0-42.76,14.79-46.48,39.61-3.49,23.31,15.97,47.47,39.59,49.04,3.33.22,6.68.14,10.03.14,134.63,0,269.28-.97,403.9.4,71.06.73,139.36-50.42,149.4-129.73.87-6.9.72-13.95.72-20.93.03-211.53-.59-423.05.38-634.57.32-68.54-46.64-133.93-119.75-148.03-1.77-.34-3.48-.97-5.22-1.46-148.93,0-297.86,0-446.78,0Z"/>
      <path class="cls-1" d="M152.98,422.44c4.05-4.25,6.29-6.68,8.62-9.02,40.59-40.62,81.32-81.1,121.75-121.87,23.77-23.97,17.36-61.16-12.66-74.03-16.53-7.09-32.09-4.3-46.17,6.71-2.62,2.05-4.92,4.52-7.28,6.88-66.61,66.59-133.21,133.18-199.8,199.8-23.22,23.23-23.27,48.6-.14,71.75,67.23,67.26,134.45,134.53,201.75,201.71,18.54,18.5,45.41,20.14,63.19,4.22,20.31-18.19,20.75-46.71.64-66.93-40.49-40.71-81.15-81.27-121.84-121.78-2.26-2.25-5.43-3.6-9.42-6.18,7.05-3.22,10.71-2.38,14.24-2.38,109.68-.06,219.36-.03,329.04-.09,17.61,0,31.09-7.71,39.38-23.32,8.24-15.53,7.41-31.18-2.16-45.83-9.01-13.79-22.34-19.7-38.79-19.68-109.08.1-218.15.05-327.23.05-3.58,0-7.15,0-13.13,0Z"/>
    </g>
  </g>
</svg>