<?xml version="1.0" encoding="UTF-8"?>
<svg id="_Шар_2" data-name="Шар 2" xmlns="http://www.w3.org/2000/svg" viewBox="0 0 188.12 188.12">
  <defs>
    <style>
      .cls-1 {
        fill: #00a43c;
        stroke-width: 0px;
      }
    </style>
  </defs>
  <g id="_Шар_1-2" data-name="Шар 1">
    <path class="cls-1" d="M90.63,0h6.6c4.25.99,7.61,3.38,10.67,6.44,24.48,24.56,49.02,49.08,73.53,73.61.95.95,1.92,1.9,2.74,2.96,4.23,5.52,5.11,11.61,2.36,17.96-2.6,6.01-7.35,9.58-13.89,10.32-5.2.59-4.6-.12-4.63,5.1-.12,17.43.31,34.87-.22,52.3-.33,10.93-9.25,19.35-20.22,19.39-9.6.03-19.2.01-28.8,0-4.99,0-6.99-2-6.99-7.01,0-14.07,0-28.14,0-42.22,0-5.85-3.66-9.55-9.46-9.59-5.44-.04-10.89-.03-16.33,0-6.43.02-9.91,3.56-9.91,10.05,0,14.13,0,28.27-.01,42.4,0,4.14-2.24,6.36-6.35,6.37-9.85.01-19.69.05-29.54-.01-7.43-.05-13.09-3.42-17.16-9.58-2.61-3.95-3.19-8.4-3.19-12.99,0-16.7,0-33.41,0-50.11,0-.67-.02-1.35-.01-2.02.02-1.21-.56-1.75-1.77-1.84-1.88-.14-3.78-.19-5.62-.77-6.75-2.1-10.68-6.79-12.43-13.5v-6.61c1.01-4.32,3.45-7.71,6.56-10.81C30.98,55.52,55.36,31.12,79.7,6.69c3.14-3.15,6.54-5.68,10.93-6.69Z"/>
  </g>
</svg>