<?xml version="1.0" encoding="UTF-8"?>
<svg id="_Шар_2" data-name="Шар 2" xmlns="http://www.w3.org/2000/svg" viewBox="0 0 150.29 174.95">
  <defs>
    <style>
      .cls-1 {
        fill: #00a43c;
        stroke-width: 0px;
      }
    </style>
  </defs>
  <g id="_Шар_1-2" data-name="Шар 1">
    <g>
      <path class="cls-1" d="M75.15,143.8c-20.2,0-40.4.02-60.6-.01-6.84-.01-12.55-4.47-14.11-10.97-.99-4.13-.32-8.02,2.26-11.45,1.83-2.44,3.78-4.79,5.74-7.14,6.28-7.55,8.83-16.47,9.69-26.04.6-6.73.55-13.49.83-20.23.53-12.45,3.59-24.13,11.75-33.97,5.12-6.17,11.52-10.64,18.81-13.85,1.52-.67,2.45-1.55,3.07-3.18,2.51-6.62,6.75-11.85,13.27-14.88,9.99-4.63,21.37-1.35,28.12,7.96,1.54,2.12,2.87,4.37,3.67,6.84.56,1.74,1.61,2.63,3.19,3.32,9.06,4,16.62,9.85,21.98,18.3,4.86,7.68,7.26,16.17,8.17,25.14.69,6.79.27,13.63.79,20.42.66,8.59,1.77,17.06,6.27,24.68,2.42,4.11,5.55,7.68,8.57,11.33,3.84,4.65,4.79,9.78,2.29,15.25-2.56,5.61-7.2,8.42-13.35,8.44-20.14.05-40.27.02-60.41.02Z"/>
      <path class="cls-1" d="M75.13,156c8.31,0,16.61,0,24.92,0,2.91,0,3.62,1.13,2.1,3.56-6.24,10.02-15.24,15.42-27.11,15.38-11.78-.04-20.72-5.42-26.92-15.38-1.52-2.44-.82-3.56,2.1-3.56,8.31-.01,16.61,0,24.92,0Z"/>
    </g>
  </g>
</svg>