<?xml version="1.0" encoding="utf-8"?>
<!-- Generator: Adobe Illustrator 28.2.0, SVG Export Plug-In . SVG Version: 6.00 Build 0)  -->
<svg version="1.1" id="Шар_1" xmlns="http://www.w3.org/2000/svg" xmlns:xlink="http://www.w3.org/1999/xlink" x="0px" y="0px"
	 viewBox="0 0 1080 1080" style="enable-background:new 0 0 1080 1080;" xml:space="preserve">
<style type="text/css">
	.st0{fill:#EFC825;}
</style>
<g>
	<path class="st0" d="M339.6,430.6c5.7,5.1,11.8,9.8,17,15.5c21.7,23.6,20.5,55.5-2.7,78.6c-23.1,23-55.7,24.6-78.6,2.3
		C235.4,488,196,448.5,157,408.6c-20.3-20.8-20.1-55.8,0.2-76.6c39-39.9,78.5-79.4,118.4-118.4c21.6-21,57.5-19.6,78.6,1.5
		c22,22,23.4,56.7,2.7,79.3c-5.3,5.8-11.6,10.7-17.9,16.5c4.7,3.2,8,2.2,11.1,2.2c99.8,0.1,199.7,1.4,299.5-0.3
		c134.6-2.2,263.3,95.5,285.4,243.2c18.7,125-47.4,244.3-158.9,297.8c-38.1,18.3-78.2,27.9-120.6,27.8c-39.3-0.2-78.6,0.1-117.8-0.1
		c-21.2-0.1-38.6-8.4-49.4-27.3c-11.5-20.1-11.4-40.7,0.4-60.6c10.5-17.7,27-26.2,47.3-26.4c38.1-0.4,76.2,0.1,114.3-0.2
		c25.3-0.2,50.1-4,73.2-15c59.6-28.5,92.8-75.7,98.4-141.7c7.4-88.4-53.4-166.5-142.6-180c-8.7-1.3-17.6-2.1-26.5-2.1
		c-101.6-0.1-203.2-0.1-304.8-0.1c-2.3,0-4.6,0.2-6.8,0.3C340.6,428.9,340.1,429.8,339.6,430.6z"/>
</g>
</svg>
