<?xml version="1.0" encoding="utf-8"?>
<!-- Generator: Adobe Illustrator 28.2.0, SVG Export Plug-In . SVG Version: 6.00 Build 0)  -->
<svg version="1.1" id="Шар_1" xmlns="http://www.w3.org/2000/svg" xmlns:xlink="http://www.w3.org/1999/xlink" x="0px" y="0px"
	 viewBox="0 0 1080 1080" style="enable-background:new 0 0 1080 1080;" xml:space="preserve">
<style type="text/css">
	.st0{fill:#00A43C;}
</style>
<path class="st0" d="M797.5,820.7c-64.6-56.8-129.6-113.4-194.4-170.1c-35.4-31-70.7-62-106-93c-7.4-6.5-11.3-12.1-11.8-17.5
	c0.4-5.5,4.3-11,11.8-17.5c35.3-31,70.6-62.1,106-93c64.8-56.7,129.7-113.3,194.4-170.1c36.1-31.8,39.7-77.5,9.5-111.3
	c-14.3-16-33.6-24.9-55.6-30c-11.2,0-22.5,0-33.7,0c-13.2,2.5-24.8,7.2-35.3,13.5c-0.2,0.1-0.5,0.3-0.7,0.4
	c-8,4.8-15.4,10.5-22.4,16.8c-24.8,22.4-50.3,44.3-75.4,66.3c-100.7,88.3-201.4,176.7-302.3,265c-13.2,11.5-22.9,24.8-26.6,40.8
	c-0.5,1.9-0.8,3.8-1.2,5.7c-0.8,4.4-1.2,8.8-1.2,13.4c0,4.6,0.3,9,1.2,13.4c0.3,1.9,0.7,3.8,1.2,5.7c3.8,16,13.5,29.2,26.6,40.8
	c100.8,88.3,201.5,176.7,302.3,265c25.2,22.1,50.7,43.9,75.4,66.3c7,6.4,14.5,12,22.4,16.8c0.2,0.1,0.5,0.3,0.7,0.4
	c10.6,6.3,22.2,11,35.3,13.5c11.2,0,22.5,0,33.7,0c21.9-5.1,41.2-14,55.6-30C837.3,898.2,833.7,852.5,797.5,820.7z"/>
</svg>
