<?xml version="1.0" encoding="utf-8"?>
<!-- Generator: Adobe Illustrator 28.2.0, SVG Export Plug-In . SVG Version: 6.00 Build 0)  -->
<svg version="1.1" id="Шар_1" xmlns="http://www.w3.org/2000/svg" xmlns:xlink="http://www.w3.org/1999/xlink" x="0px" y="0px"
	 viewBox="0 0 1080 1080" style="enable-background:new 0 0 1080 1080;" xml:space="preserve">
<style type="text/css">
	.st0{fill:#00A43C;}
</style>
<g>
	<path class="st0" d="M539.6,959.8c-133.9,0-267.9,0-401.8,0c-28.7,0-41.1-15.5-41.1-51.2c0-118.3,0-236.7,0-355
		c0-21.2,3.1-22.4-16.1-16.2c-3.4,1.1-6.9,2.2-10.4,2.8c-21,3.4-36.7-10-40.7-34.7c-3.9-23.6,6.2-43.5,26.8-50
		c48.3-15.4,96.8-30,145.3-45c29.5-9.1,59-18.5,88.7-27.1c7.9-2.3,11.1-6.7,10.8-17c-0.5-24-0.6-48,0-72c0.3-11.6-3-13.5-11.2-10.4
		c-6.4,2.4-13,4.3-19.7,5.1c-19.4,2.4-33.4-11-37.4-34.7c-3.8-22.8,4.8-42.4,23.4-48.7c32.4-11,65.1-20.7,97.8-30.8
		c55.6-17.2,111.3-34.1,166.9-51.6c12.7-4,24.9-4,37.7-0.1c84.1,26.2,168.3,52,252.4,77.8c17.2,5.3,32.9,12.2,36.1,37.7
		c3.7,28.9-14.2,53.6-37.8,50.3c-20.4-2.9-40-11.2-59.9-17.3c-66.3-20.2-132.6-40.7-198.9-61.3c-7.5-2.3-14.4-2.2-21.9,0.1
		c-48.7,15.2-97.5,30.4-146.4,44.9c-9.5,2.8-12.1,8.1-12.1,19.8c0.3,129.7,0.3,259.4,0.1,389.1c0,33.3-22.9,52.7-48.1,41.3
		c-13.7-6.2-21.3-19.8-21.3-39.7c-0.1-59.8,0-119.6-0.1-179.5c0-16.9,0-16.9-13.4-12.8c-36.4,11.2-72.8,22.7-109.3,33.4
		c-8.6,2.5-12.1,6.8-12.1,18.5c0.4,111.3,0.3,222.7,0,334c0,11.5,2.7,14.9,12.1,14.9c82.2-0.4,164.4-0.4,246.6,0
		c10.2,0.1,12.4-4.3,12.3-15.9c-0.4-62.4-0.2-124.9-0.2-187.3c0-32.5,12.8-48.5,38.9-48.5c42.9-0.1,85.8-0.1,128.6,0
		c24.5,0.1,38,16.7,38.1,47c0.1,63.3,0.2,126.6-0.2,189.9c-0.1,11.7,2.9,15.3,12.2,14.7c14.5-0.8,29.1-0.7,43.6,0
		c8.2,0.4,11.4-2.7,11.1-13.3c-0.5-26.2-0.2-52.4-0.2-78.6c0-120.5,0-241,0-361.5c0-38.2,18.4-56.5,48.4-47.3
		c88,26.8,175.9,54.1,263.8,81.2c15.7,4.8,27.2,14.4,29.9,35.6c3.8,29.4-15,54-38.9,50.3c-7.3-1.1-14.6-3.5-21.8-5.8
		c-5.4-1.8-8.2-0.4-7.9,7.1c0.2,3.5,0,7,0,10.5c0,119.2,0,238.4,0,357.6c0,34.2-12.5,49.8-40.1,49.8
		C808.2,959.8,673.9,959.8,539.6,959.8z M778.4,671.8c0,62.8,0.2,125.6-0.2,188.4c-0.1,10.9,2.8,14.2,11.6,14.1
		c37.2-0.5,74.3-0.4,111.5,0c8.3,0.1,11.9-2.3,11.9-13.7c-0.3-112.1-0.3-224.2,0-336.3c0-10.3-2.9-14.5-10.9-16.9
		c-37.8-11.2-75.6-22.9-113.2-34.9c-8.9-2.9-10.9,0.2-10.8,10.9C778.6,546.2,778.4,609,778.4,671.8z M572.8,791.2
		c0-24-0.1-48,0.1-72c0.1-7.7-2.1-11.1-8.6-11c-16.3,0.3-32.6,0.4-48.9,0c-7-0.2-9.2,3.3-9.2,11.6c0.2,47.6,0.2,95.2,0,142.8
		c0,8.3,2.1,11.8,9.2,11.7c15.9-0.4,31.9-0.5,47.8,0c7.5,0.2,9.9-3.4,9.8-12.3C572.6,838.4,572.8,814.8,572.8,791.2z"/>
	<path class="st0" d="M436.8,382.2c0-4.6-0.3-9.2,0.1-13.8c1-13.6,16-23.4,35.3-23.3c18.5,0.2,33.3,10.2,33.9,23.5
		c0.5,9.2,0.4,18.5,0,27.7c-0.6,13.7-15.6,23.7-34.8,23.7c-18.8,0-33.8-10.4-34.5-24C436.6,391.4,436.8,386.8,436.8,382.2z"/>
	<path class="st0" d="M642.3,382.4c0,4.9,0.3,9.7-0.1,14.6c-1.1,13.2-16,23-34.7,23c-18.4,0-33.8-10.1-34.5-23.1
		c-0.5-9.5-0.5-19,0-28.4c0.7-13.7,15.8-23.5,35.2-23.3c18.5,0.1,33.2,10.2,34.1,23.5C642.6,373.2,642.3,377.8,642.3,382.4z"/>
	<path class="st0" d="M879.7,599.8c0,4.9,0.3,9.7-0.1,14.6c-1.1,13.2-16,23-34.7,23c-18.4,0-33.8-10.1-34.5-23.1
		c-0.5-9.5-0.5-19,0-28.4c0.7-13.7,15.8-23.5,35.2-23.3c18.5,0.1,33.2,10.2,34.1,23.5C880,590.6,879.8,595.2,879.7,599.8z"/>
	<path class="st0" d="M881,729.5c0,4.9,0.3,9.7-0.1,14.6c-1.1,13.2-16,23-34.7,23c-18.4,0-33.8-10.1-34.5-23.1
		c-0.5-9.5-0.5-19,0-28.4c0.7-13.7,15.8-23.5,35.2-23.3c18.5,0.1,33.2,10.2,34.1,23.5C881.3,720.3,881,724.9,881,729.5z"/>
	<path class="st0" d="M267.9,619.7c0,4.9,0.3,9.7-0.1,14.6c-1.1,13.2-16,23-34.7,23c-18.4,0-33.8-10.1-34.5-23.1
		c-0.5-9.5-0.5-19,0-28.4c0.7-13.7,15.8-23.5,35.2-23.3c18.5,0.1,33.2,10.2,34.1,23.5C268.1,610.5,267.9,615.1,267.9,619.7z"/>
	<path class="st0" d="M269.1,749.4c0,4.9,0.3,9.7-0.1,14.6c-1.1,13.2-16,23-34.7,23c-18.4,0-33.8-10.1-34.5-23.1
		c-0.5-9.5-0.5-19,0-28.4c0.7-13.7,15.8-23.5,35.2-23.3c18.5,0.1,33.2,10.2,34.1,23.5C269.4,740.2,269.2,744.8,269.1,749.4z"/>
	<path class="st0" d="M437.4,509.7c0-4.6-0.3-9.2,0.1-13.8c1-13.6,16-23.4,35.3-23.3c18.5,0.2,33.3,10.2,33.9,23.5
		c0.5,9.2,0.4,18.5,0,27.7c-0.6,13.7-15.6,23.7-34.8,23.7c-18.8,0-33.8-10.4-34.5-24C437.2,519,437.4,514.3,437.4,509.7z"/>
	<path class="st0" d="M642.9,509.9c0,4.9,0.3,9.7-0.1,14.6c-1.1,13.2-16,23-34.7,23c-18.4,0-33.8-10.1-34.5-23.1
		c-0.5-9.5-0.5-19,0-28.4c0.7-13.7,15.8-23.5,35.2-23.3c18.5,0.1,33.2,10.2,34.1,23.5C643.1,500.7,642.9,505.3,642.9,509.9z"/>
</g>
</svg>
