<?xml version="1.0" encoding="utf-8"?>
<!-- Generator: Adobe Illustrator 28.2.0, SVG Export Plug-In . SVG Version: 6.00 Build 0)  -->
<svg version="1.1" id="Шар_1" xmlns="http://www.w3.org/2000/svg" xmlns:xlink="http://www.w3.org/1999/xlink" x="0px" y="0px"
	 viewBox="0 0 1080 1080" style="enable-background:new 0 0 1080 1080;" xml:space="preserve">
<style type="text/css">
	.st0{fill:#EFC825;}
</style>
<g>
	<path class="st0" d="M959.6,310.2c-48.4,0.5-96.8,0.2-145.2,0.1c-11,0-11.6-0.6-11.6-11.6c0-58.8-0.1-117.6,0-176.3
		c0-18.7-6.4-33-25.2-39.7c-223.6,0-447.2,0-670.8,0c-16.9,6.8-24.1,19.2-24,37.6c0.2,248,0.1,495.9,0.2,743.9
		c0,68.6,48,123.2,115.8,132.1c6.7,0.9,13.7,0.6,20.5,0.6c214.1,0,428.1-0.7,642.2,0.4c63.9,0.3,121.4-42.2,134.2-106.5
		c0.3-1.7,0.9-3.4,1.3-5.2c0-183.8,0-367.5,0-551.3C990.3,317.4,978,310.1,959.6,310.2z M744.7,929.6c-1.5-0.1-3,0-4.5,0
		c-173.9,0-347.8,0-521.8,0c-28.2,0-49.3-11.5-62.1-36.9c-5.1-10-6.2-20.9-6.2-32.1c0.1-115.6,0.1-231.3,0.1-346.9
		c0-116.8,0-233.7,0-350.5c0-14,0-14,13.7-14c185.5,0,371,0,556.5,0c14.2,0,14.3,0,14.3,14.5c0,228.9,0,457.8,0,686.8
		c0,25.2,2.3,49.9,14,72.8C751.2,928.1,749.7,929.8,744.7,929.6z M930.5,864.9c0,34-24.5,61-57.1,64.5c-32,3.4-61.2-17.5-69.1-49.3
		c-1.9-7.6-1.5-15.4-1.5-23.1c-0.1-75.5,0-151,0-226.5c0-79.7,0-159.3,0-239c0-13.8,0.1-13.8,14-13.9c34.2,0,68.4,0.2,102.5-0.2
		c8.5-0.1,11.4,2.6,11.4,11.2C930.6,547.4,930.7,706.1,930.5,864.9z"/>
	<path class="st0" d="M238.7,474c5.5,1.5,11.1,1.6,16.8,1.6c62.4,0,124.8,0,187.2,0c62.1,0,124.2,0,186.4,0c5,0,10.1-0.2,15.1-1.2
		c17.6-3.4,28.1-17.1,27.3-35.2c-0.7-16.4-13-28.9-30.2-30.7c-5.9-0.6-11.9-0.9-17.8-0.9c-120.7-0.1-241.3-0.1-362,0
		c-6.2,0-12.5,0.3-18.7,1c-16.3,2-28.4,15-29.3,30.9C212.6,455.8,222.9,469.9,238.7,474z"/>
	<path class="st0" d="M645.8,670c-4-0.9-8.3-0.9-12.4-0.9c-127.2,0-254.4,0-381.6,0c-2.7,0-5.4-0.1-8,0.2
		c-16.9,1.5-30.2,15.9-30.4,32.8c-0.2,19.9,14.7,34.2,36.5,34.2c64.2,0.1,128.4,0,192.6,0.1c53.2,0,106.4,0,159.6,0
		c12.5,0,25,0.4,37.4-0.2c17.1-0.8,30.4-13.5,31.8-29.4C672.9,688.7,662.7,673.9,645.8,670z"/>
	<path class="st0" d="M638,538.8c-65.1-0.1-130.2,0-195.3,0c-65.1,0-130.2-0.1-195.3,0c-18.8,0-33,13.2-34,30.9
		c-1.1,18.2,11.5,33.3,30.1,35.8c4.4,0.6,8.9,0.4,13.3,0.4c92.1,0,184.3,0,276.4,0c33.6,0,67.2,0,100.7,0c10.5,0,20-2.5,27.7-10
		c9.5-9.3,12.5-24,7.6-36.3C664.3,546.8,652.7,538.9,638,538.8z"/>
	<path class="st0" d="M640.8,799.6c-3.2-0.3-6.5-0.2-9.8-0.2c-125.7,0-251.4,0-377.2,0c-3.3,0-6.6-0.1-9.8,0.3
		c-20.8,2.2-34.9,22-29.7,41.5c4.2,15.7,17,25.4,34.4,25.4c64.5,0.1,129,0,193.5,0c17.5,0,35.1,0,52.6,0c47.8,0,95.7,0.1,143.5-0.1
		c18.5-0.1,32.5-14,33-31.8C672,815.9,659.4,801.4,640.8,799.6z"/>
	<path class="st0" d="M347,311.7c31.8,0.1,63.6,0,95.4,0c31.8,0,63.6,0.1,95.4,0c21.1-0.1,35.5-13.2,36.1-32.5
		c0.5-19.3-14.3-34.4-35.3-34.5c-64.2-0.3-128.4-0.3-192.6,0c-20.6,0.1-34.8,14.8-34.6,34.2C311.6,298.3,326,311.7,347,311.7z"/>
</g>
</svg>
