<?xml version="1.0" encoding="utf-8"?>
<!-- Generator: Adobe Illustrator 28.2.0, SVG Export Plug-In . SVG Version: 6.00 Build 0)  -->
<svg version="1.1" id="Шар_1" xmlns="http://www.w3.org/2000/svg" xmlns:xlink="http://www.w3.org/1999/xlink" x="0px" y="0px"
	 viewBox="0 0 1920 1080" style="enable-background:new 0 0 1920 1080;" xml:space="preserve">
<style type="text/css">
	.st0{fill:#EFC825;}
	.st1{fill:#00A43C;}
	.st2{fill:#007C29;}
</style>
<g>
	<g>
		<path class="st0" d="M358.9,1013.5l-155.1-0.4c-49.2,0-73.8-15.5-73.8-46.5c0-34.9,27.5-52.3,82.4-52.3c5.2,0,10.9,0.1,17.2,0.4
			V568.2c-22.7,15.6-37.4,23.4-44.1,23.4c-14.6,0-27.3-5.2-38.1-15.6c-10.8-10.4-16.2-22.5-16.2-36.3c0-14.3,8.7-29,26.2-44.1
			l44.1-32l47.7-38.3c19.5-14.1,38.4-21.1,56.6-21.1c23.4,0,35.2,14.1,35.2,42.2c0,31-1.3,74.6-3.9,130.9
			c-2.6,56.2-3.9,136.6-3.9,241v94.5h25.8c15.1,0,27.8,4.8,38.1,14.5c10.3,9.6,15.4,21.6,15.4,35.9c0,14.3-5.1,26.3-15.4,35.9
			C386.7,1008.7,374,1013.5,358.9,1013.5z"/>
	</g>
	<g>
		<path class="st0" d="M902.5,495.9c-3.6-1.3-4.3-4.3-4.6-7.6c-0.9-7.9-2-15.7-3-23.6c-0.2-1.9,0.2-3.5,1.3-5
			c3.8-5.4,7.6-10.7,11.4-16.1c0.5-0.8,0.8-1.5,0.8-2.5c0-6.5,0-13,0-19.5c0-2.8,0.1-5.5,0.1-8.3c0-0.9-0.3-1.6-1.1-2.1
			c-4.2-2.9-8.3-5.9-12.5-8.8c-1.4-1-2.3-2.2-2.7-3.8c-1.9-6.6-3.8-13.1-5.6-19.7c-0.8-2.9,0.6-5.6,3.4-6.4c2.7-0.8,5.3,0.7,6.1,3.6
			c1.7,5.7,3.3,11.3,4.9,17c0.3,1.1,0.9,2,1.9,2.7c4.3,3,8.5,6,12.8,9c0.8,0.6,1.7,0.8,2.7,0.8c2.8,0,5.7,0,8.5,0
			c2.5,0,4.9,0.7,6.9,2.1c5.9,4.1,11.7,8.2,17.5,12.3c2.6,1.8,3,4.9,1,7.4c-3.8,4.6-7.6,9.1-11.4,13.7c-1.5,1.8-3.4,2.4-5.6,1.6
			c-0.9-0.3-1,0-1,0.8c0,3.6,0,7.1-0.2,10.7c-0.2,3.4-0.2,6.7-0.3,10.1c0,0.8,0.1,1.5,0.5,2.2c3.6,6.6,7.2,13.3,11,19.8
			c2,3.5,1.2,8.1-3.3,9.5c-1,0-1.9,0-2.9,0c-1.6-0.6-3-1.5-3.8-3.1c-4.2-7.6-8.3-15.2-12.5-22.8c-0.4-0.8-0.8-1.6-0.8-2.5
			c0-2.6,0-5.1,0.1-7.7c0.2-3.8,0.2-7.5,0.3-11.3c0-0.4,0-0.8-0.5-1c-1-0.4-2.4,0-3.1,0.9c-3.8,5.3-7.5,10.6-11.3,15.9
			c-0.4,0.5-0.5,1.1-0.4,1.7c1,7.4,1.9,14.8,2.9,22.2c0.5,4-0.5,6-4.2,7.6C904.6,495.9,903.5,495.9,902.5,495.9z M934.1,433.6
			c2.3-2.8,4.4-5.3,6.5-7.8c0.4-0.5,0.5-0.8-0.1-1.2c-1.9-1.3-3.7-2.6-5.6-3.9c-0.5-0.3-0.8-0.4-0.8,0.4
			C934.1,425.2,934.1,429.2,934.1,433.6z"/>
		<path class="st0" d="M920.5,381.4c5.7,0,10.3,4.6,10.2,10.3c0,5.6-4.7,10.3-10.3,10.3c-5.6,0-10.3-4.7-10.3-10.4
			C910.1,385.9,914.8,381.4,920.5,381.4z"/>
	</g>
	<g>
		<path class="st0" d="M1349.7,762.1c0.4-1.7,1.1-3.3,2.3-4.6c4.7-5,13.3-3.3,15.8,3c0.7,1.7-0.1,2.1,0.7,3.4
			c2.7,4.8,16.4,4.7,22.4,4.7c0.3,0,1.3,0,2.3,0.6c0.3,0.2,0.6,0.4,0.9,0.7c1.1,1.2,1.4,2.7,0.7,4.2c-0.7,1.5-1.9,2.3-3.5,2.4
			c-1.2,0.1-2.2,0-2.3,0c-3.6-0.5-8.3,1.5-13.3,0.1c-4.3-1.1-5.5-3.8-6.6-3.1c-1.9,1.3-0.7,11.5-0.5,14.1c0,0.1,0,0.3-0.1,0.5
			c-0.1,0.1-0.2,0.1-0.4,0.1c-6,0-11.9,0-17.9,0c-0.1,0-0.2,0-0.3,0C1349.7,779.6,1349.7,770.9,1349.7,762.1z"/>
		<path class="st0" d="M1367.4,735.4c5.4,0,9.8,4.4,9.8,9.7c0,5.2-4.1,9.7-9.7,9.7c-5.9,0-9.8-4.7-9.8-9.7
			C1357.7,739.7,1362,735.4,1367.4,735.4z"/>
		<path class="st0" d="M1390.9,782.2c6.4,0,12.9,0,19.3,0c1,0,1,0,1,1c0,1,0,2,0,3c0,0.6-0.2,0.8-0.8,0.8c-0.9,0-1.7,0-2.6,0
			c-12,0-24,0-36.1,0c-0.4,0-0.7,0-1.1-0.1c-0.1,0-0.2-0.1-0.4-0.1c-1-0.4-1.4-1.4-1.1-2.9c0.2-0.9,0.8-1.5,1.8-1.6
			c0.3,0,0.5,0,0.8,0C1378.2,782.2,1384.5,782.2,1390.9,782.2z"/>
		<path class="st0" d="M1391.9,781.1c-4.5,0-9,0-13.5,0c-1.3,0-2.1-0.9-2-2c0.1-0.8,0.7-1.4,1.4-1.5c0.4-0.1,0.9-0.1,1.3-0.1
			c8.1,0,16.1,0,24.2,0c0.7,0,1-0.2,1.2-0.9c2.2-6.6,4.5-13.3,6.8-19.9c0.1-0.2,0.1-0.4,0.2-0.6c0.4-1,1.3-1.4,2.2-1.1
			c1,0.3,1.5,1.2,1.2,2.2c-0.2,0.8-0.5,1.5-0.8,2.2c-2.2,6.6-4.5,13.1-6.7,19.7c-0.2,0.5-0.3,1-0.7,1.3c-0.4,0.4-1,0.5-1.6,0.5
			C1400.8,781.1,1396.4,781.1,1391.9,781.1z"/>
	</g>
	<g>
		<path class="st0" d="M1643.6,564.5c2.5,0.7,4.8,1.9,6.5,4c2.6,3.4,3.3,7.2,1.5,11.2c-1.9,4.1-5.1,6.4-9.7,6.5
			c-4.7,0.1-8.6-2.4-10.4-6.7c-1.8-4.4-0.9-8.3,2.2-11.8c1.6-1.7,3.6-2.7,5.9-3.2C1640.9,564.5,1642.2,564.5,1643.6,564.5z"/>
		<path class="st0" d="M1630.6,648.3c0-6.4,0-12.9,0-19.3c0-9.4,0-18.8,0-28.2c0-0.9-0.1-1.6-1-2c-0.3-0.1-0.5-0.4-0.7-0.6
			c-7.8-7.8-15.6-15.6-23.4-23.4c-1.4-1.4-2.1-3-1.5-5c0.9-3.1,4.6-4.3,7.2-2.4c0.5,0.3,0.9,0.7,1.3,1.1
			c7.1,7.1,14.1,14.1,21.1,21.2c0.8,0.8,1.2,0.7,2.1,0.2c3.5-2.3,7.3-2.5,11.1-0.6c0.9,0.4,1.3,0.3,2-0.3
			c6.9-6.9,13.7-13.8,20.6-20.7c1.8-1.8,3.8-2.2,5.7-1.3c2.9,1.4,3.6,4.9,1.5,7.3c-0.3,0.3-0.6,0.7-1,1
			c-7.3,7.3-14.5,14.5-21.8,21.8c-0.6,0.6-1.1,1.2-0.8,2.2c0.1,0.4,0,0.8,0,1.3c0,7.7,0,15.4,0,23.1c0,14.8,0,29.6,0,44.3
			c0,2-0.5,3.8-2.4,4.9c-3,1.8-6.8-0.3-7-3.7c0-0.5,0-0.9,0-1.4c0-10,0-20,0-29.9c0-0.9-0.1-1.4-1.2-1.1c-0.3,0.1-0.7,0-1.1,0
			c-1.4-0.1-1.4-0.1-1.4,1.4c0,9.9,0,19.7,0,29.6c0,0.5,0,0.9,0,1.4c-0.2,2.6-2.3,4.4-4.8,4.4c-2.5,0-4.4-2-4.6-4.5
			c0-0.4,0-0.8,0-1.2C1630.6,661.2,1630.6,654.7,1630.6,648.3z"/>
	</g>
	<path class="st1" d="M1746.5,265.9h-23.2c0,0.2,0,0.4,0,0.7c0,3.9-1.6,7-4.7,9.4c-2.7,2.1-5.7,3.1-9.2,3.1
		c-6.4,0-10.7-3.1-13.1-9.3c-0.4-1.1-1-2.4-1.7-3.9h-33c-1.2,9.6-5.8,14.4-13.8,14.4c-3.6,0-6.8-1.1-9.5-3.2
		c-2.9-2.4-4.3-5.6-4.3-9.4c0-0.5,0-1.1,0-1.8h-30.8c-10.5,12.1-23.7,18.2-39.5,18.2c-14.7,0-27.3-4.3-37.7-13
		c-2-1.7-3.8-3.4-5.4-5.2h-46.6c-0.9,12.2-5.6,18.4-14.1,18.4c-3.5,0-6.6-1.1-9.3-3.4c-2.9-2.4-4.3-5.5-4.3-9.2c0-1.5,0-3.4,0.1-5.7
		h-45.5c-0.1,1.7-0.1,3.1-0.1,4.3c0,3.8-1.3,7-3.9,9.6c-2.6,2.6-5.8,3.9-9.7,3.9c-3.9,0-7.2-1.3-9.8-3.9c-2.6-2.6-3.9-5.8-3.9-9.6
		c0-1.2,0-2.7,0.1-4.3h-40.1c-4.8,4.2-8.6,7.7-11.4,10.6c-4.2,4.3-8.8,6.5-13.7,6.5c-3.6,0-6.9-1-9.8-2.9c-3.3-2.4-5-5.6-5-9.9
		c0-1.4,0-2.9,0-4.3h-14.7c0,0.5,0.1,1,0.1,1.5c0,3.6-1.4,6.5-4.2,8.7c-2.5,2-5.4,3-8.7,3c-5.9,0-10-2.9-12.1-8.8
		c-0.5-1.2-1.1-2.7-2-4.4h-24.8c-1,9.6-5.4,14.4-13,14.4c-3.5,0-6.4-1-8.8-3.1c-2.7-2.2-4-5.1-4-8.7c0-0.8,0-1.6,0-2.6h-23.9
		c-0.8,1.7-1.5,3.1-1.9,4.3c-2.1,5.9-6.2,8.9-12.1,8.9c-3.3,0-6.2-1-8.7-3c-2.8-2.3-4.2-5.2-4.2-8.7c0-0.5,0-1,0.1-1.5h-24.1
		c-10.5,12.1-23.7,18.2-39.5,18.2c-14.7,0-27.3-4.3-37.7-13c-2-1.7-3.8-3.4-5.4-5.2h-46.6c-0.9,12.2-5.6,18.4-14.1,18.4
		c-3.5,0-6.6-1.1-9.3-3.4c-2.9-2.4-4.3-5.5-4.3-9.2c0-1.5,0-3.4,0.1-5.7h-49.7c-0.5,0.6-0.9,1.2-1.4,1.8
		c-8.7,10.7-20.4,16.1-35.1,16.1c-5.6,0-11.5-0.7-17.7-2.1l-0.1,42.3c0,4-1.3,7.3-3.8,10c-2.5,2.6-5.8,3.9-9.7,3.9s-7.1-1.3-9.7-3.9
		c-2.5-2.6-3.8-5.9-3.8-10c0-3.3,0.1-16.1,0.2-38.7c0.1-7,0.1-13.5,0.1-19.4h-48.7c-7.9,17.2-13.9,31.5-18.2,43
		c-1.4,4.3-3.5,10.6-6.4,19.1c-2.3,6.5-6.5,9.7-12.5,9.7c-3.7,0-7-1.3-9.8-3.8c-2.8-2.6-4.2-5.8-4.2-9.6c0-6.4,6.9-25.5,20.7-57.1
		c-0.2-0.4-0.4-0.8-0.6-1.2H646c0,2.4,0,4.8,0,7.2c0,4-1.3,7.4-4,10.1c-2.7,2.7-5.9,4.1-9.7,4.1c-3.8,0-7-1.4-9.6-4.1
		c-2.6-2.7-4-6.1-4-10.1c0-2.4,0-4.8,0-7.2h-21.2c-34.7,0-62.8,28.1-62.8,62.8v622c0,34.7,28.1,62.8,62.8,62.8h1148.9
		c34.7,0,62.8-28.1,62.8-62.8v-622C1809.3,294.1,1781.2,265.9,1746.5,265.9z M770.7,927c0,12.3-9.9,22.2-22.2,22.2H645.9
		c-12.3,0-22.2-9.9-22.2-22.2v-63c0-12.3,9.9-22.2,22.2-22.2h102.6c12.3,0,22.2,9.9,22.2,22.2V927z M770.7,763
		c0,12.3-9.9,22.2-22.2,22.2H645.9c-12.3,0-22.2-9.9-22.2-22.2v-63c0-12.3,9.9-22.2,22.2-22.2h102.6c12.3,0,22.2,9.9,22.2,22.2V763z
		 M770.7,602.2c0,12.3-9.9,22.2-22.2,22.2H645.9c-12.3,0-22.2-9.9-22.2-22.2v-63c0-12.3,9.9-22.2,22.2-22.2h102.6
		c12.3,0,22.2,9.9,22.2,22.2V602.2z M770.7,423c0,12.3-9.9,22.2-22.2,22.2H645.9c-12.3,0-22.2-9.9-22.2-22.2v-63
		c0-12.3,9.9-22.2,22.2-22.2h102.6c12.3,0,22.2,9.9,22.2,22.2V423z M1009.7,927c0,12.3-9.9,22.2-22.2,22.2H884.8
		c-12.3,0-22.2-9.9-22.2-22.2v-63c0-12.3,9.9-22.2,22.2-22.2h102.6c12.3,0,22.2,9.9,22.2,22.2V927z M1009.7,763
		c0,12.3-9.9,22.2-22.2,22.2H884.8c-12.3,0-22.2-9.9-22.2-22.2v-63c0-12.3,9.9-22.2,22.2-22.2h102.6c12.3,0,22.2,9.9,22.2,22.2V763z
		 M1009.7,602.2c0,12.3-9.9,22.2-22.2,22.2H884.8c-12.3,0-22.2-9.9-22.2-22.2v-63c0-12.3,9.9-22.2,22.2-22.2h102.6
		c12.3,0,22.2,9.9,22.2,22.2V602.2z M1009.7,423c0,12.3-9.9,22.2-22.2,22.2H884.8c-12.3,0-22.2-9.9-22.2-22.2v-63
		c0-12.3,9.9-22.2,22.2-22.2h102.6c12.3,0,22.2,9.9,22.2,22.2V423z M1237.9,927c0,12.3-9.9,22.2-22.2,22.2h-102.6
		c-12.3,0-22.2-9.9-22.2-22.2v-63c0-12.3,9.9-22.2,22.2-22.2h102.6c12.3,0,22.2,9.9,22.2,22.2V927z M1237.9,763
		c0,12.3-9.9,22.2-22.2,22.2h-102.6c-12.3,0-22.2-9.9-22.2-22.2v-63c0-12.3,9.9-22.2,22.2-22.2h102.6c12.3,0,22.2,9.9,22.2,22.2V763
		z M1237.9,602.2c0,12.3-9.9,22.2-22.2,22.2h-102.6c-12.3,0-22.2-9.9-22.2-22.2v-63c0-12.3,9.9-22.2,22.2-22.2h102.6
		c12.3,0,22.2,9.9,22.2,22.2V602.2z M1237.9,423c0,12.3-9.9,22.2-22.2,22.2h-102.6c-12.3,0-22.2-9.9-22.2-22.2v-63
		c0-12.3,9.9-22.2,22.2-22.2h102.6c12.3,0,22.2,9.9,22.2,22.2V423z M1483,927c0,12.3-9.9,22.2-22.2,22.2h-102.6
		c-12.3,0-22.2-9.9-22.2-22.2v-63c0-12.3,9.9-22.2,22.2-22.2h102.6c12.3,0,22.2,9.9,22.2,22.2V927z M1483,763
		c0,12.3-9.9,22.2-22.2,22.2h-102.6c-12.3,0-22.2-9.9-22.2-22.2v-63c0-12.3,9.9-22.2,22.2-22.2h102.6c12.3,0,22.2,9.9,22.2,22.2V763
		z M1483,602.2c0,12.3-9.9,22.2-22.2,22.2h-102.6c-12.3,0-22.2-9.9-22.2-22.2v-63c0-12.3,9.9-22.2,22.2-22.2h102.6
		c12.3,0,22.2,9.9,22.2,22.2V602.2z M1483,423c0,12.3-9.9,22.2-22.2,22.2h-102.6c-12.3,0-22.2-9.9-22.2-22.2v-63
		c0-12.3,9.9-22.2,22.2-22.2h102.6c12.3,0,22.2,9.9,22.2,22.2V423z M1712.8,927c0,12.3-9.9,22.2-22.2,22.2H1588
		c-12.3,0-22.2-9.9-22.2-22.2v-63c0-12.3,9.9-22.2,22.2-22.2h102.6c12.3,0,22.2,9.9,22.2,22.2V927z M1712.8,763
		c0,12.3-9.9,22.2-22.2,22.2H1588c-12.3,0-22.2-9.9-22.2-22.2v-63c0-12.3,9.9-22.2,22.2-22.2h102.6c12.3,0,22.2,9.9,22.2,22.2V763z
		 M1712.8,602.2c0,12.3-9.9,22.2-22.2,22.2H1588c-12.3,0-22.2-9.9-22.2-22.2v-63c0-12.3,9.9-22.2,22.2-22.2h102.6
		c12.3,0,22.2,9.9,22.2,22.2V602.2z M1712.8,423c0,12.3-9.9,22.2-22.2,22.2H1588c-12.3,0-22.2-9.9-22.2-22.2v-63
		c0-12.3,9.9-22.2,22.2-22.2h102.6c12.3,0,22.2,9.9,22.2,22.2V423z"/>
	<g>
		<path class="st2" d="M708.8,149.8c-2.6,2.6-5.8,4-9.5,4c-1.2,0-2.7-0.2-4.3-0.7c-9.4-2.7-19.8-4-31.2-4c-2.5,0-6.7,0.1-12.4,0.3
			c-5.4,0.2-9.5,0.3-12.4,0.2h-3.4c0.6,10.6,1.3,18.6,1.9,23.9c1.8,28.1,2.6,60,2.6,95.9c0,3.8-1.3,6.9-4,9.5
			c-2.7,2.6-5.9,3.9-9.7,3.9c-3.8,0-7-1.3-9.6-3.9c-2.6-2.6-4-5.7-4-9.5c0-35.2-0.8-66.7-2.5-94.3c-1.3-21.3-2-31.6-2-31
			c0-14,8-21,23.9-21c3,0,7.5,0,13.4-0.1s10.4-0.1,13.3-0.1c14.8,0,25.3,0.5,31.5,1.6c14.7,2.5,22.1,7.8,22.1,15.9
			C712.7,144,711.4,147.2,708.8,149.8z"/>
		<path class="st2" d="M819.6,191.2c-7.1,14.8-18.3,38-33.7,69.6c-8.3,17-14.7,31.1-19,42.3c-1.4,4-3.5,10-6.4,18
			c-2.3,6.1-6.5,9.2-12.5,9.2c-3.7,0-7-1.2-9.8-3.6c-2.8-2.4-4.2-5.4-4.2-9.1c0-6.1,6.9-24,20.7-53.8c-7.2-14.1-18.5-34.9-34.1-62.4
			c-1.6-2.5-3.2-5-4.8-7.5c-1.8-3-2.6-5.7-2.6-8.2c0-3.5,1.4-6.6,4.2-9.3c2.8-2.7,6-4,9.7-4c4.3,0,7.6,1.6,10.1,4.8
			c9.2,12.3,20,30.8,32.3,55.6c7-15.4,11.2-24.7,12.7-27.9c4.6-9.7,9.1-18.2,13.6-25.6c2.8-4.7,6.6-7,11.5-7c3.6,0,6.9,1.2,9.8,3.7
			c2.9,2.5,4.3,5.5,4.3,9.1C821.3,186.8,820.7,188.9,819.6,191.2z"/>
		<path class="st2" d="M878.2,279.5c-5.6,0-11.5-0.7-17.7-2l-0.1,39.8c0,3.8-1.3,6.9-3.8,9.4c-2.5,2.5-5.8,3.7-9.7,3.7
			s-7.1-1.2-9.7-3.7c-2.5-2.5-3.8-5.6-3.8-9.4c0-3.1,0.1-15.2,0.2-36.4c0.1-15.8,0.1-28.6,0-38.6c-0.2-14.1-0.7-26.2-1.4-36.3
			c-1-14-1.5-20.4-1.5-19.2c0-5.4,1.2-10,3.6-13.9c2.8-4.4,6.6-6.5,11.3-6.5c3.6,0,6.7,1.2,9.2,3.7c2.5,2.5,3.7,5.4,3.7,8.9l-0.1,1
			c4.4-2.5,8.7-4.3,13.1-5.5c4.4-1.2,8.8-1.8,13.2-1.8c15,0,25.9,6.3,32.8,19c5.1,9.6,7.7,22,7.7,37.2c0,14.3-4.1,26.1-12.2,35.4
			C904.6,274.4,892.9,279.5,878.2,279.5z M885,198.7c-4.1,0-8.3,1-12.5,2.9c-4.2,1.9-8.5,4.8-12.8,8.6c0.8,13.4,1.2,26.9,1.2,40.3
			c5.8,1.9,11.6,2.8,17.4,2.8c6.7,0,11.8-2.4,15.4-7.1c3.3-4.3,4.9-10.1,4.9-17.4c0-8.8-0.4-14.9-1.2-18.3
			C895.5,202.7,891.3,198.7,885,198.7z"/>
		<path class="st2" d="M1009,196.5c-1.8,0-4.4-0.1-7.9-0.2c-3.5-0.2-6.1-0.2-7.9-0.2c-1,0-2.1,0.1-3.2,0.2
			c1.4,29.2,2.1,49.9,2.1,61.9c0,14.6-4.8,21.9-14.3,21.9c-3.5,0-6.6-1.1-9.3-3.2c-2.9-2.3-4.3-5.2-4.3-8.7c0-2.3,0.1-5.7,0.3-10.4
			c0.2-4.7,0.3-8.1,0.3-10.4c0-8.9-0.6-25.8-1.8-50.7c-1.2,0-4.1,0-8.7,0c-6.6,0-11.5-0.6-14.6-1.9c-4.9-2-7.3-5.7-7.3-11.2
			c0-3.5,1.2-6.6,3.7-9.1c2.4-2.6,5.6-3.9,9.5-3.9h57.7c12.7,0,19,4.4,19,13.1c0,3.6-1.3,6.7-3.8,9.2
			C1016.2,195.2,1013,196.5,1009,196.5z"/>
		<path class="st2" d="M1081.5,279.8c-14.7,0-27.3-4.1-37.7-12.2c-11.1-8.8-16.7-20.1-16.7-34.1c0-15.8,5.1-30.2,15.4-43.3
			c11.8-15,26.8-22.6,45-22.6c34.9,0,52.3,15.4,52.3,46.3c0,15.8-4.7,30.1-14.2,43C1114.6,272.1,1099.8,279.8,1081.5,279.8z
			 M1087.6,193.3c-8.7,0-16.2,4.2-22.7,12.5s-9.7,17.5-9.7,27.7c0,6.1,2.5,11.1,7.4,14.9c4.9,3.8,11.2,5.8,18.9,5.8
			c8.4,0,15.6-4.2,21.6-12.5c5.8-8,8.7-17.3,8.7-27.7c0-8.1-1.7-13.6-5-16.4C1103.4,194.7,1097,193.3,1087.6,193.3z"/>
		<path class="st2" d="M1196.7,229.9c-2.9,1.2-7.8,6.8-14.7,17c-6.3,9.2-10.3,15.9-11.8,19.8c-2.1,5.6-6.2,8.4-12.1,8.4
			c-3.3,0-6.2-0.9-8.7-2.8c-2.8-2.1-4.2-4.9-4.2-8.2c0-5.3,3.4-13,10.2-22.9c6.4-9.4,13.1-16.8,19.8-22.3c-2.4-2.5-4.8-6.4-7.2-11.6
			c-2.7-5.9-4.9-9.9-6.3-12c-1.7-2.3-3.2-3.4-4.6-3.4c-2.8,0-5.1-1-6.9-2.9c-1.8-1.9-2.7-4.3-2.7-7.1c0-2.6,1.9-4.9,5.7-7
			c3.3-1.8,6.5-2.7,9.5-2.7c6.3,0,11.5,2.7,15.5,8.2c1.1,1.4,3.9,6.6,8.3,15.6c1.4,2.8,2.5,4.6,3.4,5.5c1.3,1.2,3.4,2,6.2,2.3
			c-0.4-7.7-0.6-14-0.6-18.8c0-9.8,4.3-14.7,13-14.7c3.5,0,6.5,1.1,9,3.2c2.5,2.1,3.8,4.8,3.8,8.1c0,4.3,0.2,11.8,0.5,22.6
			c4.1-0.5,7.2-2.2,9.2-5.3c1.6-3.3,3.2-6.5,4.8-9.7c2.8-5.5,5.3-9.4,7.4-11.5c3.5-3.6,7.9-5.4,13.2-5.4c2.9,0,6.1,0.9,9.4,2.7
			c3.8,2.1,5.7,4.4,5.7,7c0,2.8-0.9,5.2-2.7,7.1c-1.8,2-4.1,2.9-6.9,2.9c-2,0-4.7,3.1-8,9.3c-1.8,3.8-3.7,7.7-5.6,11.4
			c-1.4,2.5-3,4.6-4.6,6.2c6.8,5.5,13.4,12.9,19.8,22.3c6.8,10,10.2,17.6,10.2,22.9c0,3.4-1.4,6.1-4.2,8.2c-2.5,1.9-5.4,2.8-8.7,2.8
			c-5.9,0-10-2.8-12.1-8.3c-1.6-4-5.5-10.5-11.7-19.7c-6.9-10-11.8-15.7-14.8-17.1c0,1.4,0,4.5-0.1,9.4c-0.1,3.8-0.1,7-0.1,9.4
			c0,0.8,0,2.3,0.1,4.4c0.1,2.1,0.1,3.7,0.1,4.9c0,12.2-4.4,18.3-13.3,18.3c-3.5,0-6.4-1-8.8-2.9c-2.7-2.1-4-4.8-4-8.2
			c0-2.9,0.1-7.5,0.4-13.7c0.3-6.2,0.4-10.8,0.4-13.7C1196.8,234.9,1196.7,232.3,1196.7,229.9z"/>
		<path class="st2" d="M1395.1,266.7c0,3.6-1.3,6.6-3.9,9c-2.6,2.4-5.8,3.7-9.7,3.7c-3.9,0-7.2-1.2-9.8-3.7c-2.6-2.4-3.9-5.5-3.9-9
			c0-3.9,0.2-9.8,0.6-17.6c0.4-7.8,0.6-13.7,0.6-17.6c0-3.6-0.2-7.4-0.5-11.3c-12.1,16.3-23,28.4-32.6,36
			c-8.7,6.9-15.2,12.4-19.4,16.5c-4.2,4.1-8.8,6.1-13.7,6.1c-3.6,0-6.9-0.9-9.8-2.7c-3.3-2.2-5-5.3-5-9.3c0-17.3-0.3-35.3-1-54
			c-0.7-19.5-1.1-29-1.1-28.6c0-3.7,1.3-6.8,3.8-9.2s5.8-3.7,9.9-3.7c7.3,0,11.8,3.8,13.4,11.3c0.3,1,0.6,7.4,0.9,18.9l1,37.2
			c8.4-7.6,17.3-16.9,26.9-28c2.2-2.6,10.3-12.6,24.3-30c4.6-5.8,9.8-8.7,15.4-8.7c3.8,0,7.1,1.2,9.7,3.7c2.6,2.4,3.9,5.5,3.9,9
			c0,6.8,0.1,16.9,0.4,30.5c0.3,13.5,0.4,23.7,0.4,30.5c0,2.3-0.1,5.9-0.4,10.5C1395.3,260.8,1395.1,264.3,1395.1,266.7z"/>
		<path class="st2" d="M1485.4,196.5c-1.8,0-4.4-0.1-7.9-0.2c-3.5-0.2-6.1-0.2-7.9-0.2c-1,0-2.1,0.1-3.2,0.2
			c1.4,29.2,2.1,49.9,2.1,61.9c0,14.6-4.8,21.9-14.3,21.9c-3.5,0-6.6-1.1-9.3-3.2c-2.9-2.3-4.3-5.2-4.3-8.7c0-2.3,0.1-5.7,0.3-10.4
			c0.2-4.7,0.3-8.1,0.3-10.4c0-8.9-0.6-25.8-1.8-50.7c-1.2,0-4.1,0-8.7,0c-6.6,0-11.5-0.6-14.6-1.9c-4.9-2-7.3-5.7-7.3-11.2
			c0-3.5,1.2-6.6,3.7-9.1c2.4-2.6,5.6-3.9,9.5-3.9h57.7c12.7,0,19,4.4,19,13.1c0,3.6-1.3,6.7-3.8,9.2
			C1492.6,195.2,1489.3,196.5,1485.4,196.5z"/>
		<path class="st2" d="M1557.9,279.8c-14.7,0-27.3-4.1-37.7-12.2c-11.1-8.8-16.7-20.1-16.7-34.1c0-15.8,5.1-30.2,15.4-43.3
			c11.8-15,26.8-22.6,45-22.6c34.9,0,52.3,15.4,52.3,46.3c0,15.8-4.7,30.1-14.2,43C1591,272.1,1576.2,279.8,1557.9,279.8z
			 M1564,193.3c-8.7,0-16.2,4.2-22.7,12.5s-9.7,17.5-9.7,27.7c0,6.1,2.5,11.1,7.4,14.9c4.9,3.8,11.2,5.8,18.9,5.8
			c8.4,0,15.6-4.2,21.6-12.5c5.8-8,8.7-17.3,8.7-27.7c0-8.1-1.7-13.6-5-16.4C1579.8,194.7,1573.4,193.3,1564,193.3z"/>
		<path class="st2" d="M1703.6,275.1c-6.4,0-10.7-2.9-13.1-8.8c-1.6-4.2-5.8-11-12.5-20.4c-7.2-10.2-11.9-15.3-14.2-15.3
			c-0.5-0.1-3.1-0.1-7.8-0.1l-0.1,17.8c0,0.8,0,2.3,0.1,4.3c0.1,2,0.1,3.6,0.1,4.7c0,12.7-4.7,19-14.2,19c-3.6,0-6.8-1-9.5-3
			c-2.9-2.3-4.3-5.2-4.3-8.9c0-2.9,0.1-7.3,0.4-13.4c0.3-6.1,0.4-10.6,0.4-13.5c0-5.8-0.2-14.5-0.7-26c-0.5-11.5-0.7-20.1-0.7-25.9
			c0-10.3,4.7-15.4,14-15.4c3.7,0,6.9,1.1,9.5,3.2c2.8,2.3,4.2,5.3,4.2,8.8c0,4.8,0.2,12.5,0.5,23.2c7,0.1,11.8-1.4,14.5-4.3
			c0.5-0.5,2.7-4.6,6.7-12.3c5.7-11.1,13.1-16.7,22.2-16.7c3,0,6.2,0.9,9.8,2.7c4.2,2.1,6.3,4.8,6.3,7.8c0,3-1,5.5-3,7.6
			c-2,2.1-4.5,3.1-7.6,3.1c-1.7,0-4.1,3-7.3,9c-1.7,3.5-3.4,7-5.2,10.5c-1.4,2.3-2.8,4.3-4.3,6c6.8,5.6,13.3,12.9,19.5,22
			c6.7,9.6,10.1,17.1,10.1,22.5c0,3.6-1.6,6.6-4.7,8.9C1710.1,274.1,1707.1,275.1,1703.6,275.1z"/>
	</g>
	<g>
		<path class="st0" d="M562.7,932.4c3,0.7,5.7,2.2,7.6,4.7c3,4.1,3.2,9.6,0.4,13.8c-2.8,4.2-7.9,6.2-12.7,5.1
			c-4.9-1.1-8.6-5.3-9.2-10.3c-0.7-6,3-11.5,8.9-13c0.3-0.1,0.7-0.2,1-0.3C560,932.4,561.4,932.4,562.7,932.4z"/>
		<path class="st0" d="M549.5,977.4c-1.7,2.3-3.3,4.7-4.7,7.2c-1.1,2-2.1,4-3,6.1c-0.7,1.6-1.6,2.8-3.4,3.3
			c-0.6,0.2-0.8,0.7-1.1,1.2c-4.3,7.5-8.6,15.1-12.9,22.6c-2.4,4.2-4.8,8.4-7.2,12.6c-0.3,0.6-0.4,1-0.1,1.7c1,2,0.5,4.1-1,5.5
			c-1.6,1.4-3.8,1.6-5.6,0.5c-1.8-1.1-2.6-3.2-1.9-5.3c0.2-0.7,0-1-0.6-1.3c-1.5-0.8-3-1.6-4.4-2.5c-1.9-1.1-2.2-2-1.1-3.9
			c3.3-5.9,6.7-11.9,10.1-17.8c1.4-2.6,2.9-5.1,4.3-7.7c1-1.8,2.1-2.1,3.9-1.1c2.1,1.2,4.3,2.4,6.4,3.6c0.6,0.4,0.9,0.3,1.3-0.3
			c1.6-2.8,3.2-5.7,4.8-8.5c0.2-0.4,0.3-0.8,0-1.2c-1.1-1.6-1-3.2-0.3-4.9c2.6-6.2,6.2-11.8,10.2-17.1c2.6-3.4,5.3-6.6,8.3-9.5
			c4.6-4.6,10.8-5,15.9-1c2.6,2,5,4.3,7.6,6.3c3.9,3.1,8,5.7,12.8,7c1.2,0.3,2.4,0.4,3.5,0.7c2.2,0.6,3.7,2.8,3.4,5
			c-0.3,2.5-2.3,4.3-4.7,4.3c-1.4,0-2.7-0.3-4-0.5c-4.9-0.9-9.5-2.5-13.5-5.5c-0.2-0.1-0.4-0.4-0.6-0.2c-0.1,0.1-0.1,0.5-0.1,0.7
			c0.2,2.6,0.5,5.3,0.7,7.9c0.2,2.3,0.5,4.7,0.5,7c0,1.6-0.4,3.2-1.3,4.5c-0.4,0.6-0.4,1.1,0,1.7c6.1,10.1,11.3,20.7,16.1,31.5
			c1.7,3.9,0.1,7.7-3.8,8.7c-2.8,0.8-5.6-0.6-6.9-3.4c-1.3-2.8-2.6-5.6-3.9-8.4c-3.2-6.8-6.6-13.5-10.4-20c-0.6-1-0.6-1-1.2,0
			c-3.9,7-7.5,14.2-11.2,21.3c-1.3,2.4-2.6,4.9-3.9,7.3c-1.6,2.7-4.4,3.9-7.1,3.1c-3.6-1.1-5.3-5.1-3.6-8.4c1.8-3.6,3.9-7,5.8-10.5
			c3.7-6.7,7.4-13.4,11.1-20.1c0.4-0.7,0.5-1.3-0.1-2c-1.1-1.4-1.4-3-1.6-4.8c-0.4-5-0.9-10-1.3-15.1
			C549.6,977.6,549.5,977.5,549.5,977.4z M514.3,1034.3c0-0.8-0.7-1.5-1.6-1.5c-0.8,0-1.5,0.7-1.4,1.6c0,0.8,0.7,1.4,1.5,1.4
			C513.7,1035.8,514.3,1035.1,514.3,1034.3z"/>
	</g>
	<g>
		<path class="st0" d="M1304.5,951.7c1.5,0.5,3,1,4.2,2.1c2.9,2.6,4.1,5.8,3,9.6c-1.1,4-3.8,6.3-7.9,6.9c-4.8,0.7-9.3-2.6-10.3-7.5
			c-1-4.5,1.8-9.3,6.4-10.8c0.4-0.1,0.8-0.3,1.1-0.4C1302.2,951.7,1303.3,951.7,1304.5,951.7z"/>
		<path class="st0" d="M1349.7,1025c-5.5-0.1-10-2.1-14.1-5.3c-2.1-1.6-3.9-3.5-5.5-5.5c-0.5-0.6-0.9-0.6-1.6-0.4
			c-6.4,2.3-12,5.8-17.2,10.1c-1.1,0.9-1.9,1.9-2.5,3.2c-2.4,5.1-4.9,10.2-7.4,15.2c-2.1,4.3-7.2,4.9-10.2,1.3
			c-1.3-1.5-1.6-3.3-0.9-5.2c0.9-2.2,2-4.4,3.1-6.6c1.9-3.9,3.8-7.7,5.6-11.6c0.9-2,2.3-3.3,3.9-4.6c4.2-3.5,8.6-6.6,13.4-9.1
			c0.6-0.3,0.7-0.5,0.4-1.1c-3.3-6.2-6.7-12.4-10.1-18.6c-0.4-0.6-0.7-0.7-1.4-0.6c-10.3,2.7-19.2,0-26.8-7.2
			c-1.6-1.5-2.9-3.1-4.2-4.8c-1.3-1.8-2.1-3.7-0.9-5.8c1.2-2.2,3.2-3.2,5.7-3.2c2.1,0,3.7,1,4.9,2.6c1.1,1.5,2.3,2.9,3.8,4.1
			c4.8,4.1,10.2,4.7,16,2.6c1.3-0.5,2.5-1.2,3.8-1.7c3.4-1.4,6.3-3.8,9.7-5.2c10.5-4.3,20.2-3.3,29.2,3.8c2.6,2.1,4.8,4.5,6.7,7.3
			c2,2.9,1.2,6.1-2,7.7c-3,1.5-6,0.9-8.1-1.9c-1.9-2.5-4.1-4.8-7-6.3c-3.6-1.8-7.3-1.9-11.1-0.9c-0.8,0.2-0.6,0.5-0.3,1
			c3.4,6,6.8,12.1,9.9,18.3c1.4,2.9,2.7,5.8,4.6,8.4c1.2,1.7,2.5,3.3,4.1,4.6c3.4,2.8,7.1,3.2,11.1,1.3c0.6-0.3,1.1-0.5,1.6-0.8
			c4.3-2.3,8.3,0.8,9.1,4.6c0.5,2.6-0.3,4.8-2.5,6.2C1358.4,1023.5,1354.2,1024.9,1349.7,1025z"/>
	</g>
	<circle class="st0" cx="1225.2" cy="1017.3" r="9.2"/>
</g>
<g>
	<g>
		<path class="st0" d="M406,1723.4c53.6,30,80.5,77.9,80.5,143.8c0,53.1-19.7,98.2-59,135.2c-39.3,37-87.1,55.5-143.4,55.5
			c-41.9,0-79.7-8.5-113.3-25.4c-38.8-19.8-65-47.9-78.5-84.4c-2.1-5.5-3.1-11.3-3.1-17.6c0-14.6,5.9-26.7,17.6-36.3
			c10.9-8.8,23.4-13.3,37.5-13.3c16.4,0,29.6,6.5,39.5,19.5c16.7,22.4,26.3,34.6,28.9,36.7c16.1,13,40,19.5,71.5,19.5
			c24.7,0,46.4-7.4,65-22.3c18.6-14.8,27.9-32.7,27.9-53.5c0-64.8-43.6-101.6-130.9-110.2c-38.3-3.6-57.4-19.7-57.4-48
			c0-21.6,14.8-37.4,44.5-47.3c28.1-6.2,56.1-12.6,84-19.1c17.7-5.5,31-12.6,39.8-21.5c8.9-8.9,13.4-19.4,13.7-31.6
			c1-38.8-29.3-58.2-91-58.2c-20.3,0-42.6,7.8-66.8,23.2c-24.2,15.5-40.8,23.2-49.6,23.2c-14.8,0-27.5-5.3-37.9-16
			c-10.4-10.7-15.6-22.8-15.6-36.3c0-22.1,21.9-44.1,65.6-66c39.1-19.5,70.8-29.3,95.3-29.3c59.1,0,106.6,12.8,142.6,38.3
			c39.3,28.1,59,68.2,59,120.3c0,28.6-5.5,53.1-16.6,73.2C444.8,1695.8,428.1,1711.7,406,1723.4z"/>
	</g>
	<g>
		<path class="st0" d="M915,1540.2c-3.6-1.3-4.3-4.3-4.6-7.6c-0.9-7.9-2-15.7-3-23.6c-0.2-1.9,0.2-3.5,1.3-5
			c3.8-5.4,7.6-10.7,11.4-16.1c0.5-0.8,0.8-1.5,0.8-2.5c0-6.5,0-13,0-19.5c0-2.8,0.1-5.5,0.1-8.3c0-0.9-0.3-1.6-1.1-2.1
			c-4.2-2.9-8.3-5.9-12.5-8.8c-1.4-1-2.3-2.2-2.7-3.8c-1.9-6.6-3.8-13.1-5.6-19.7c-0.8-2.9,0.6-5.6,3.4-6.4c2.7-0.8,5.3,0.7,6.1,3.6
			c1.7,5.7,3.3,11.3,4.9,17c0.3,1.1,0.9,2,1.9,2.7c4.3,3,8.5,6,12.8,9c0.8,0.6,1.7,0.8,2.7,0.8c2.8,0,5.7,0,8.5,0
			c2.5,0,4.9,0.7,6.9,2.1c5.9,4.1,11.7,8.2,17.5,12.3c2.6,1.8,3,4.9,1,7.4c-3.8,4.6-7.6,9.1-11.4,13.7c-1.5,1.8-3.4,2.4-5.6,1.6
			c-0.9-0.3-1,0-1,0.8c0,3.6,0,7.1-0.2,10.7c-0.2,3.4-0.2,6.7-0.3,10.1c0,0.8,0.1,1.5,0.5,2.2c3.6,6.6,7.2,13.3,11,19.8
			c2,3.5,1.2,8.1-3.3,9.5c-1,0-1.9,0-2.9,0c-1.6-0.6-3-1.5-3.8-3.1c-4.2-7.6-8.3-15.2-12.5-22.8c-0.4-0.8-0.8-1.6-0.8-2.5
			c0-2.6,0-5.1,0.1-7.7c0.2-3.8,0.2-7.5,0.3-11.3c0-0.4,0-0.8-0.5-1c-1-0.4-2.4,0-3.1,0.9c-3.8,5.3-7.5,10.6-11.3,15.9
			c-0.4,0.5-0.5,1.1-0.4,1.7c1,7.4,1.9,14.8,2.9,22.2c0.5,4-0.5,6-4.2,7.6C917.1,1540.2,916.1,1540.2,915,1540.2z M946.7,1477.9
			c2.3-2.8,4.4-5.3,6.5-7.8c0.4-0.5,0.5-0.8-0.1-1.2c-1.9-1.3-3.7-2.6-5.6-3.9c-0.5-0.3-0.8-0.4-0.8,0.4
			C946.7,1469.5,946.7,1473.5,946.7,1477.9z"/>
		<path class="st0" d="M933,1425.7c5.7,0,10.3,4.6,10.2,10.3c0,5.6-4.7,10.3-10.3,10.3c-5.6,0-10.3-4.7-10.3-10.4
			C922.7,1430.2,927.3,1425.7,933,1425.7z"/>
	</g>
	<g>
		<path class="st0" d="M1362.2,1806.4c0.4-1.7,1.1-3.3,2.3-4.6c4.7-5,13.3-3.3,15.8,3c0.7,1.7-0.1,2.1,0.7,3.4
			c2.7,4.8,16.4,4.7,22.4,4.7c0.3,0,1.3,0,2.3,0.6c0.3,0.2,0.6,0.4,0.9,0.7c1.1,1.2,1.4,2.7,0.7,4.2c-0.7,1.5-1.9,2.3-3.5,2.4
			c-1.2,0.1-2.2,0-2.3,0c-3.6-0.5-8.3,1.5-13.3,0.1c-4.3-1.1-5.5-3.8-6.6-3.1c-1.9,1.3-0.7,11.5-0.5,14.1c0,0.1,0,0.3-0.1,0.5
			c-0.1,0.1-0.2,0.1-0.4,0.1c-6,0-11.9,0-17.9,0c-0.1,0-0.2,0-0.3,0C1362.2,1823.9,1362.2,1815.2,1362.2,1806.4z"/>
		<path class="st0" d="M1380,1779.7c5.4,0,9.8,4.4,9.8,9.7c0,5.2-4.1,9.7-9.7,9.7c-5.9,0-9.8-4.7-9.8-9.7
			C1370.2,1784,1374.5,1779.7,1380,1779.7z"/>
		<path class="st0" d="M1403.5,1826.5c6.4,0,12.9,0,19.3,0c1,0,1,0,1,1c0,1,0,2,0,3c0,0.6-0.2,0.8-0.8,0.8c-0.9,0-1.7,0-2.6,0
			c-12,0-24,0-36.1,0c-0.4,0-0.7,0-1.1-0.1c-0.1,0-0.2-0.1-0.4-0.1c-1-0.4-1.4-1.4-1.1-2.9c0.2-0.9,0.8-1.5,1.8-1.6
			c0.3,0,0.5,0,0.8,0C1390.7,1826.5,1397.1,1826.5,1403.5,1826.5z"/>
		<path class="st0" d="M1404.5,1825.4c-4.5,0-9,0-13.5,0c-1.3,0-2.1-0.9-2-2c0.1-0.8,0.7-1.4,1.4-1.5c0.4-0.1,0.9-0.1,1.3-0.1
			c8.1,0,16.1,0,24.2,0c0.7,0,1-0.2,1.2-0.9c2.2-6.6,4.5-13.3,6.8-19.9c0.1-0.2,0.1-0.4,0.2-0.6c0.4-1,1.3-1.4,2.2-1.1
			c1,0.3,1.5,1.2,1.2,2.2c-0.2,0.8-0.5,1.5-0.8,2.2c-2.2,6.6-4.5,13.1-6.7,19.7c-0.2,0.5-0.3,1-0.7,1.3c-0.4,0.4-1,0.5-1.6,0.5
			C1413.4,1825.4,1408.9,1825.4,1404.5,1825.4z"/>
	</g>
	<g>
		<path class="st0" d="M1656.2,1608.8c2.5,0.7,4.8,1.9,6.5,4c2.6,3.4,3.3,7.2,1.5,11.2c-1.9,4.1-5.1,6.4-9.7,6.5
			c-4.7,0.1-8.6-2.4-10.4-6.7c-1.8-4.4-0.9-8.3,2.2-11.8c1.6-1.7,3.6-2.7,5.9-3.2C1653.5,1608.8,1654.8,1608.8,1656.2,1608.8z"/>
		<path class="st0" d="M1643.1,1692.6c0-6.4,0-12.9,0-19.3c0-9.4,0-18.8,0-28.2c0-0.9-0.1-1.6-1-2c-0.3-0.1-0.5-0.4-0.7-0.6
			c-7.8-7.8-15.6-15.6-23.4-23.4c-1.4-1.4-2.1-3-1.5-5c0.9-3.1,4.6-4.3,7.2-2.4c0.5,0.3,0.9,0.7,1.3,1.1
			c7.1,7.1,14.1,14.1,21.1,21.2c0.8,0.8,1.2,0.7,2.1,0.2c3.5-2.3,7.3-2.5,11.1-0.6c0.9,0.4,1.3,0.3,2-0.3
			c6.9-6.9,13.7-13.8,20.6-20.7c1.8-1.8,3.8-2.2,5.7-1.3c2.9,1.4,3.6,4.9,1.5,7.3c-0.3,0.3-0.6,0.7-1,1
			c-7.3,7.3-14.5,14.5-21.8,21.8c-0.6,0.6-1.1,1.2-0.8,2.2c0.1,0.4,0,0.8,0,1.3c0,7.7,0,15.4,0,23.1c0,14.8,0,29.6,0,44.3
			c0,2-0.5,3.8-2.4,4.9c-3,1.8-6.8-0.3-7-3.7c0-0.5,0-0.9,0-1.4c0-10,0-20,0-29.9c0-0.9-0.1-1.4-1.2-1.1c-0.3,0.1-0.7,0-1.1,0
			c-1.4-0.1-1.4-0.1-1.4,1.4c0,9.9,0,19.7,0,29.6c0,0.5,0,0.9,0,1.4c-0.2,2.6-2.3,4.4-4.8,4.4c-2.5,0-4.4-2-4.6-4.5
			c0-0.4,0-0.8,0-1.2C1643.1,1705.5,1643.1,1699,1643.1,1692.6z"/>
	</g>
	<path class="st1" d="M1759.1,1310.2h-23.2c0,0.2,0,0.4,0,0.7c0,3.9-1.6,7-4.7,9.4c-2.7,2.1-5.7,3.1-9.2,3.1
		c-6.4,0-10.7-3.1-13.1-9.3c-0.4-1.1-1-2.4-1.7-3.9h-33c-1.2,9.6-5.8,14.4-13.8,14.4c-3.6,0-6.8-1.1-9.5-3.2
		c-2.9-2.4-4.3-5.6-4.3-9.4c0-0.5,0-1.1,0-1.8h-30.8c-10.5,12.1-23.7,18.2-39.5,18.2c-14.7,0-27.3-4.3-37.7-13
		c-2-1.7-3.8-3.4-5.4-5.2h-46.6c-0.9,12.2-5.6,18.4-14.1,18.4c-3.5,0-6.6-1.1-9.3-3.4c-2.9-2.4-4.3-5.5-4.3-9.2c0-1.5,0-3.4,0.1-5.7
		h-45.5c-0.1,1.7-0.1,3.1-0.1,4.3c0,3.8-1.3,7-3.9,9.6c-2.6,2.6-5.8,3.9-9.7,3.9c-3.9,0-7.2-1.3-9.8-3.9c-2.6-2.6-3.9-5.8-3.9-9.6
		c0-1.2,0-2.7,0.1-4.3h-40.1c-4.8,4.2-8.6,7.7-11.4,10.6c-4.2,4.3-8.8,6.5-13.7,6.5c-3.6,0-6.9-1-9.8-2.9c-3.3-2.4-5-5.6-5-9.9
		c0-1.4,0-2.9,0-4.3h-14.7c0,0.5,0.1,1,0.1,1.5c0,3.6-1.4,6.5-4.2,8.7c-2.5,2-5.4,3-8.7,3c-5.9,0-10-2.9-12.1-8.8
		c-0.5-1.2-1.1-2.7-2-4.4h-24.8c-1,9.6-5.4,14.4-13,14.4c-3.5,0-6.4-1-8.8-3.1c-2.7-2.2-4-5.1-4-8.7c0-0.8,0-1.6,0-2.6h-23.9
		c-0.8,1.7-1.5,3.1-1.9,4.3c-2.1,5.9-6.2,8.9-12.1,8.9c-3.3,0-6.2-1-8.7-3c-2.8-2.3-4.2-5.2-4.2-8.7c0-0.5,0-1,0.1-1.5h-24.1
		c-10.5,12.1-23.7,18.2-39.5,18.2c-14.7,0-27.3-4.3-37.7-13c-2-1.7-3.8-3.4-5.4-5.2h-46.6c-0.9,12.2-5.6,18.4-14.1,18.4
		c-3.5,0-6.6-1.1-9.3-3.4c-2.9-2.4-4.3-5.5-4.3-9.2c0-1.5,0-3.4,0.1-5.7h-49.7c-0.5,0.6-0.9,1.2-1.4,1.8
		c-8.7,10.7-20.4,16.1-35.1,16.1c-5.6,0-11.5-0.7-17.7-2.1l-0.1,42.3c0,4-1.3,7.3-3.8,10c-2.5,2.6-5.8,3.9-9.7,3.9s-7.1-1.3-9.7-3.9
		c-2.5-2.6-3.8-5.9-3.8-10c0-3.3,0.1-16.1,0.2-38.7c0.1-7,0.1-13.5,0.1-19.4h-48.7c-7.9,17.2-13.9,31.5-18.2,43
		c-1.4,4.3-3.5,10.6-6.4,19.1c-2.3,6.5-6.5,9.7-12.5,9.7c-3.7,0-7-1.3-9.8-3.8c-2.8-2.6-4.2-5.8-4.2-9.6c0-6.4,6.9-25.5,20.7-57.1
		c-0.2-0.4-0.4-0.8-0.6-1.2h-114c0,2.4,0,4.8,0,7.2c0,4-1.3,7.4-4,10.1c-2.7,2.7-5.9,4.1-9.7,4.1c-3.8,0-7-1.4-9.6-4.1
		c-2.6-2.7-4-6.1-4-10.1c0-2.4,0-4.8,0-7.2h-21.2c-34.7,0-62.8,28.1-62.8,62.8v622c0,34.7,28.1,62.8,62.8,62.8h1148.9
		c34.7,0,62.8-28.1,62.8-62.8v-622C1821.9,1338.3,1793.8,1310.2,1759.1,1310.2z M783.3,1971.2c0,12.3-9.9,22.2-22.2,22.2H658.4
		c-12.3,0-22.2-9.9-22.2-22.2v-63c0-12.3,9.9-22.2,22.2-22.2h102.6c12.3,0,22.2,9.9,22.2,22.2V1971.2z M783.3,1807.3
		c0,12.3-9.9,22.2-22.2,22.2H658.4c-12.3,0-22.2-9.9-22.2-22.2v-63c0-12.3,9.9-22.2,22.2-22.2h102.6c12.3,0,22.2,9.9,22.2,22.2
		V1807.3z M783.3,1646.5c0,12.3-9.9,22.2-22.2,22.2H658.4c-12.3,0-22.2-9.9-22.2-22.2v-63c0-12.3,9.9-22.2,22.2-22.2h102.6
		c12.3,0,22.2,9.9,22.2,22.2V1646.5z M783.3,1467.2c0,12.3-9.9,22.2-22.2,22.2H658.4c-12.3,0-22.2-9.9-22.2-22.2v-63
		c0-12.3,9.9-22.2,22.2-22.2h102.6c12.3,0,22.2,9.9,22.2,22.2V1467.2z M1022.2,1971.2c0,12.3-9.9,22.2-22.2,22.2H897.4
		c-12.3,0-22.2-9.9-22.2-22.2v-63c0-12.3,9.9-22.2,22.2-22.2H1000c12.3,0,22.2,9.9,22.2,22.2V1971.2z M1022.2,1807.3
		c0,12.3-9.9,22.2-22.2,22.2H897.4c-12.3,0-22.2-9.9-22.2-22.2v-63c0-12.3,9.9-22.2,22.2-22.2H1000c12.3,0,22.2,9.9,22.2,22.2
		V1807.3z M1022.2,1646.5c0,12.3-9.9,22.2-22.2,22.2H897.4c-12.3,0-22.2-9.9-22.2-22.2v-63c0-12.3,9.9-22.2,22.2-22.2H1000
		c12.3,0,22.2,9.9,22.2,22.2V1646.5z M1022.2,1467.2c0,12.3-9.9,22.2-22.2,22.2H897.4c-12.3,0-22.2-9.9-22.2-22.2v-63
		c0-12.3,9.9-22.2,22.2-22.2H1000c12.3,0,22.2,9.9,22.2,22.2V1467.2z M1250.5,1971.2c0,12.3-9.9,22.2-22.2,22.2h-102.6
		c-12.3,0-22.2-9.9-22.2-22.2v-63c0-12.3,9.9-22.2,22.2-22.2h102.6c12.3,0,22.2,9.9,22.2,22.2V1971.2z M1250.5,1807.3
		c0,12.3-9.9,22.2-22.2,22.2h-102.6c-12.3,0-22.2-9.9-22.2-22.2v-63c0-12.3,9.9-22.2,22.2-22.2h102.6c12.3,0,22.2,9.9,22.2,22.2
		V1807.3z M1250.5,1646.5c0,12.3-9.9,22.2-22.2,22.2h-102.6c-12.3,0-22.2-9.9-22.2-22.2v-63c0-12.3,9.9-22.2,22.2-22.2h102.6
		c12.3,0,22.2,9.9,22.2,22.2V1646.5z M1250.5,1467.2c0,12.3-9.9,22.2-22.2,22.2h-102.6c-12.3,0-22.2-9.9-22.2-22.2v-63
		c0-12.3,9.9-22.2,22.2-22.2h102.6c12.3,0,22.2,9.9,22.2,22.2V1467.2z M1495.6,1971.2c0,12.3-9.9,22.2-22.2,22.2h-102.6
		c-12.3,0-22.2-9.9-22.2-22.2v-63c0-12.3,9.9-22.2,22.2-22.2h102.6c12.3,0,22.2,9.9,22.2,22.2V1971.2z M1495.6,1807.3
		c0,12.3-9.9,22.2-22.2,22.2h-102.6c-12.3,0-22.2-9.9-22.2-22.2v-63c0-12.3,9.9-22.2,22.2-22.2h102.6c12.3,0,22.2,9.9,22.2,22.2
		V1807.3z M1495.6,1646.5c0,12.3-9.9,22.2-22.2,22.2h-102.6c-12.3,0-22.2-9.9-22.2-22.2v-63c0-12.3,9.9-22.2,22.2-22.2h102.6
		c12.3,0,22.2,9.9,22.2,22.2V1646.5z M1495.6,1467.2c0,12.3-9.9,22.2-22.2,22.2h-102.6c-12.3,0-22.2-9.9-22.2-22.2v-63
		c0-12.3,9.9-22.2,22.2-22.2h102.6c12.3,0,22.2,9.9,22.2,22.2V1467.2z M1725.4,1971.2c0,12.3-9.9,22.2-22.2,22.2h-102.6
		c-12.3,0-22.2-9.9-22.2-22.2v-63c0-12.3,9.9-22.2,22.2-22.2h102.6c12.3,0,22.2,9.9,22.2,22.2V1971.2z M1725.4,1807.3
		c0,12.3-9.9,22.2-22.2,22.2h-102.6c-12.3,0-22.2-9.9-22.2-22.2v-63c0-12.3,9.9-22.2,22.2-22.2h102.6c12.3,0,22.2,9.9,22.2,22.2
		V1807.3z M1725.4,1646.5c0,12.3-9.9,22.2-22.2,22.2h-102.6c-12.3,0-22.2-9.9-22.2-22.2v-63c0-12.3,9.9-22.2,22.2-22.2h102.6
		c12.3,0,22.2,9.9,22.2,22.2V1646.5z M1725.4,1467.2c0,12.3-9.9,22.2-22.2,22.2h-102.6c-12.3,0-22.2-9.9-22.2-22.2v-63
		c0-12.3,9.9-22.2,22.2-22.2h102.6c12.3,0,22.2,9.9,22.2,22.2V1467.2z"/>
	<g>
		<path class="st2" d="M721.4,1194.1c-2.6,2.6-5.8,4-9.5,4c-1.2,0-2.7-0.2-4.3-0.7c-9.4-2.7-19.8-4-31.2-4c-2.5,0-6.7,0.1-12.4,0.3
			c-5.4,0.2-9.5,0.3-12.4,0.2h-3.4c0.6,10.6,1.3,18.6,1.9,23.9c1.8,28.1,2.6,60,2.6,95.9c0,3.8-1.3,6.9-4,9.5
			c-2.7,2.6-5.9,3.9-9.7,3.9c-3.8,0-7-1.3-9.6-3.9c-2.6-2.6-4-5.7-4-9.5c0-35.2-0.8-66.7-2.5-94.3c-1.3-21.3-2-31.6-2-31
			c0-14,8-21,23.9-21c3,0,7.5,0,13.4-0.1s10.4-0.1,13.3-0.1c14.8,0,25.3,0.5,31.5,1.6c14.7,2.5,22.1,7.8,22.1,15.9
			C725.3,1188.3,724,1191.5,721.4,1194.1z"/>
		<path class="st2" d="M832.2,1235.5c-7.1,14.8-18.3,38-33.7,69.6c-8.3,17-14.7,31.1-19,42.3c-1.4,4-3.5,10-6.4,18
			c-2.3,6.1-6.5,9.2-12.5,9.2c-3.7,0-7-1.2-9.8-3.6c-2.8-2.4-4.2-5.4-4.2-9.1c0-6.1,6.9-24,20.7-53.8c-7.2-14.1-18.5-34.9-34.1-62.4
			c-1.6-2.5-3.2-5-4.8-7.5c-1.8-3-2.6-5.7-2.6-8.2c0-3.5,1.4-6.6,4.2-9.3c2.8-2.7,6-4,9.7-4c4.3,0,7.6,1.6,10.1,4.8
			c9.2,12.3,20,30.8,32.3,55.6c7-15.4,11.2-24.7,12.7-27.9c4.6-9.7,9.1-18.2,13.6-25.6c2.8-4.7,6.6-7,11.5-7c3.6,0,6.9,1.2,9.8,3.7
			c2.9,2.5,4.3,5.5,4.3,9.1C833.9,1231.1,833.3,1233.2,832.2,1235.5z"/>
		<path class="st2" d="M890.8,1323.8c-5.6,0-11.5-0.7-17.7-2l-0.1,39.8c0,3.8-1.3,6.9-3.8,9.4c-2.5,2.5-5.8,3.7-9.7,3.7
			s-7.1-1.2-9.7-3.7c-2.5-2.5-3.8-5.6-3.8-9.4c0-3.1,0.1-15.2,0.2-36.4c0.1-15.8,0.1-28.6,0-38.6c-0.2-14.1-0.7-26.2-1.4-36.3
			c-1-14-1.5-20.4-1.5-19.2c0-5.4,1.2-10,3.6-13.9c2.8-4.4,6.6-6.5,11.3-6.5c3.6,0,6.7,1.2,9.2,3.7c2.5,2.5,3.7,5.4,3.7,8.9l-0.1,1
			c4.4-2.5,8.7-4.3,13.1-5.5c4.4-1.2,8.8-1.8,13.2-1.8c15,0,25.9,6.3,32.8,19c5.1,9.6,7.7,22,7.7,37.2c0,14.3-4.1,26.1-12.2,35.4
			C917.1,1318.7,905.4,1323.8,890.8,1323.8z M897.5,1243c-4.1,0-8.3,1-12.5,2.9c-4.2,1.9-8.5,4.8-12.8,8.6
			c0.8,13.4,1.2,26.9,1.2,40.3c5.8,1.9,11.6,2.8,17.4,2.8c6.7,0,11.8-2.4,15.4-7.1c3.3-4.3,4.9-10.1,4.9-17.4
			c0-8.8-0.4-14.9-1.2-18.3C908,1247,903.9,1243,897.5,1243z"/>
		<path class="st2" d="M1021.6,1240.8c-1.8,0-4.4-0.1-7.9-0.2c-3.5-0.2-6.1-0.2-7.9-0.2c-1,0-2.1,0.1-3.2,0.2
			c1.4,29.2,2.1,49.9,2.1,61.9c0,14.6-4.8,21.9-14.3,21.9c-3.5,0-6.6-1.1-9.3-3.2c-2.9-2.3-4.3-5.2-4.3-8.7c0-2.3,0.1-5.7,0.3-10.4
			c0.2-4.7,0.3-8.1,0.3-10.4c0-8.9-0.6-25.8-1.8-50.7c-1.2,0-4.1,0-8.7,0c-6.6,0-11.5-0.6-14.6-1.9c-4.9-2-7.3-5.7-7.3-11.2
			c0-3.5,1.2-6.6,3.7-9.1c2.4-2.6,5.6-3.9,9.5-3.9h57.7c12.7,0,19,4.4,19,13.1c0,3.6-1.3,6.7-3.8,9.2
			C1028.8,1239.5,1025.5,1240.8,1021.6,1240.8z"/>
		<path class="st2" d="M1094.1,1324.1c-14.7,0-27.3-4.1-37.7-12.2c-11.1-8.8-16.7-20.1-16.7-34.1c0-15.8,5.1-30.2,15.4-43.3
			c11.8-15,26.8-22.6,45-22.6c34.9,0,52.3,15.4,52.3,46.3c0,15.8-4.7,30.1-14.2,43C1127.1,1316.4,1112.4,1324.1,1094.1,1324.1z
			 M1100.2,1237.6c-8.7,0-16.2,4.2-22.7,12.5s-9.7,17.5-9.7,27.7c0,6.1,2.5,11.1,7.4,14.9c4.9,3.8,11.2,5.8,18.9,5.8
			c8.4,0,15.6-4.2,21.6-12.5c5.8-8,8.7-17.3,8.7-27.7c0-8.1-1.7-13.6-5-16.4C1116,1239,1109.6,1237.6,1100.2,1237.6z"/>
		<path class="st2" d="M1209.2,1274.1c-2.9,1.2-7.8,6.8-14.7,17c-6.3,9.2-10.3,15.9-11.8,19.8c-2.1,5.6-6.2,8.4-12.1,8.4
			c-3.3,0-6.2-0.9-8.7-2.8c-2.8-2.1-4.2-4.9-4.2-8.2c0-5.3,3.4-13,10.2-22.9c6.4-9.4,13.1-16.8,19.8-22.3c-2.4-2.5-4.8-6.4-7.2-11.6
			c-2.7-5.9-4.9-9.9-6.3-12c-1.7-2.3-3.2-3.4-4.6-3.4c-2.8,0-5.1-1-6.9-2.9c-1.8-1.9-2.7-4.3-2.7-7.1c0-2.6,1.9-4.9,5.7-7
			c3.3-1.8,6.5-2.7,9.5-2.7c6.3,0,11.5,2.7,15.5,8.2c1.1,1.4,3.9,6.6,8.3,15.6c1.4,2.8,2.5,4.6,3.4,5.5c1.3,1.2,3.4,2,6.2,2.3
			c-0.4-7.7-0.6-14-0.6-18.8c0-9.8,4.3-14.7,13-14.7c3.5,0,6.5,1.1,9,3.2c2.5,2.1,3.8,4.8,3.8,8.1c0,4.3,0.2,11.8,0.5,22.6
			c4.1-0.5,7.2-2.2,9.2-5.3c1.6-3.3,3.2-6.5,4.8-9.7c2.8-5.5,5.3-9.4,7.4-11.5c3.5-3.6,7.9-5.4,13.2-5.4c2.9,0,6.1,0.9,9.4,2.7
			c3.8,2.1,5.7,4.4,5.7,7c0,2.8-0.9,5.2-2.7,7.1c-1.8,2-4.1,2.9-6.9,2.9c-2,0-4.7,3.1-8,9.3c-1.8,3.8-3.7,7.7-5.6,11.4
			c-1.4,2.5-3,4.6-4.6,6.2c6.8,5.5,13.4,12.9,19.8,22.3c6.8,10,10.2,17.6,10.2,22.9c0,3.4-1.4,6.1-4.2,8.2c-2.5,1.9-5.4,2.8-8.7,2.8
			c-5.9,0-10-2.8-12.1-8.3c-1.6-4-5.5-10.5-11.7-19.7c-6.9-10-11.8-15.7-14.8-17.1c0,1.4,0,4.5-0.1,9.4c-0.1,3.8-0.1,7-0.1,9.4
			c0,0.8,0,2.3,0.1,4.4c0.1,2.1,0.1,3.7,0.1,4.9c0,12.2-4.4,18.3-13.3,18.3c-3.5,0-6.4-1-8.8-2.9c-2.7-2.1-4-4.8-4-8.2
			c0-2.9,0.1-7.5,0.4-13.7c0.3-6.2,0.4-10.8,0.4-13.7C1209.3,1279.2,1209.3,1276.6,1209.2,1274.1z"/>
		<path class="st2" d="M1407.7,1311c0,3.6-1.3,6.6-3.9,9c-2.6,2.4-5.8,3.7-9.7,3.7c-3.9,0-7.2-1.2-9.8-3.7c-2.6-2.4-3.9-5.5-3.9-9
			c0-3.9,0.2-9.8,0.6-17.6c0.4-7.8,0.6-13.7,0.6-17.6c0-3.6-0.2-7.4-0.5-11.3c-12.1,16.3-23,28.4-32.6,36
			c-8.7,6.9-15.2,12.4-19.4,16.5c-4.2,4.1-8.8,6.1-13.7,6.1c-3.6,0-6.9-0.9-9.8-2.7c-3.3-2.2-5-5.3-5-9.3c0-17.3-0.3-35.3-1-54
			c-0.7-19.5-1.1-29-1.1-28.6c0-3.7,1.3-6.8,3.8-9.2s5.8-3.7,9.9-3.7c7.3,0,11.8,3.8,13.4,11.3c0.3,1,0.6,7.4,0.9,18.9l1,37.2
			c8.4-7.6,17.3-16.9,26.9-28c2.2-2.6,10.3-12.6,24.3-30c4.6-5.8,9.8-8.7,15.4-8.7c3.8,0,7.1,1.2,9.7,3.7c2.6,2.4,3.9,5.5,3.9,9
			c0,6.8,0.1,16.9,0.4,30.5c0.3,13.5,0.4,23.7,0.4,30.5c0,2.3-0.1,5.9-0.4,10.5C1407.8,1305.1,1407.7,1308.6,1407.7,1311z"/>
		<path class="st2" d="M1497.9,1240.8c-1.8,0-4.4-0.1-7.9-0.2c-3.5-0.2-6.1-0.2-7.9-0.2c-1,0-2.1,0.1-3.2,0.2
			c1.4,29.2,2.1,49.9,2.1,61.9c0,14.6-4.8,21.9-14.3,21.9c-3.5,0-6.6-1.1-9.3-3.2c-2.9-2.3-4.3-5.2-4.3-8.7c0-2.3,0.1-5.7,0.3-10.4
			c0.2-4.7,0.3-8.1,0.3-10.4c0-8.9-0.6-25.8-1.8-50.7c-1.2,0-4.1,0-8.7,0c-6.6,0-11.5-0.6-14.6-1.9c-4.9-2-7.3-5.7-7.3-11.2
			c0-3.5,1.2-6.6,3.7-9.1c2.4-2.6,5.6-3.9,9.5-3.9h57.7c12.7,0,19,4.4,19,13.1c0,3.6-1.3,6.7-3.8,9.2
			C1505.1,1239.5,1501.9,1240.8,1497.9,1240.8z"/>
		<path class="st2" d="M1570.5,1324.1c-14.7,0-27.3-4.1-37.7-12.2c-11.1-8.8-16.7-20.1-16.7-34.1c0-15.8,5.1-30.2,15.4-43.3
			c11.8-15,26.8-22.6,45-22.6c34.9,0,52.3,15.4,52.3,46.3c0,15.8-4.7,30.1-14.2,43C1603.5,1316.4,1588.8,1324.1,1570.5,1324.1z
			 M1576.5,1237.6c-8.7,0-16.2,4.2-22.7,12.5s-9.7,17.5-9.7,27.7c0,6.1,2.5,11.1,7.4,14.9c4.9,3.8,11.2,5.8,18.9,5.8
			c8.4,0,15.6-4.2,21.6-12.5c5.8-8,8.7-17.3,8.7-27.7c0-8.1-1.7-13.6-5-16.4C1592.4,1239,1586,1237.6,1576.5,1237.6z"/>
		<path class="st2" d="M1716.2,1319.4c-6.4,0-10.7-2.9-13.1-8.8c-1.6-4.2-5.8-11-12.5-20.4c-7.2-10.2-11.9-15.3-14.2-15.3
			c-0.5-0.1-3.1-0.1-7.8-0.1l-0.1,17.8c0,0.8,0,2.3,0.1,4.3c0.1,2,0.1,3.6,0.1,4.7c0,12.7-4.7,19-14.2,19c-3.6,0-6.8-1-9.5-3
			c-2.9-2.3-4.3-5.2-4.3-8.9c0-2.9,0.1-7.3,0.4-13.4c0.3-6.1,0.4-10.6,0.4-13.5c0-5.8-0.2-14.5-0.7-26c-0.5-11.5-0.7-20.1-0.7-25.9
			c0-10.3,4.7-15.4,14-15.4c3.7,0,6.9,1.1,9.5,3.2c2.8,2.3,4.2,5.3,4.2,8.8c0,4.8,0.2,12.5,0.5,23.2c7,0.1,11.8-1.4,14.5-4.3
			c0.5-0.5,2.7-4.6,6.7-12.3c5.7-11.1,13.1-16.7,22.2-16.7c3,0,6.2,0.9,9.8,2.7c4.2,2.1,6.3,4.8,6.3,7.8c0,3-1,5.5-3,7.6
			c-2,2.1-4.5,3.1-7.6,3.1c-1.7,0-4.1,3-7.3,9c-1.7,3.5-3.4,7-5.2,10.5c-1.4,2.3-2.8,4.3-4.3,6c6.8,5.6,13.3,12.9,19.5,22
			c6.7,9.6,10.1,17.1,10.1,22.5c0,3.6-1.6,6.6-4.7,8.9C1722.7,1318.4,1719.6,1319.4,1716.2,1319.4z"/>
	</g>
	<g>
		<path class="st0" d="M575.3,1976.7c3,0.7,5.7,2.2,7.6,4.7c3,4.1,3.2,9.6,0.4,13.8c-2.8,4.2-7.9,6.2-12.7,5.1
			c-4.9-1.1-8.6-5.3-9.2-10.3c-0.7-6,3-11.5,8.9-13c0.3-0.1,0.7-0.2,1-0.3C572.5,1976.7,573.9,1976.7,575.3,1976.7z"/>
		<path class="st0" d="M562,2021.7c-1.7,2.3-3.3,4.7-4.7,7.2c-1.1,2-2.1,4-3,6.1c-0.7,1.6-1.6,2.8-3.4,3.3c-0.6,0.2-0.8,0.7-1.1,1.2
			c-4.3,7.5-8.6,15.1-12.9,22.6c-2.4,4.2-4.8,8.4-7.2,12.6c-0.3,0.6-0.4,1-0.1,1.7c1,2,0.5,4.1-1,5.5c-1.6,1.4-3.8,1.6-5.6,0.5
			c-1.8-1.1-2.6-3.2-1.9-5.3c0.2-0.7,0-1-0.6-1.3c-1.5-0.8-3-1.6-4.4-2.5c-1.9-1.1-2.2-2-1.1-3.9c3.3-5.9,6.7-11.9,10.1-17.8
			c1.4-2.6,2.9-5.1,4.3-7.7c1-1.8,2.1-2.1,3.9-1.1c2.1,1.2,4.3,2.4,6.4,3.6c0.6,0.4,0.9,0.3,1.3-0.3c1.6-2.8,3.2-5.7,4.8-8.5
			c0.2-0.4,0.3-0.8,0-1.2c-1.1-1.6-1-3.2-0.3-4.9c2.6-6.2,6.2-11.8,10.2-17.1c2.6-3.4,5.3-6.6,8.3-9.5c4.6-4.6,10.8-5,15.9-1
			c2.6,2,5,4.3,7.6,6.3c3.9,3.1,8,5.7,12.8,7c1.2,0.3,2.4,0.4,3.5,0.7c2.2,0.6,3.7,2.8,3.4,5c-0.3,2.5-2.3,4.3-4.7,4.3
			c-1.4,0-2.7-0.3-4-0.5c-4.9-0.9-9.5-2.5-13.5-5.5c-0.2-0.1-0.4-0.4-0.6-0.2c-0.1,0.1-0.1,0.5-0.1,0.7c0.2,2.6,0.5,5.3,0.7,7.9
			c0.2,2.3,0.5,4.7,0.5,7c0,1.6-0.4,3.2-1.3,4.5c-0.4,0.6-0.4,1.1,0,1.7c6.1,10.1,11.3,20.7,16.1,31.5c1.7,3.9,0.1,7.7-3.8,8.7
			c-2.8,0.8-5.6-0.6-6.9-3.4c-1.3-2.8-2.6-5.6-3.9-8.4c-3.2-6.8-6.6-13.5-10.4-20c-0.6-1-0.6-1-1.2,0c-3.9,7-7.5,14.2-11.2,21.3
			c-1.3,2.4-2.6,4.9-3.9,7.3c-1.6,2.7-4.4,3.9-7.1,3.1c-3.6-1.1-5.3-5.1-3.6-8.4c1.8-3.6,3.9-7,5.8-10.5c3.7-6.7,7.4-13.4,11.1-20.1
			c0.4-0.7,0.5-1.3-0.1-2c-1.1-1.4-1.4-3-1.6-4.8c-0.4-5-0.9-10-1.3-15.1C562.2,2021.9,562.1,2021.8,562,2021.7z M526.9,2078.6
			c0-0.8-0.7-1.5-1.6-1.5c-0.8,0-1.5,0.7-1.4,1.6c0,0.8,0.7,1.4,1.5,1.4C526.3,2080.1,526.9,2079.4,526.9,2078.6z"/>
	</g>
	<g>
		<path class="st0" d="M1317.1,1996c1.5,0.5,3,1,4.2,2.1c2.9,2.6,4.1,5.8,3,9.6c-1.1,4-3.8,6.3-7.9,6.9c-4.8,0.7-9.3-2.6-10.3-7.5
			c-1-4.5,1.8-9.3,6.4-10.8c0.4-0.1,0.8-0.3,1.1-0.4C1314.7,1996,1315.9,1996,1317.1,1996z"/>
		<path class="st0" d="M1362.2,2069.3c-5.5-0.1-10-2.1-14.1-5.3c-2.1-1.6-3.9-3.5-5.5-5.5c-0.5-0.6-0.9-0.6-1.6-0.4
			c-6.4,2.3-12,5.8-17.2,10.1c-1.1,0.9-1.9,1.9-2.5,3.2c-2.4,5.1-4.9,10.2-7.4,15.2c-2.1,4.3-7.2,4.9-10.2,1.3
			c-1.3-1.5-1.6-3.3-0.9-5.2c0.9-2.2,2-4.4,3.1-6.6c1.9-3.9,3.8-7.7,5.6-11.6c0.9-2,2.3-3.3,3.9-4.6c4.2-3.5,8.6-6.6,13.4-9.1
			c0.6-0.3,0.7-0.5,0.4-1.1c-3.3-6.2-6.7-12.4-10.1-18.6c-0.4-0.6-0.7-0.7-1.4-0.6c-10.3,2.7-19.2,0-26.8-7.2
			c-1.6-1.5-2.9-3.1-4.2-4.8c-1.3-1.8-2.1-3.7-0.9-5.8c1.2-2.2,3.2-3.2,5.7-3.2c2.1,0,3.7,1,4.9,2.6c1.1,1.5,2.3,2.9,3.8,4.1
			c4.8,4.1,10.2,4.7,16,2.6c1.3-0.5,2.5-1.2,3.8-1.7c3.4-1.4,6.3-3.8,9.7-5.2c10.5-4.3,20.2-3.3,29.2,3.8c2.6,2.1,4.8,4.5,6.7,7.3
			c2,2.9,1.2,6.1-2,7.7c-3,1.5-6,0.9-8.1-1.9c-1.9-2.5-4.1-4.8-7-6.3c-3.6-1.8-7.3-1.9-11.1-0.9c-0.8,0.2-0.6,0.5-0.3,1
			c3.4,6,6.8,12.1,9.9,18.3c1.4,2.9,2.7,5.8,4.6,8.4c1.2,1.7,2.5,3.3,4.1,4.6c3.4,2.8,7.1,3.2,11.1,1.3c0.6-0.3,1.1-0.5,1.6-0.8
			c4.3-2.3,8.3,0.8,9.1,4.6c0.5,2.6-0.3,4.8-2.5,6.2C1371,2067.8,1366.7,2069.2,1362.2,2069.3z"/>
	</g>
	<circle class="st0" cx="1237.7" cy="2061.5" r="9.2"/>
</g>
<g>
	<g>
		<path class="st0" d="M2475.9,908.5c-6.5,0-16.6-1.1-30.3-3.3c-13.7-2.2-23.5-3.3-29.5-3.3l-114.8-0.4c-9.9,0-24.9,1.2-44.9,3.7
			c-20.1,2.5-35.2,3.7-45.3,3.7c-2.9,0-7-0.5-12.5-1.6s-9.6-1.6-12.5-1.6c-23.4,0-39.3-9.5-47.7-28.5c-5.2-12-7.8-30.5-7.8-55.5
			c0-48.7,10.8-89.5,32.4-122.3c16.7-25.3,43.6-50.5,80.9-75.8c35.2-23.2,70.2-46.2,105.1-69.1c41.1-29.9,61.7-63.9,61.7-102
			c0-9.9-8.2-19.7-24.6-29.5s-32.4-14.6-48-14.6c-27.6,0-56.8,12.3-87.7,36.9s-52,36.9-63.5,36.9c-13.8,0-25.9-3.4-36.3-10.2
			c-13-8.3-19.5-19.9-19.5-34.8c0-15.9,6.5-29.6,19.5-41c31.5-27.9,59-48.2,82.4-60.9c33.8-18.5,68.9-27.7,105.1-27.7
			c45,0,85.7,11.9,121.9,35.5c41.4,27.1,62.1,62.5,62.1,106.2c0,44.3-10.2,81.9-30.5,112.9c-15.9,24.7-41,48.8-75.4,72.3
			c-32.6,20.6-65.1,41-97.7,61.3c-49.5,32.3-76,69.1-79.7,110.5c14.3-1.8,35.4-3.9,63.3-6.2c55.5-2.9,95.2-4.3,119.1-4.3
			c22.4,0,44.5,4.8,66.4,14.5c27.1,12,40.6,27.3,40.6,46.1c0,13.5-4.8,25.4-14.5,35.5C2503.6,903,2491,908.5,2475.9,908.5z"/>
	</g>
	<g>
		<path class="st0" d="M2958.6,391.2c-3.6-1.3-4.3-4.3-4.6-7.6c-0.9-7.9-2-15.7-3-23.6c-0.2-1.9,0.2-3.5,1.3-5
			c3.8-5.4,7.6-10.7,11.4-16.1c0.5-0.8,0.8-1.5,0.8-2.5c0-6.5,0-13,0-19.5c0-2.8,0.1-5.5,0.1-8.3c0-0.9-0.3-1.6-1.1-2.1
			c-4.2-2.9-8.3-5.9-12.5-8.8c-1.4-1-2.3-2.2-2.7-3.8c-1.9-6.6-3.8-13.1-5.6-19.7c-0.8-2.9,0.6-5.6,3.4-6.4c2.7-0.8,5.3,0.7,6.1,3.6
			c1.7,5.7,3.3,11.3,4.9,17c0.3,1.1,0.9,2,1.9,2.7c4.3,3,8.5,6,12.8,9c0.8,0.6,1.7,0.8,2.7,0.8c2.8,0,5.7,0,8.5,0
			c2.5,0,4.9,0.7,6.9,2.1c5.9,4.1,11.7,8.2,17.5,12.3c2.6,1.8,3,4.9,1,7.4c-3.8,4.6-7.6,9.1-11.4,13.7c-1.5,1.8-3.4,2.4-5.6,1.6
			c-0.9-0.3-1,0-1,0.8c0,3.6,0,7.1-0.2,10.7c-0.2,3.4-0.2,6.7-0.3,10.1c0,0.8,0.1,1.5,0.5,2.2c3.6,6.6,7.2,13.3,11,19.8
			c2,3.5,1.2,8.1-3.3,9.5c-1,0-1.9,0-2.9,0c-1.6-0.6-3-1.5-3.8-3.1c-4.2-7.6-8.3-15.2-12.5-22.8c-0.4-0.8-0.8-1.6-0.8-2.5
			c0-2.6,0-5.1,0.1-7.7c0.2-3.8,0.2-7.5,0.3-11.3c0-0.4,0-0.8-0.5-1c-1-0.4-2.4,0-3.1,0.9c-3.8,5.3-7.5,10.6-11.3,15.9
			c-0.4,0.5-0.5,1.1-0.4,1.7c1,7.4,1.9,14.8,2.9,22.2c0.5,4-0.5,6-4.2,7.6C2960.7,391.2,2959.7,391.2,2958.6,391.2z M2990.2,329
			c2.3-2.8,4.4-5.3,6.5-7.8c0.4-0.5,0.5-0.8-0.1-1.2c-1.9-1.3-3.7-2.6-5.6-3.9c-0.5-0.3-0.8-0.4-0.8,0.4
			C2990.3,320.6,2990.2,324.6,2990.2,329z"/>
		<path class="st0" d="M2976.6,276.8c5.7,0,10.3,4.6,10.2,10.3c0,5.6-4.7,10.3-10.3,10.3c-5.6,0-10.3-4.7-10.3-10.4
			C2966.3,281.3,2970.9,276.8,2976.6,276.8z"/>
	</g>
	<g>
		<path class="st0" d="M3405.8,657.5c0.4-1.7,1.1-3.3,2.3-4.6c4.7-5,13.3-3.3,15.8,3c0.7,1.7-0.1,2.1,0.7,3.4
			c2.7,4.8,16.4,4.7,22.4,4.7c0.3,0,1.3,0,2.3,0.6c0.3,0.2,0.6,0.4,0.9,0.7c1.1,1.2,1.4,2.7,0.7,4.2c-0.7,1.5-1.9,2.3-3.5,2.4
			c-1.2,0.1-2.2,0-2.3,0c-3.6-0.5-8.3,1.5-13.3,0.1c-4.3-1.1-5.5-3.8-6.6-3.1c-1.9,1.3-0.7,11.5-0.5,14.1c0,0.1,0,0.3-0.1,0.5
			c-0.1,0.1-0.2,0.1-0.4,0.1c-6,0-11.9,0-17.9,0c-0.1,0-0.2,0-0.3,0C3405.8,675,3405.8,666.2,3405.8,657.5z"/>
		<path class="st0" d="M3423.5,630.7c5.4,0,9.8,4.4,9.8,9.7c0,5.2-4.1,9.7-9.7,9.7c-5.9,0-9.8-4.7-9.8-9.7
			C3413.8,635,3418.1,630.7,3423.5,630.7z"/>
		<path class="st0" d="M3447,677.5c6.4,0,12.9,0,19.3,0c1,0,1,0,1,1c0,1,0,2,0,3c0,0.6-0.2,0.8-0.8,0.8c-0.9,0-1.7,0-2.6,0
			c-12,0-24,0-36.1,0c-0.4,0-0.7,0-1.1-0.1c-0.1,0-0.2-0.1-0.4-0.1c-1-0.4-1.4-1.4-1.1-2.9c0.2-0.9,0.8-1.5,1.8-1.6
			c0.3,0,0.5,0,0.8,0C3434.3,677.5,3440.7,677.5,3447,677.5z"/>
		<path class="st0" d="M3448,676.5c-4.5,0-9,0-13.5,0c-1.3,0-2.1-0.9-2-2c0.1-0.8,0.7-1.4,1.4-1.5c0.4-0.1,0.9-0.1,1.3-0.1
			c8.1,0,16.1,0,24.2,0c0.7,0,1-0.2,1.2-0.9c2.2-6.6,4.5-13.3,6.8-19.9c0.1-0.2,0.1-0.4,0.2-0.6c0.4-1,1.3-1.4,2.2-1.1
			c1,0.3,1.5,1.2,1.2,2.2c-0.2,0.8-0.5,1.5-0.8,2.2c-2.2,6.6-4.5,13.1-6.7,19.7c-0.2,0.5-0.3,1-0.7,1.3c-0.4,0.4-1,0.5-1.6,0.5
			C3457,676.5,3452.5,676.5,3448,676.5z"/>
	</g>
	<g>
		<path class="st0" d="M3699.7,459.9c2.5,0.7,4.8,1.9,6.5,4c2.6,3.4,3.3,7.2,1.5,11.2c-1.9,4.1-5.1,6.4-9.7,6.5
			c-4.7,0.1-8.6-2.4-10.4-6.7c-1.8-4.4-0.9-8.3,2.2-11.8c1.6-1.7,3.6-2.7,5.9-3.2C3697,459.9,3698.4,459.9,3699.7,459.9z"/>
		<path class="st0" d="M3686.7,543.7c0-6.4,0-12.9,0-19.3c0-9.4,0-18.8,0-28.2c0-0.9-0.1-1.6-1-2c-0.3-0.1-0.5-0.4-0.7-0.6
			c-7.8-7.8-15.6-15.6-23.4-23.4c-1.4-1.4-2.1-3-1.5-5c0.9-3.1,4.6-4.3,7.2-2.4c0.5,0.3,0.9,0.7,1.3,1.1
			c7.1,7.1,14.1,14.1,21.1,21.2c0.8,0.8,1.2,0.7,2.1,0.2c3.5-2.3,7.3-2.5,11.1-0.6c0.9,0.4,1.3,0.3,2-0.3
			c6.9-6.9,13.7-13.8,20.6-20.7c1.8-1.8,3.8-2.2,5.7-1.3c2.9,1.4,3.6,4.9,1.5,7.3c-0.3,0.3-0.6,0.7-1,1
			c-7.3,7.3-14.5,14.5-21.8,21.8c-0.6,0.6-1.1,1.2-0.8,2.2c0.1,0.4,0,0.8,0,1.3c0,7.7,0,15.4,0,23.1c0,14.8,0,29.6,0,44.3
			c0,2-0.5,3.8-2.4,4.9c-3,1.8-6.8-0.3-7-3.7c0-0.5,0-0.9,0-1.4c0-10,0-20,0-29.9c0-0.9-0.1-1.4-1.2-1.1c-0.3,0.1-0.7,0-1.1,0
			c-1.4-0.1-1.4-0.1-1.4,1.4c0,9.9,0,19.7,0,29.6c0,0.5,0,0.9,0,1.4c-0.2,2.6-2.3,4.4-4.8,4.4c-2.5,0-4.4-2-4.6-4.5
			c0-0.4,0-0.8,0-1.2C3686.7,556.5,3686.7,550.1,3686.7,543.7z"/>
	</g>
	<path class="st1" d="M3802.7,161.3h-23.2c0,0.2,0,0.4,0,0.7c0,3.9-1.6,7-4.7,9.4c-2.7,2.1-5.7,3.1-9.2,3.1
		c-6.4,0-10.7-3.1-13.1-9.3c-0.4-1.1-1-2.4-1.7-3.9h-33c-1.2,9.6-5.8,14.4-13.8,14.4c-3.6,0-6.8-1.1-9.5-3.2
		c-2.9-2.4-4.3-5.6-4.3-9.4c0-0.5,0-1.1,0-1.8h-30.8c-10.5,12.1-23.7,18.2-39.5,18.2c-14.7,0-27.3-4.3-37.7-13
		c-2-1.7-3.8-3.4-5.4-5.2h-46.6c-0.9,12.2-5.6,18.4-14.1,18.4c-3.5,0-6.6-1.1-9.3-3.4c-2.9-2.4-4.3-5.5-4.3-9.2c0-1.5,0-3.4,0.1-5.7
		h-45.5c-0.1,1.7-0.1,3.1-0.1,4.3c0,3.8-1.3,7-3.9,9.6c-2.6,2.6-5.8,3.9-9.7,3.9c-3.9,0-7.2-1.3-9.8-3.9c-2.6-2.6-3.9-5.8-3.9-9.6
		c0-1.2,0-2.7,0.1-4.3h-40.1c-4.8,4.2-8.6,7.7-11.4,10.6c-4.2,4.3-8.8,6.5-13.7,6.5c-3.6,0-6.9-1-9.8-2.9c-3.3-2.4-5-5.6-5-9.9
		c0-1.4,0-2.9,0-4.3h-14.7c0,0.5,0.1,1,0.1,1.5c0,3.6-1.4,6.5-4.2,8.7c-2.5,2-5.4,3-8.7,3c-5.9,0-10-2.9-12.1-8.8
		c-0.5-1.2-1.1-2.7-2-4.4h-24.8c-1,9.6-5.4,14.4-13,14.4c-3.5,0-6.4-1-8.8-3.1c-2.7-2.2-4-5.1-4-8.7c0-0.8,0-1.6,0-2.6H3234
		c-0.8,1.7-1.5,3.1-1.9,4.3c-2.1,5.9-6.2,8.9-12.1,8.9c-3.3,0-6.2-1-8.7-3c-2.8-2.3-4.2-5.2-4.2-8.7c0-0.5,0-1,0.1-1.5h-24.1
		c-10.5,12.1-23.7,18.2-39.5,18.2c-14.7,0-27.3-4.3-37.7-13c-2-1.7-3.8-3.4-5.4-5.2h-46.6c-0.9,12.2-5.6,18.4-14.1,18.4
		c-3.5,0-6.6-1.1-9.3-3.4c-2.9-2.4-4.3-5.5-4.3-9.2c0-1.5,0-3.4,0.1-5.7h-49.7c-0.5,0.6-0.9,1.2-1.4,1.8
		c-8.7,10.7-20.4,16.1-35.1,16.1c-5.6,0-11.5-0.7-17.7-2.1l-0.1,42.3c0,4-1.3,7.3-3.8,10c-2.5,2.6-5.8,3.9-9.7,3.9s-7.1-1.3-9.7-3.9
		c-2.5-2.6-3.8-5.9-3.8-10c0-3.3,0.1-16.1,0.2-38.7c0.1-7,0.1-13.5,0.1-19.4h-48.7c-7.9,17.2-13.9,31.5-18.2,43
		c-1.4,4.3-3.5,10.6-6.4,19.1c-2.3,6.5-6.5,9.7-12.5,9.7c-3.7,0-7-1.3-9.8-3.8c-2.8-2.6-4.2-5.8-4.2-9.6c0-6.4,6.9-25.5,20.7-57.1
		c-0.2-0.4-0.4-0.8-0.6-1.2h-114c0,2.4,0,4.8,0,7.2c0,4-1.3,7.4-4,10.1c-2.7,2.7-5.9,4.1-9.7,4.1c-3.8,0-7-1.4-9.6-4.1
		c-2.6-2.7-4-6.1-4-10.1c0-2.4,0-4.8,0-7.2h-21.2c-34.7,0-62.8,28.1-62.8,62.8v622c0,34.7,28.1,62.8,62.8,62.8h1148.9
		c34.7,0,62.8-28.1,62.8-62.8v-622C3865.5,189.4,3837.4,161.3,3802.7,161.3z M2826.8,822.3c0,12.3-9.9,22.2-22.2,22.2H2702
		c-12.3,0-22.2-9.9-22.2-22.2v-63c0-12.3,9.9-22.2,22.2-22.2h102.6c12.3,0,22.2,9.9,22.2,22.2V822.3z M2826.8,658.4
		c0,12.3-9.9,22.2-22.2,22.2H2702c-12.3,0-22.2-9.9-22.2-22.2v-63c0-12.3,9.9-22.2,22.2-22.2h102.6c12.3,0,22.2,9.9,22.2,22.2V658.4
		z M2826.8,497.5c0,12.3-9.9,22.2-22.2,22.2H2702c-12.3,0-22.2-9.9-22.2-22.2v-63c0-12.3,9.9-22.2,22.2-22.2h102.6
		c12.3,0,22.2,9.9,22.2,22.2V497.5z M2826.8,318.3c0,12.3-9.9,22.2-22.2,22.2H2702c-12.3,0-22.2-9.9-22.2-22.2v-63
		c0-12.3,9.9-22.2,22.2-22.2h102.6c12.3,0,22.2,9.9,22.2,22.2V318.3z M3065.8,822.3c0,12.3-9.9,22.2-22.2,22.2H2941
		c-12.3,0-22.2-9.9-22.2-22.2v-63c0-12.3,9.9-22.2,22.2-22.2h102.6c12.3,0,22.2,9.9,22.2,22.2V822.3z M3065.8,658.4
		c0,12.3-9.9,22.2-22.2,22.2H2941c-12.3,0-22.2-9.9-22.2-22.2v-63c0-12.3,9.9-22.2,22.2-22.2h102.6c12.3,0,22.2,9.9,22.2,22.2V658.4
		z M3065.8,497.5c0,12.3-9.9,22.2-22.2,22.2H2941c-12.3,0-22.2-9.9-22.2-22.2v-63c0-12.3,9.9-22.2,22.2-22.2h102.6
		c12.3,0,22.2,9.9,22.2,22.2V497.5z M3065.8,318.3c0,12.3-9.9,22.2-22.2,22.2H2941c-12.3,0-22.2-9.9-22.2-22.2v-63
		c0-12.3,9.9-22.2,22.2-22.2h102.6c12.3,0,22.2,9.9,22.2,22.2V318.3z M3294.1,822.3c0,12.3-9.9,22.2-22.2,22.2h-102.6
		c-12.3,0-22.2-9.9-22.2-22.2v-63c0-12.3,9.9-22.2,22.2-22.2h102.6c12.3,0,22.2,9.9,22.2,22.2V822.3z M3294.1,658.4
		c0,12.3-9.9,22.2-22.2,22.2h-102.6c-12.3,0-22.2-9.9-22.2-22.2v-63c0-12.3,9.9-22.2,22.2-22.2h102.6c12.3,0,22.2,9.9,22.2,22.2
		V658.4z M3294.1,497.5c0,12.3-9.9,22.2-22.2,22.2h-102.6c-12.3,0-22.2-9.9-22.2-22.2v-63c0-12.3,9.9-22.2,22.2-22.2h102.6
		c12.3,0,22.2,9.9,22.2,22.2V497.5z M3294.1,318.3c0,12.3-9.9,22.2-22.2,22.2h-102.6c-12.3,0-22.2-9.9-22.2-22.2v-63
		c0-12.3,9.9-22.2,22.2-22.2h102.6c12.3,0,22.2,9.9,22.2,22.2V318.3z M3539.2,822.3c0,12.3-9.9,22.2-22.2,22.2h-102.6
		c-12.3,0-22.2-9.9-22.2-22.2v-63c0-12.3,9.9-22.2,22.2-22.2H3517c12.3,0,22.2,9.9,22.2,22.2V822.3z M3539.2,658.4
		c0,12.3-9.9,22.2-22.2,22.2h-102.6c-12.3,0-22.2-9.9-22.2-22.2v-63c0-12.3,9.9-22.2,22.2-22.2H3517c12.3,0,22.2,9.9,22.2,22.2
		V658.4z M3539.2,497.5c0,12.3-9.9,22.2-22.2,22.2h-102.6c-12.3,0-22.2-9.9-22.2-22.2v-63c0-12.3,9.9-22.2,22.2-22.2H3517
		c12.3,0,22.2,9.9,22.2,22.2V497.5z M3539.2,318.3c0,12.3-9.9,22.2-22.2,22.2h-102.6c-12.3,0-22.2-9.9-22.2-22.2v-63
		c0-12.3,9.9-22.2,22.2-22.2H3517c12.3,0,22.2,9.9,22.2,22.2V318.3z M3769,822.3c0,12.3-9.9,22.2-22.2,22.2h-102.6
		c-12.3,0-22.2-9.9-22.2-22.2v-63c0-12.3,9.9-22.2,22.2-22.2h102.6c12.3,0,22.2,9.9,22.2,22.2V822.3z M3769,658.4
		c0,12.3-9.9,22.2-22.2,22.2h-102.6c-12.3,0-22.2-9.9-22.2-22.2v-63c0-12.3,9.9-22.2,22.2-22.2h102.6c12.3,0,22.2,9.9,22.2,22.2
		V658.4z M3769,497.5c0,12.3-9.9,22.2-22.2,22.2h-102.6c-12.3,0-22.2-9.9-22.2-22.2v-63c0-12.3,9.9-22.2,22.2-22.2h102.6
		c12.3,0,22.2,9.9,22.2,22.2V497.5z M3769,318.3c0,12.3-9.9,22.2-22.2,22.2h-102.6c-12.3,0-22.2-9.9-22.2-22.2v-63
		c0-12.3,9.9-22.2,22.2-22.2h102.6c12.3,0,22.2,9.9,22.2,22.2V318.3z"/>
	<g>
		<path class="st2" d="M2764.9,45.2c-2.6,2.6-5.8,4-9.5,4c-1.2,0-2.7-0.2-4.3-0.7c-9.4-2.7-19.8-4-31.2-4c-2.5,0-6.7,0.1-12.4,0.3
			c-5.4,0.2-9.5,0.3-12.4,0.2h-3.4c0.6,10.6,1.3,18.6,1.9,23.9c1.8,28.1,2.6,60,2.6,95.9c0,3.8-1.3,6.9-4,9.5
			c-2.7,2.6-5.9,3.9-9.7,3.9c-3.8,0-7-1.3-9.6-3.9c-2.6-2.6-4-5.7-4-9.5c0-35.2-0.8-66.7-2.5-94.3c-1.3-21.3-2-31.6-2-31
			c0-14,8-21,23.9-21c3,0,7.5,0,13.4-0.1s10.4-0.1,13.3-0.1c14.8,0,25.3,0.5,31.5,1.6c14.7,2.5,22.1,7.8,22.1,15.9
			C2768.8,39.4,2767.5,42.5,2764.9,45.2z"/>
		<path class="st2" d="M2875.8,86.5c-7.1,14.8-18.3,38-33.7,69.6c-8.3,17-14.7,31.1-19,42.3c-1.4,4-3.5,10-6.4,18
			c-2.3,6.1-6.5,9.2-12.5,9.2c-3.7,0-7-1.2-9.8-3.6c-2.8-2.4-4.2-5.4-4.2-9.1c0-6.1,6.9-24,20.7-53.8c-7.2-14.1-18.5-34.9-34.1-62.4
			c-1.6-2.5-3.2-5-4.8-7.5c-1.8-3-2.6-5.7-2.6-8.2c0-3.5,1.4-6.6,4.2-9.3c2.8-2.7,6-4,9.7-4c4.3,0,7.6,1.6,10.1,4.8
			c9.2,12.3,20,30.8,32.3,55.6c7-15.4,11.2-24.7,12.7-27.9c4.6-9.7,9.1-18.2,13.6-25.6c2.8-4.7,6.6-7,11.5-7c3.6,0,6.9,1.2,9.8,3.7
			c2.9,2.5,4.3,5.5,4.3,9.1C2877.4,82.2,2876.9,84.3,2875.8,86.5z"/>
		<path class="st2" d="M2934.4,174.8c-5.6,0-11.5-0.7-17.7-2l-0.1,39.8c0,3.8-1.3,6.9-3.8,9.4c-2.5,2.5-5.8,3.7-9.7,3.7
			s-7.1-1.2-9.7-3.7c-2.5-2.5-3.8-5.6-3.8-9.4c0-3.1,0.1-15.2,0.2-36.4c0.1-15.8,0.1-28.6,0-38.6c-0.2-14.1-0.7-26.2-1.4-36.3
			c-1-14-1.5-20.4-1.5-19.2c0-5.4,1.2-10,3.6-13.9c2.8-4.4,6.6-6.5,11.3-6.5c3.6,0,6.7,1.2,9.2,3.7c2.5,2.5,3.7,5.4,3.7,8.9l-0.1,1
			c4.4-2.5,8.7-4.3,13.1-5.5c4.4-1.2,8.8-1.8,13.2-1.8c15,0,25.9,6.3,32.8,19c5.1,9.6,7.7,22,7.7,37.2c0,14.3-4.1,26.1-12.2,35.4
			C2960.7,169.8,2949,174.8,2934.4,174.8z M2941.1,94.1c-4.1,0-8.3,1-12.5,2.9c-4.2,1.9-8.5,4.8-12.8,8.6
			c0.8,13.4,1.2,26.9,1.2,40.3c5.8,1.9,11.6,2.8,17.4,2.8c6.7,0,11.8-2.4,15.4-7.1c3.3-4.3,4.9-10.1,4.9-17.4
			c0-8.8-0.4-14.9-1.2-18.3C2951.6,98,2947.5,94.1,2941.1,94.1z"/>
		<path class="st2" d="M3065.1,91.8c-1.8,0-4.4-0.1-7.9-0.2c-3.5-0.2-6.1-0.2-7.9-0.2c-1,0-2.1,0.1-3.2,0.2
			c1.4,29.2,2.1,49.9,2.1,61.9c0,14.6-4.8,21.9-14.3,21.9c-3.5,0-6.6-1.1-9.3-3.2c-2.9-2.3-4.3-5.2-4.3-8.7c0-2.3,0.1-5.7,0.3-10.4
			c0.2-4.7,0.3-8.1,0.3-10.4c0-8.9-0.6-25.8-1.8-50.7c-1.2,0-4.1,0-8.7,0c-6.6,0-11.5-0.6-14.6-1.9c-4.9-2-7.3-5.7-7.3-11.2
			c0-3.5,1.2-6.6,3.7-9.1c2.4-2.6,5.6-3.9,9.5-3.9h57.7c12.7,0,19,4.4,19,13.1c0,3.6-1.3,6.7-3.8,9.2
			C3072.3,90.6,3069.1,91.8,3065.1,91.8z"/>
		<path class="st2" d="M3137.7,175.1c-14.7,0-27.3-4.1-37.7-12.2c-11.1-8.8-16.7-20.1-16.7-34.1c0-15.8,5.1-30.2,15.4-43.3
			c11.8-15,26.8-22.6,45-22.6c34.9,0,52.3,15.4,52.3,46.3c0,15.8-4.7,30.1-14.2,43C3170.7,167.5,3156,175.1,3137.7,175.1z
			 M3143.7,88.7c-8.7,0-16.2,4.2-22.7,12.5s-9.7,17.5-9.7,27.7c0,6.1,2.5,11.1,7.4,14.9c4.9,3.8,11.2,5.8,18.9,5.8
			c8.4,0,15.6-4.2,21.6-12.5c5.8-8,8.7-17.3,8.7-27.7c0-8.1-1.7-13.6-5-16.4C3159.6,90.1,3153.2,88.7,3143.7,88.7z"/>
		<path class="st2" d="M3252.8,125.2c-2.9,1.2-7.8,6.8-14.7,17c-6.3,9.2-10.3,15.9-11.8,19.8c-2.1,5.6-6.2,8.4-12.1,8.4
			c-3.3,0-6.2-0.9-8.7-2.8c-2.8-2.1-4.2-4.9-4.2-8.2c0-5.3,3.4-13,10.2-22.9c6.4-9.4,13.1-16.8,19.8-22.3c-2.4-2.5-4.8-6.4-7.2-11.6
			c-2.7-5.9-4.9-9.9-6.3-12c-1.7-2.3-3.2-3.4-4.6-3.4c-2.8,0-5.1-1-6.9-2.9c-1.8-1.9-2.7-4.3-2.7-7.1c0-2.6,1.9-4.9,5.7-7
			c3.3-1.8,6.5-2.7,9.5-2.7c6.3,0,11.5,2.7,15.5,8.2c1.1,1.4,3.9,6.6,8.3,15.6c1.4,2.8,2.5,4.6,3.4,5.5c1.3,1.2,3.4,2,6.2,2.3
			c-0.4-7.7-0.6-14-0.6-18.8c0-9.8,4.3-14.7,13-14.7c3.5,0,6.5,1.1,9,3.2c2.5,2.1,3.8,4.8,3.8,8.1c0,4.3,0.2,11.8,0.5,22.6
			c4.1-0.5,7.2-2.2,9.2-5.3c1.6-3.3,3.2-6.5,4.8-9.7c2.8-5.5,5.3-9.4,7.4-11.5c3.5-3.6,7.9-5.4,13.2-5.4c2.9,0,6.1,0.9,9.4,2.7
			c3.8,2.1,5.7,4.4,5.7,7c0,2.8-0.9,5.2-2.7,7.1c-1.8,2-4.1,2.9-6.9,2.9c-2,0-4.7,3.1-8,9.3c-1.8,3.8-3.7,7.7-5.6,11.4
			c-1.4,2.5-3,4.6-4.6,6.2c6.8,5.5,13.4,12.9,19.8,22.3c6.8,10,10.2,17.6,10.2,22.9c0,3.4-1.4,6.1-4.2,8.2c-2.5,1.9-5.4,2.8-8.7,2.8
			c-5.9,0-10-2.8-12.1-8.3c-1.6-4-5.5-10.5-11.7-19.7c-6.9-10-11.8-15.7-14.8-17.1c0,1.4,0,4.5-0.1,9.4c-0.1,3.8-0.1,7-0.1,9.4
			c0,0.8,0,2.3,0.1,4.4c0.1,2.1,0.1,3.7,0.1,4.9c0,12.2-4.4,18.3-13.3,18.3c-3.5,0-6.4-1-8.8-2.9c-2.7-2.1-4-4.8-4-8.2
			c0-2.9,0.1-7.5,0.4-13.7c0.3-6.2,0.4-10.8,0.4-13.7C3252.9,130.2,3252.9,127.6,3252.8,125.2z"/>
		<path class="st2" d="M3451.3,162c0,3.6-1.3,6.6-3.9,9c-2.6,2.4-5.8,3.7-9.7,3.7c-3.9,0-7.2-1.2-9.8-3.7c-2.6-2.4-3.9-5.5-3.9-9
			c0-3.9,0.2-9.8,0.6-17.6c0.4-7.8,0.6-13.7,0.6-17.6c0-3.6-0.2-7.4-0.5-11.3c-12.1,16.3-23,28.4-32.6,36
			c-8.7,6.9-15.2,12.4-19.4,16.5c-4.2,4.1-8.8,6.1-13.7,6.1c-3.6,0-6.9-0.9-9.8-2.7c-3.3-2.2-5-5.3-5-9.3c0-17.3-0.3-35.3-1-54
			c-0.7-19.5-1.1-29-1.1-28.6c0-3.7,1.3-6.8,3.8-9.2s5.8-3.7,9.9-3.7c7.3,0,11.8,3.8,13.4,11.3c0.3,1,0.6,7.4,0.9,18.9l1,37.2
			c8.4-7.6,17.3-16.9,26.9-28c2.2-2.6,10.3-12.6,24.3-30c4.6-5.8,9.8-8.7,15.4-8.7c3.8,0,7.1,1.2,9.7,3.7c2.6,2.4,3.9,5.5,3.9,9
			c0,6.8,0.1,16.9,0.4,30.5c0.3,13.5,0.4,23.7,0.4,30.5c0,2.3-0.1,5.9-0.4,10.5C3451.4,156.2,3451.3,159.7,3451.3,162z"/>
		<path class="st2" d="M3541.5,91.8c-1.8,0-4.4-0.1-7.9-0.2c-3.5-0.2-6.1-0.2-7.9-0.2c-1,0-2.1,0.1-3.2,0.2
			c1.4,29.2,2.1,49.9,2.1,61.9c0,14.6-4.8,21.9-14.3,21.9c-3.5,0-6.6-1.1-9.3-3.2c-2.9-2.3-4.3-5.2-4.3-8.7c0-2.3,0.1-5.7,0.3-10.4
			c0.2-4.7,0.3-8.1,0.3-10.4c0-8.9-0.6-25.8-1.8-50.7c-1.2,0-4.1,0-8.7,0c-6.6,0-11.5-0.6-14.6-1.9c-4.9-2-7.3-5.7-7.3-11.2
			c0-3.5,1.2-6.6,3.7-9.1c2.4-2.6,5.6-3.9,9.5-3.9h57.7c12.7,0,19,4.4,19,13.1c0,3.6-1.3,6.7-3.8,9.2
			C3548.7,90.6,3545.5,91.8,3541.5,91.8z"/>
		<path class="st2" d="M3614.1,175.1c-14.7,0-27.3-4.1-37.7-12.2c-11.1-8.8-16.7-20.1-16.7-34.1c0-15.8,5.1-30.2,15.4-43.3
			c11.8-15,26.8-22.6,45-22.6c34.9,0,52.3,15.4,52.3,46.3c0,15.8-4.7,30.1-14.2,43C3647.1,167.5,3632.3,175.1,3614.1,175.1z
			 M3620.1,88.7c-8.7,0-16.2,4.2-22.7,12.5s-9.7,17.5-9.7,27.7c0,6.1,2.5,11.1,7.4,14.9c4.9,3.8,11.2,5.8,18.9,5.8
			c8.4,0,15.6-4.2,21.6-12.5c5.8-8,8.7-17.3,8.7-27.7c0-8.1-1.7-13.6-5-16.4C3635.9,90.1,3629.5,88.7,3620.1,88.7z"/>
		<path class="st2" d="M3759.8,170.4c-6.4,0-10.7-2.9-13.1-8.8c-1.6-4.2-5.8-11-12.5-20.4c-7.2-10.2-11.9-15.3-14.2-15.3
			c-0.5-0.1-3.1-0.1-7.8-0.1l-0.1,17.8c0,0.8,0,2.3,0.1,4.3c0.1,2,0.1,3.6,0.1,4.7c0,12.7-4.7,19-14.2,19c-3.6,0-6.8-1-9.5-3
			c-2.9-2.3-4.3-5.2-4.3-8.9c0-2.9,0.1-7.3,0.4-13.4c0.3-6.1,0.4-10.6,0.4-13.5c0-5.8-0.2-14.5-0.7-26c-0.5-11.5-0.7-20.1-0.7-25.9
			c0-10.3,4.7-15.4,14-15.4c3.7,0,6.9,1.1,9.5,3.2c2.8,2.3,4.2,5.3,4.2,8.8c0,4.8,0.2,12.5,0.5,23.2c7,0.1,11.8-1.4,14.5-4.3
			c0.5-0.5,2.7-4.6,6.7-12.3c5.7-11.1,13.1-16.7,22.2-16.7c3,0,6.2,0.9,9.8,2.7c4.2,2.1,6.3,4.8,6.3,7.8c0,3-1,5.5-3,7.6
			c-2,2.1-4.5,3.1-7.6,3.1c-1.7,0-4.1,3-7.3,9c-1.7,3.5-3.4,7-5.2,10.5c-1.4,2.3-2.8,4.3-4.3,6c6.8,5.6,13.3,12.9,19.5,22
			c6.7,9.6,10.1,17.1,10.1,22.5c0,3.6-1.6,6.6-4.7,8.9C3766.3,169.5,3763.2,170.4,3759.8,170.4z"/>
	</g>
	<g>
		<path class="st0" d="M2618.9,827.8c3,0.7,5.7,2.2,7.6,4.7c3,4.1,3.2,9.6,0.4,13.8c-2.8,4.2-7.9,6.2-12.7,5.1
			c-4.9-1.1-8.6-5.3-9.2-10.3c-0.7-6,3-11.5,8.9-13c0.3-0.1,0.7-0.2,1-0.3C2616.1,827.8,2617.5,827.8,2618.9,827.8z"/>
		<path class="st0" d="M2605.6,872.7c-1.7,2.3-3.3,4.7-4.7,7.2c-1.1,2-2.1,4-3,6.1c-0.7,1.6-1.6,2.8-3.4,3.3
			c-0.6,0.2-0.8,0.7-1.1,1.2c-4.3,7.5-8.6,15.1-12.9,22.6c-2.4,4.2-4.8,8.4-7.2,12.6c-0.3,0.6-0.4,1-0.1,1.7c1,2,0.5,4.1-1,5.5
			c-1.6,1.4-3.8,1.6-5.6,0.5c-1.8-1.1-2.6-3.2-1.9-5.3c0.2-0.7,0-1-0.6-1.3c-1.5-0.8-3-1.6-4.4-2.5c-1.9-1.1-2.2-2-1.1-3.9
			c3.3-5.9,6.7-11.9,10.1-17.8c1.4-2.6,2.9-5.1,4.3-7.7c1-1.8,2.1-2.1,3.9-1.1c2.1,1.2,4.3,2.4,6.4,3.6c0.6,0.4,0.9,0.3,1.3-0.3
			c1.6-2.8,3.2-5.7,4.8-8.5c0.2-0.4,0.3-0.8,0-1.2c-1.1-1.6-1-3.2-0.3-4.9c2.6-6.2,6.2-11.8,10.2-17.1c2.6-3.4,5.3-6.6,8.3-9.5
			c4.6-4.6,10.8-5,15.9-1c2.6,2,5,4.3,7.6,6.3c3.9,3.1,8,5.7,12.8,7c1.2,0.3,2.4,0.4,3.5,0.7c2.2,0.6,3.7,2.8,3.4,5
			c-0.3,2.5-2.3,4.3-4.7,4.3c-1.4,0-2.7-0.3-4-0.5c-4.9-0.9-9.5-2.5-13.5-5.5c-0.2-0.1-0.4-0.4-0.6-0.2c-0.1,0.1-0.1,0.5-0.1,0.7
			c0.2,2.6,0.5,5.3,0.7,7.9c0.2,2.3,0.5,4.7,0.5,7c0,1.6-0.4,3.2-1.3,4.5c-0.4,0.6-0.4,1.1,0,1.7c6.1,10.1,11.3,20.7,16.1,31.5
			c1.7,3.9,0.1,7.7-3.8,8.7c-2.8,0.8-5.6-0.6-6.9-3.4c-1.3-2.8-2.6-5.6-3.9-8.4c-3.2-6.8-6.6-13.5-10.4-20c-0.6-1-0.6-1-1.2,0
			c-3.9,7-7.5,14.2-11.2,21.3c-1.3,2.4-2.6,4.9-3.9,7.3c-1.6,2.7-4.4,3.9-7.1,3.1c-3.6-1.1-5.3-5.1-3.6-8.4c1.8-3.6,3.9-7,5.8-10.5
			c3.7-6.7,7.4-13.4,11.1-20.1c0.4-0.7,0.5-1.3-0.1-2c-1.1-1.4-1.4-3-1.6-4.8c-0.4-5-0.9-10-1.3-15.1
			C2605.7,872.9,2605.7,872.9,2605.6,872.7z M2570.5,929.6c0-0.8-0.7-1.5-1.6-1.5c-0.8,0-1.5,0.7-1.4,1.6c0,0.8,0.7,1.4,1.5,1.4
			C2569.8,931.1,2570.5,930.5,2570.5,929.6z"/>
	</g>
	<g>
		<path class="st0" d="M3360.6,847.1c1.5,0.5,3,1,4.2,2.1c2.9,2.6,4.1,5.8,3,9.6c-1.1,4-3.8,6.3-7.9,6.9c-4.8,0.7-9.3-2.6-10.3-7.5
			c-1-4.5,1.8-9.3,6.4-10.8c0.4-0.1,0.8-0.3,1.1-0.4C3358.3,847.1,3359.5,847.1,3360.6,847.1z"/>
		<path class="st0" d="M3405.8,920.4c-5.5-0.1-10-2.1-14.1-5.3c-2.1-1.6-3.9-3.5-5.5-5.5c-0.5-0.6-0.9-0.6-1.6-0.4
			c-6.4,2.3-12,5.8-17.2,10.1c-1.1,0.9-1.9,1.9-2.5,3.2c-2.4,5.1-4.9,10.2-7.4,15.2c-2.1,4.3-7.2,4.9-10.2,1.3
			c-1.3-1.5-1.6-3.3-0.9-5.2c0.9-2.2,2-4.4,3.1-6.6c1.9-3.9,3.8-7.7,5.6-11.6c0.9-2,2.3-3.3,3.9-4.6c4.2-3.5,8.6-6.6,13.4-9.1
			c0.6-0.3,0.7-0.5,0.4-1.1c-3.3-6.2-6.7-12.4-10.1-18.6c-0.4-0.6-0.7-0.7-1.4-0.6c-10.3,2.7-19.2,0-26.8-7.2
			c-1.6-1.5-2.9-3.1-4.2-4.8c-1.3-1.8-2.1-3.7-0.9-5.8c1.2-2.2,3.2-3.2,5.7-3.2c2.1,0,3.7,1,4.9,2.6c1.1,1.5,2.3,2.9,3.8,4.1
			c4.8,4.1,10.2,4.7,16,2.6c1.3-0.5,2.5-1.2,3.8-1.7c3.4-1.4,6.3-3.8,9.7-5.2c10.5-4.3,20.2-3.3,29.2,3.8c2.6,2.1,4.8,4.5,6.7,7.3
			c2,2.9,1.2,6.1-2,7.7c-3,1.5-6,0.9-8.1-1.9c-1.9-2.5-4.1-4.8-7-6.3c-3.6-1.8-7.3-1.9-11.1-0.9c-0.8,0.2-0.6,0.5-0.3,1
			c3.4,6,6.8,12.1,9.9,18.3c1.4,2.9,2.7,5.8,4.6,8.4c1.2,1.7,2.5,3.3,4.1,4.6c3.4,2.8,7.1,3.2,11.1,1.3c0.6-0.3,1.1-0.5,1.6-0.8
			c4.3-2.3,8.3,0.8,9.1,4.6c0.5,2.6-0.3,4.8-2.5,6.2C3414.6,918.9,3410.3,920.3,3405.8,920.4z"/>
	</g>
	<circle class="st0" cx="3281.3" cy="912.6" r="9.2"/>
</g>
<g>
	<g>
		<path class="st0" d="M2411,1834.2h-155.9c-83.6,0-125.4-17.1-125.4-51.2c0-14.3,7.3-30.3,21.9-48c12-13.5,24.1-27.2,36.3-41
			c41.9-59.9,105.9-149,191.8-267.2c20.3-27.1,46.7-40.6,79.3-40.6c15.4,0,28.6,3.9,39.8,11.7c13.3,9.4,19.9,22.5,19.9,39.5
			l0.4,293.8c34.1,1,56.9,4.6,68.4,10.5c12.8,7,19.1,20.8,19.1,41.4c0.3,21.6-9.6,36.5-29.7,44.5c-14.1,5.5-33.3,7.7-57.8,6.6
			c0.8,37.5,0.6,78.1-0.4,121.9c-0.3,14.3-5,26.2-14.1,35.5c-9.1,9.4-21.5,14.1-37.1,14.1c-39.6,0-58.5-26-56.6-78.1V1834.2z
			 M2411,1555.7c-25.3,39.8-64.2,98.3-116.8,175.4H2411V1555.7z"/>
	</g>
	<g>
		<path class="st0" d="M3013.8,1488.1c-3.6-1.3-4.3-4.3-4.6-7.6c-0.9-7.9-2-15.7-3-23.6c-0.2-1.9,0.2-3.5,1.3-5
			c3.8-5.4,7.6-10.7,11.4-16.1c0.5-0.8,0.8-1.5,0.8-2.5c0-6.5,0-13,0-19.5c0-2.8,0.1-5.5,0.1-8.3c0-0.9-0.3-1.6-1.1-2.1
			c-4.2-2.9-8.3-5.9-12.5-8.8c-1.4-1-2.3-2.2-2.7-3.8c-1.9-6.6-3.8-13.1-5.6-19.7c-0.8-2.9,0.6-5.6,3.4-6.4c2.7-0.8,5.3,0.7,6.1,3.6
			c1.7,5.7,3.3,11.3,4.9,17c0.3,1.1,0.9,2,1.9,2.7c4.3,3,8.5,6,12.8,9c0.8,0.6,1.7,0.8,2.7,0.8c2.8,0,5.7,0,8.5,0
			c2.5,0,4.9,0.7,6.9,2.1c5.9,4.1,11.7,8.2,17.5,12.3c2.6,1.8,3,4.9,1,7.4c-3.8,4.6-7.6,9.1-11.4,13.7c-1.5,1.8-3.4,2.4-5.6,1.6
			c-0.9-0.3-1,0-1,0.8c0,3.6,0,7.1-0.2,10.7c-0.2,3.4-0.2,6.7-0.3,10.1c0,0.8,0.1,1.5,0.5,2.2c3.6,6.6,7.2,13.3,11,19.8
			c2,3.5,1.2,8.1-3.3,9.5c-1,0-1.9,0-2.9,0c-1.6-0.6-3-1.5-3.8-3.1c-4.2-7.6-8.3-15.2-12.5-22.8c-0.4-0.8-0.8-1.6-0.8-2.5
			c0-2.6,0-5.1,0.1-7.7c0.2-3.8,0.2-7.5,0.3-11.3c0-0.4,0-0.8-0.5-1c-1-0.4-2.4,0-3.1,0.9c-3.8,5.3-7.5,10.6-11.3,15.9
			c-0.4,0.5-0.5,1.1-0.4,1.7c1,7.4,1.9,14.8,2.9,22.2c0.5,4-0.5,6-4.2,7.6C3015.9,1488.1,3014.8,1488.1,3013.8,1488.1z
			 M3045.4,1425.8c2.3-2.8,4.4-5.3,6.5-7.8c0.4-0.5,0.5-0.8-0.1-1.2c-1.9-1.3-3.7-2.6-5.6-3.9c-0.5-0.3-0.8-0.4-0.8,0.4
			C3045.4,1417.4,3045.4,1421.4,3045.4,1425.8z"/>
		<path class="st0" d="M3031.7,1373.6c5.7,0,10.3,4.6,10.2,10.3c0,5.6-4.7,10.3-10.3,10.3c-5.6,0-10.3-4.7-10.3-10.4
			C3021.4,1378.1,3026,1373.6,3031.7,1373.6z"/>
	</g>
	<g>
		<path class="st0" d="M3460.9,1754.3c0.4-1.7,1.1-3.3,2.3-4.6c4.7-5,13.3-3.3,15.8,3c0.7,1.7-0.1,2.1,0.7,3.4
			c2.7,4.8,16.4,4.7,22.4,4.7c0.3,0,1.3,0,2.3,0.6c0.3,0.2,0.6,0.4,0.9,0.7c1.1,1.2,1.4,2.7,0.7,4.2c-0.7,1.5-1.9,2.3-3.5,2.4
			c-1.2,0.1-2.2,0-2.3,0c-3.6-0.5-8.3,1.5-13.3,0.1c-4.3-1.1-5.5-3.8-6.6-3.1c-1.9,1.3-0.7,11.5-0.5,14.1c0,0.1,0,0.3-0.1,0.5
			c-0.1,0.1-0.2,0.1-0.4,0.1c-6,0-11.9,0-17.9,0c-0.1,0-0.2,0-0.3,0C3460.9,1771.8,3460.9,1763.1,3460.9,1754.3z"/>
		<path class="st0" d="M3478.7,1727.6c5.4,0,9.8,4.4,9.8,9.7c0,5.2-4.1,9.7-9.7,9.7c-5.9,0-9.8-4.7-9.8-9.7
			C3469,1731.9,3473.3,1727.6,3478.7,1727.6z"/>
		<path class="st0" d="M3502.2,1774.4c6.4,0,12.9,0,19.3,0c1,0,1,0,1,1c0,1,0,2,0,3c0,0.6-0.2,0.8-0.8,0.8c-0.9,0-1.7,0-2.6,0
			c-12,0-24,0-36.1,0c-0.4,0-0.7,0-1.1-0.1c-0.1,0-0.2-0.1-0.4-0.1c-1-0.4-1.4-1.4-1.1-2.9c0.2-0.9,0.8-1.5,1.8-1.6
			c0.3,0,0.5,0,0.8,0C3489.4,1774.4,3495.8,1774.4,3502.2,1774.4z"/>
		<path class="st0" d="M3503.2,1773.3c-4.5,0-9,0-13.5,0c-1.3,0-2.1-0.9-2-2c0.1-0.8,0.7-1.4,1.4-1.5c0.4-0.1,0.9-0.1,1.3-0.1
			c8.1,0,16.1,0,24.2,0c0.7,0,1-0.2,1.2-0.9c2.2-6.6,4.5-13.3,6.8-19.9c0.1-0.2,0.1-0.4,0.2-0.6c0.4-1,1.3-1.4,2.2-1.1
			c1,0.3,1.5,1.2,1.2,2.2c-0.2,0.8-0.5,1.5-0.8,2.2c-2.2,6.6-4.5,13.1-6.7,19.7c-0.2,0.5-0.3,1-0.7,1.3c-0.4,0.4-1,0.5-1.6,0.5
			C3512.1,1773.3,3507.7,1773.3,3503.2,1773.3z"/>
	</g>
	<g>
		<path class="st0" d="M3754.9,1556.8c2.5,0.7,4.8,1.9,6.5,4c2.6,3.4,3.3,7.2,1.5,11.2c-1.9,4.1-5.1,6.4-9.7,6.5
			c-4.7,0.1-8.6-2.4-10.4-6.7c-1.8-4.4-0.9-8.3,2.2-11.8c1.6-1.7,3.6-2.7,5.9-3.2C3752.2,1556.8,3753.5,1556.8,3754.9,1556.8z"/>
		<path class="st0" d="M3741.9,1640.5c0-6.4,0-12.9,0-19.3c0-9.4,0-18.8,0-28.2c0-0.9-0.1-1.6-1-2c-0.3-0.1-0.5-0.4-0.7-0.6
			c-7.8-7.8-15.6-15.6-23.4-23.4c-1.4-1.4-2.1-3-1.5-5c0.9-3.1,4.6-4.3,7.2-2.4c0.5,0.3,0.9,0.7,1.3,1.1
			c7.1,7.1,14.1,14.1,21.1,21.2c0.8,0.8,1.2,0.7,2.1,0.2c3.5-2.3,7.3-2.5,11.1-0.6c0.9,0.4,1.3,0.3,2-0.3
			c6.9-6.9,13.7-13.8,20.6-20.7c1.8-1.8,3.8-2.2,5.7-1.3c2.9,1.4,3.6,4.9,1.5,7.3c-0.3,0.3-0.6,0.7-1,1
			c-7.3,7.3-14.5,14.5-21.8,21.8c-0.6,0.6-1.1,1.2-0.8,2.2c0.1,0.4,0,0.8,0,1.3c0,7.7,0,15.4,0,23.1c0,14.8,0,29.6,0,44.3
			c0,2-0.5,3.8-2.4,4.9c-3,1.8-6.8-0.3-7-3.7c0-0.5,0-0.9,0-1.4c0-10,0-20,0-29.9c0-0.9-0.1-1.4-1.2-1.1c-0.3,0.1-0.7,0-1.1,0
			c-1.4-0.1-1.4-0.1-1.4,1.4c0,9.9,0,19.7,0,29.6c0,0.5,0,0.9,0,1.4c-0.2,2.6-2.3,4.4-4.8,4.4c-2.5,0-4.4-2-4.6-4.5
			c0-0.4,0-0.8,0-1.2C3741.9,1653.4,3741.9,1646.9,3741.9,1640.5z"/>
	</g>
	<path class="st1" d="M3857.8,1258.1h-23.2c0,0.2,0,0.4,0,0.7c0,3.9-1.6,7-4.7,9.4c-2.7,2.1-5.7,3.1-9.2,3.1
		c-6.4,0-10.7-3.1-13.1-9.3c-0.4-1.1-1-2.4-1.7-3.9h-33c-1.2,9.6-5.8,14.4-13.8,14.4c-3.6,0-6.8-1.1-9.5-3.2
		c-2.9-2.4-4.3-5.6-4.3-9.4c0-0.5,0-1.1,0-1.8h-30.8c-10.5,12.1-23.7,18.2-39.5,18.2c-14.7,0-27.3-4.3-37.7-13
		c-2-1.7-3.8-3.4-5.4-5.2h-46.6c-0.9,12.2-5.6,18.4-14.1,18.4c-3.5,0-6.6-1.1-9.3-3.4c-2.9-2.4-4.3-5.5-4.3-9.2c0-1.5,0-3.4,0.1-5.7
		h-45.5c-0.1,1.7-0.1,3.1-0.1,4.3c0,3.8-1.3,7-3.9,9.6c-2.6,2.6-5.8,3.9-9.7,3.9c-3.9,0-7.2-1.3-9.8-3.9c-2.6-2.6-3.9-5.8-3.9-9.6
		c0-1.2,0-2.7,0.1-4.3H3445c-4.8,4.2-8.6,7.7-11.4,10.6c-4.2,4.3-8.8,6.5-13.7,6.5c-3.6,0-6.9-1-9.8-2.9c-3.3-2.4-5-5.6-5-9.9
		c0-1.4,0-2.9,0-4.3h-14.7c0,0.5,0.1,1,0.1,1.5c0,3.6-1.4,6.5-4.2,8.7c-2.5,2-5.4,3-8.7,3c-5.9,0-10-2.9-12.1-8.8
		c-0.5-1.2-1.1-2.7-2-4.4h-24.8c-1,9.6-5.4,14.4-13,14.4c-3.5,0-6.4-1-8.8-3.1c-2.7-2.2-4-5.1-4-8.7c0-0.8,0-1.6,0-2.6h-23.9
		c-0.8,1.7-1.5,3.1-1.9,4.3c-2.1,5.9-6.2,8.9-12.1,8.9c-3.3,0-6.2-1-8.7-3c-2.8-2.3-4.2-5.2-4.2-8.7c0-0.5,0-1,0.1-1.5h-24.1
		c-10.5,12.1-23.7,18.2-39.5,18.2c-14.7,0-27.3-4.3-37.7-13c-2-1.7-3.8-3.4-5.4-5.2h-46.6c-0.9,12.2-5.6,18.4-14.1,18.4
		c-3.5,0-6.6-1.1-9.3-3.4c-2.9-2.4-4.3-5.5-4.3-9.2c0-1.5,0-3.4,0.1-5.7h-49.7c-0.5,0.6-0.9,1.2-1.4,1.8
		c-8.7,10.7-20.4,16.1-35.1,16.1c-5.6,0-11.5-0.7-17.7-2.1l-0.1,42.3c0,4-1.3,7.3-3.8,10c-2.5,2.6-5.8,3.9-9.7,3.9s-7.1-1.3-9.7-3.9
		c-2.5-2.6-3.8-5.9-3.8-10c0-3.3,0.1-16.1,0.2-38.7c0.1-7,0.1-13.5,0.1-19.4h-48.7c-7.9,17.2-13.9,31.5-18.2,43
		c-1.4,4.3-3.5,10.6-6.4,19.1c-2.3,6.5-6.5,9.7-12.5,9.7c-3.7,0-7-1.3-9.8-3.8c-2.8-2.6-4.2-5.8-4.2-9.6c0-6.4,6.9-25.5,20.7-57.1
		c-0.2-0.4-0.4-0.8-0.6-1.2h-114c0,2.4,0,4.8,0,7.2c0,4-1.3,7.4-4,10.1c-2.7,2.7-5.9,4.1-9.7,4.1c-3.8,0-7-1.4-9.6-4.1
		c-2.6-2.7-4-6.1-4-10.1c0-2.4,0-4.8,0-7.2h-21.2c-34.7,0-62.8,28.1-62.8,62.8v622c0,34.7,28.1,62.8,62.8,62.8h1148.9
		c34.7,0,62.8-28.1,62.8-62.8v-622C3920.6,1286.3,3892.5,1258.1,3857.8,1258.1z M2882,1919.2c0,12.3-9.9,22.2-22.2,22.2h-102.6
		c-12.3,0-22.2-9.9-22.2-22.2v-63c0-12.3,9.9-22.2,22.2-22.2h102.6c12.3,0,22.2,9.9,22.2,22.2V1919.2z M2882,1755.2
		c0,12.3-9.9,22.2-22.2,22.2h-102.6c-12.3,0-22.2-9.9-22.2-22.2v-63c0-12.3,9.9-22.2,22.2-22.2h102.6c12.3,0,22.2,9.9,22.2,22.2
		V1755.2z M2882,1594.4c0,12.3-9.9,22.2-22.2,22.2h-102.6c-12.3,0-22.2-9.9-22.2-22.2v-63c0-12.3,9.9-22.2,22.2-22.2h102.6
		c12.3,0,22.2,9.9,22.2,22.2V1594.4z M2882,1415.2c0,12.3-9.9,22.2-22.2,22.2h-102.6c-12.3,0-22.2-9.9-22.2-22.2v-63
		c0-12.3,9.9-22.2,22.2-22.2h102.6c12.3,0,22.2,9.9,22.2,22.2V1415.2z M3121,1919.2c0,12.3-9.9,22.2-22.2,22.2h-102.6
		c-12.3,0-22.2-9.9-22.2-22.2v-63c0-12.3,9.9-22.2,22.2-22.2h102.6c12.3,0,22.2,9.9,22.2,22.2V1919.2z M3121,1755.2
		c0,12.3-9.9,22.2-22.2,22.2h-102.6c-12.3,0-22.2-9.9-22.2-22.2v-63c0-12.3,9.9-22.2,22.2-22.2h102.6c12.3,0,22.2,9.9,22.2,22.2
		V1755.2z M3121,1594.4c0,12.3-9.9,22.2-22.2,22.2h-102.6c-12.3,0-22.2-9.9-22.2-22.2v-63c0-12.3,9.9-22.2,22.2-22.2h102.6
		c12.3,0,22.2,9.9,22.2,22.2V1594.4z M3121,1415.2c0,12.3-9.9,22.2-22.2,22.2h-102.6c-12.3,0-22.2-9.9-22.2-22.2v-63
		c0-12.3,9.9-22.2,22.2-22.2h102.6c12.3,0,22.2,9.9,22.2,22.2V1415.2z M3349.2,1919.2c0,12.3-9.9,22.2-22.2,22.2h-102.6
		c-12.3,0-22.2-9.9-22.2-22.2v-63c0-12.3,9.9-22.2,22.2-22.2H3327c12.3,0,22.2,9.9,22.2,22.2V1919.2z M3349.2,1755.2
		c0,12.3-9.9,22.2-22.2,22.2h-102.6c-12.3,0-22.2-9.9-22.2-22.2v-63c0-12.3,9.9-22.2,22.2-22.2H3327c12.3,0,22.2,9.9,22.2,22.2
		V1755.2z M3349.2,1594.4c0,12.3-9.9,22.2-22.2,22.2h-102.6c-12.3,0-22.2-9.9-22.2-22.2v-63c0-12.3,9.9-22.2,22.2-22.2H3327
		c12.3,0,22.2,9.9,22.2,22.2V1594.4z M3349.2,1415.2c0,12.3-9.9,22.2-22.2,22.2h-102.6c-12.3,0-22.2-9.9-22.2-22.2v-63
		c0-12.3,9.9-22.2,22.2-22.2H3327c12.3,0,22.2,9.9,22.2,22.2V1415.2z M3594.3,1919.2c0,12.3-9.9,22.2-22.2,22.2h-102.6
		c-12.3,0-22.2-9.9-22.2-22.2v-63c0-12.3,9.9-22.2,22.2-22.2h102.6c12.3,0,22.2,9.9,22.2,22.2V1919.2z M3594.3,1755.2
		c0,12.3-9.9,22.2-22.2,22.2h-102.6c-12.3,0-22.2-9.9-22.2-22.2v-63c0-12.3,9.9-22.2,22.2-22.2h102.6c12.3,0,22.2,9.9,22.2,22.2
		V1755.2z M3594.3,1594.4c0,12.3-9.9,22.2-22.2,22.2h-102.6c-12.3,0-22.2-9.9-22.2-22.2v-63c0-12.3,9.9-22.2,22.2-22.2h102.6
		c12.3,0,22.2,9.9,22.2,22.2V1594.4z M3594.3,1415.2c0,12.3-9.9,22.2-22.2,22.2h-102.6c-12.3,0-22.2-9.9-22.2-22.2v-63
		c0-12.3,9.9-22.2,22.2-22.2h102.6c12.3,0,22.2,9.9,22.2,22.2V1415.2z M3824.1,1919.2c0,12.3-9.9,22.2-22.2,22.2h-102.6
		c-12.3,0-22.2-9.9-22.2-22.2v-63c0-12.3,9.9-22.2,22.2-22.2h102.6c12.3,0,22.2,9.9,22.2,22.2V1919.2z M3824.1,1755.2
		c0,12.3-9.9,22.2-22.2,22.2h-102.6c-12.3,0-22.2-9.9-22.2-22.2v-63c0-12.3,9.9-22.2,22.2-22.2h102.6c12.3,0,22.2,9.9,22.2,22.2
		V1755.2z M3824.1,1594.4c0,12.3-9.9,22.2-22.2,22.2h-102.6c-12.3,0-22.2-9.9-22.2-22.2v-63c0-12.3,9.9-22.2,22.2-22.2h102.6
		c12.3,0,22.2,9.9,22.2,22.2V1594.4z M3824.1,1415.2c0,12.3-9.9,22.2-22.2,22.2h-102.6c-12.3,0-22.2-9.9-22.2-22.2v-63
		c0-12.3,9.9-22.2,22.2-22.2h102.6c12.3,0,22.2,9.9,22.2,22.2V1415.2z"/>
	<g>
		<path class="st2" d="M2820.1,1142c-2.6,2.6-5.8,4-9.5,4c-1.2,0-2.7-0.2-4.3-0.7c-9.4-2.7-19.8-4-31.2-4c-2.5,0-6.7,0.1-12.4,0.3
			c-5.4,0.2-9.5,0.3-12.4,0.2h-3.4c0.6,10.6,1.3,18.6,1.9,23.9c1.8,28.1,2.6,60,2.6,95.9c0,3.8-1.3,6.9-4,9.5
			c-2.7,2.6-5.9,3.9-9.7,3.9c-3.8,0-7-1.3-9.6-3.9c-2.6-2.6-4-5.7-4-9.5c0-35.2-0.8-66.7-2.5-94.3c-1.3-21.3-2-31.6-2-31
			c0-14,8-21,23.9-21c3,0,7.5,0,13.4-0.1s10.4-0.1,13.3-0.1c14.8,0,25.3,0.5,31.5,1.6c14.7,2.5,22.1,7.8,22.1,15.9
			C2824,1136.2,2822.7,1139.4,2820.1,1142z"/>
		<path class="st2" d="M2930.9,1183.4c-7.1,14.8-18.3,38-33.7,69.6c-8.3,17-14.7,31.1-19,42.3c-1.4,4-3.5,10-6.4,18
			c-2.3,6.1-6.5,9.2-12.5,9.2c-3.7,0-7-1.2-9.8-3.6c-2.8-2.4-4.2-5.4-4.2-9.1c0-6.1,6.9-24,20.7-53.8c-7.2-14.1-18.5-34.9-34.1-62.4
			c-1.6-2.5-3.2-5-4.8-7.5c-1.8-3-2.6-5.7-2.6-8.2c0-3.5,1.4-6.6,4.2-9.3c2.8-2.7,6-4,9.7-4c4.3,0,7.6,1.6,10.1,4.8
			c9.2,12.3,20,30.8,32.3,55.6c7-15.4,11.2-24.7,12.7-27.9c4.6-9.7,9.1-18.2,13.6-25.6c2.8-4.7,6.6-7,11.5-7c3.6,0,6.9,1.2,9.8,3.7
			c2.9,2.5,4.3,5.5,4.3,9.1C2932.6,1179,2932,1181.1,2930.9,1183.4z"/>
		<path class="st2" d="M2989.5,1271.7c-5.6,0-11.5-0.7-17.7-2l-0.1,39.8c0,3.8-1.3,6.9-3.8,9.4c-2.5,2.5-5.8,3.7-9.7,3.7
			s-7.1-1.2-9.7-3.7c-2.5-2.5-3.8-5.6-3.8-9.4c0-3.1,0.1-15.2,0.2-36.4c0.1-15.8,0.1-28.6,0-38.6c-0.2-14.1-0.7-26.2-1.4-36.3
			c-1-14-1.5-20.4-1.5-19.2c0-5.4,1.2-10,3.6-13.9c2.8-4.4,6.6-6.5,11.3-6.5c3.6,0,6.7,1.2,9.2,3.7c2.5,2.5,3.7,5.4,3.7,8.9l-0.1,1
			c4.4-2.5,8.7-4.3,13.1-5.5c4.4-1.2,8.8-1.8,13.2-1.8c15,0,25.9,6.3,32.8,19c5.1,9.6,7.7,22,7.7,37.2c0,14.3-4.1,26.1-12.2,35.4
			C3015.8,1266.6,3004.2,1271.7,2989.5,1271.7z M2996.3,1190.9c-4.1,0-8.3,1-12.5,2.9c-4.2,1.9-8.5,4.8-12.8,8.6
			c0.8,13.4,1.2,26.9,1.2,40.3c5.8,1.9,11.6,2.8,17.4,2.8c6.7,0,11.8-2.4,15.4-7.1c3.3-4.3,4.9-10.1,4.9-17.4
			c0-8.8-0.4-14.9-1.2-18.3C3006.8,1194.9,3002.6,1190.9,2996.3,1190.9z"/>
		<path class="st2" d="M3120.3,1188.7c-1.8,0-4.4-0.1-7.9-0.2c-3.5-0.2-6.1-0.2-7.9-0.2c-1,0-2.1,0.1-3.2,0.2
			c1.4,29.2,2.1,49.9,2.1,61.9c0,14.6-4.8,21.9-14.3,21.9c-3.5,0-6.6-1.1-9.3-3.2c-2.9-2.3-4.3-5.2-4.3-8.7c0-2.3,0.1-5.7,0.3-10.4
			c0.2-4.7,0.3-8.1,0.3-10.4c0-8.9-0.6-25.8-1.8-50.7c-1.2,0-4.1,0-8.7,0c-6.6,0-11.5-0.6-14.6-1.9c-4.9-2-7.3-5.7-7.3-11.2
			c0-3.5,1.2-6.6,3.7-9.1c2.4-2.6,5.6-3.9,9.5-3.9h57.7c12.7,0,19,4.4,19,13.1c0,3.6-1.3,6.7-3.8,9.2
			C3127.5,1187.4,3124.2,1188.7,3120.3,1188.7z"/>
		<path class="st2" d="M3192.8,1272c-14.7,0-27.3-4.1-37.7-12.2c-11.1-8.8-16.7-20.1-16.7-34.1c0-15.8,5.1-30.2,15.4-43.3
			c11.8-15,26.8-22.6,45-22.6c34.9,0,52.3,15.4,52.3,46.3c0,15.8-4.7,30.1-14.2,43C3225.9,1264.3,3211.1,1272,3192.8,1272z
			 M3198.9,1185.5c-8.7,0-16.2,4.2-22.7,12.5s-9.7,17.5-9.7,27.7c0,6.1,2.5,11.1,7.4,14.9c4.9,3.8,11.2,5.8,18.9,5.8
			c8.4,0,15.6-4.2,21.6-12.5c5.8-8,8.7-17.3,8.7-27.7c0-8.1-1.7-13.6-5-16.4C3214.7,1186.9,3208.3,1185.5,3198.9,1185.5z"/>
		<path class="st2" d="M3308,1222.1c-2.9,1.2-7.8,6.8-14.7,17c-6.3,9.2-10.3,15.9-11.8,19.8c-2.1,5.6-6.2,8.4-12.1,8.4
			c-3.3,0-6.2-0.9-8.7-2.8c-2.8-2.1-4.2-4.9-4.2-8.2c0-5.3,3.4-13,10.2-22.9c6.4-9.4,13.1-16.8,19.8-22.3c-2.4-2.5-4.8-6.4-7.2-11.6
			c-2.7-5.9-4.9-9.9-6.3-12c-1.7-2.3-3.2-3.4-4.6-3.4c-2.8,0-5.1-1-6.9-2.9c-1.8-1.9-2.7-4.3-2.7-7.1c0-2.6,1.9-4.9,5.7-7
			c3.3-1.8,6.5-2.7,9.5-2.7c6.3,0,11.5,2.7,15.5,8.2c1.1,1.4,3.9,6.6,8.3,15.6c1.4,2.8,2.5,4.6,3.4,5.5c1.3,1.2,3.4,2,6.2,2.3
			c-0.4-7.7-0.6-14-0.6-18.8c0-9.8,4.3-14.7,13-14.7c3.5,0,6.5,1.1,9,3.2c2.5,2.1,3.8,4.8,3.8,8.1c0,4.3,0.2,11.8,0.5,22.6
			c4.1-0.5,7.2-2.2,9.2-5.3c1.6-3.3,3.2-6.5,4.8-9.7c2.8-5.5,5.3-9.4,7.4-11.5c3.5-3.6,7.9-5.4,13.2-5.4c2.9,0,6.1,0.9,9.4,2.7
			c3.8,2.1,5.7,4.4,5.7,7c0,2.8-0.9,5.2-2.7,7.1c-1.8,2-4.1,2.9-6.9,2.9c-2,0-4.7,3.1-8,9.3c-1.8,3.8-3.7,7.7-5.6,11.4
			c-1.4,2.5-3,4.6-4.6,6.2c6.8,5.5,13.4,12.9,19.8,22.3c6.8,10,10.2,17.6,10.2,22.9c0,3.4-1.4,6.1-4.2,8.2c-2.5,1.9-5.4,2.8-8.7,2.8
			c-5.9,0-10-2.8-12.1-8.3c-1.6-4-5.5-10.5-11.7-19.7c-6.9-10-11.8-15.7-14.8-17.1c0,1.4,0,4.5-0.1,9.4c-0.1,3.8-0.1,7-0.1,9.4
			c0,0.8,0,2.3,0.1,4.4c0.1,2.1,0.1,3.7,0.1,4.9c0,12.2-4.4,18.3-13.3,18.3c-3.5,0-6.4-1-8.8-2.9c-2.7-2.1-4-4.8-4-8.2
			c0-2.9,0.1-7.5,0.4-13.7c0.3-6.2,0.4-10.8,0.4-13.7C3308.1,1227.1,3308,1224.5,3308,1222.1z"/>
		<path class="st2" d="M3506.4,1258.9c0,3.6-1.3,6.6-3.9,9c-2.6,2.4-5.8,3.7-9.7,3.7c-3.9,0-7.2-1.2-9.8-3.7c-2.6-2.4-3.9-5.5-3.9-9
			c0-3.9,0.2-9.8,0.6-17.6c0.4-7.8,0.6-13.7,0.6-17.6c0-3.6-0.2-7.4-0.5-11.3c-12.1,16.3-23,28.4-32.6,36
			c-8.7,6.9-15.2,12.4-19.4,16.5c-4.2,4.1-8.8,6.1-13.7,6.1c-3.6,0-6.9-0.9-9.8-2.7c-3.3-2.2-5-5.3-5-9.3c0-17.3-0.3-35.3-1-54
			c-0.7-19.5-1.1-29-1.1-28.6c0-3.7,1.3-6.8,3.8-9.2s5.8-3.7,9.9-3.7c7.3,0,11.8,3.8,13.4,11.3c0.3,1,0.6,7.4,0.9,18.9l1,37.2
			c8.4-7.6,17.3-16.9,26.9-28c2.2-2.6,10.3-12.6,24.3-30c4.6-5.8,9.8-8.7,15.4-8.7c3.8,0,7.1,1.2,9.7,3.7c2.6,2.4,3.9,5.5,3.9,9
			c0,6.8,0.1,16.9,0.4,30.5c0.3,13.5,0.4,23.7,0.4,30.5c0,2.3-0.1,5.9-0.4,10.5C3506.5,1253,3506.4,1256.5,3506.4,1258.9z"/>
		<path class="st2" d="M3596.6,1188.7c-1.8,0-4.4-0.1-7.9-0.2c-3.5-0.2-6.1-0.2-7.9-0.2c-1,0-2.1,0.1-3.2,0.2
			c1.4,29.2,2.1,49.9,2.1,61.9c0,14.6-4.8,21.9-14.3,21.9c-3.5,0-6.6-1.1-9.3-3.2c-2.9-2.3-4.3-5.2-4.3-8.7c0-2.3,0.1-5.7,0.3-10.4
			c0.2-4.7,0.3-8.1,0.3-10.4c0-8.9-0.6-25.8-1.8-50.7c-1.2,0-4.1,0-8.7,0c-6.6,0-11.5-0.6-14.6-1.9c-4.9-2-7.3-5.7-7.3-11.2
			c0-3.5,1.2-6.6,3.7-9.1c2.4-2.6,5.6-3.9,9.5-3.9h57.7c12.7,0,19,4.4,19,13.1c0,3.6-1.3,6.7-3.8,9.2
			C3603.9,1187.4,3600.6,1188.7,3596.6,1188.7z"/>
		<path class="st2" d="M3669.2,1272c-14.7,0-27.3-4.1-37.7-12.2c-11.1-8.8-16.7-20.1-16.7-34.1c0-15.8,5.1-30.2,15.4-43.3
			c11.8-15,26.8-22.6,45-22.6c34.9,0,52.3,15.4,52.3,46.3c0,15.8-4.7,30.1-14.2,43C3702.2,1264.3,3687.5,1272,3669.2,1272z
			 M3675.3,1185.5c-8.7,0-16.2,4.2-22.7,12.5s-9.7,17.5-9.7,27.7c0,6.1,2.5,11.1,7.4,14.9c4.9,3.8,11.2,5.8,18.9,5.8
			c8.4,0,15.6-4.2,21.6-12.5c5.8-8,8.7-17.3,8.7-27.7c0-8.1-1.7-13.6-5-16.4C3691.1,1186.9,3684.7,1185.5,3675.3,1185.5z"/>
		<path class="st2" d="M3814.9,1267.3c-6.4,0-10.7-2.9-13.1-8.8c-1.6-4.2-5.8-11-12.5-20.4c-7.2-10.2-11.9-15.3-14.2-15.3
			c-0.5-0.1-3.1-0.1-7.8-0.1l-0.1,17.8c0,0.8,0,2.3,0.1,4.3c0.1,2,0.1,3.6,0.1,4.7c0,12.7-4.7,19-14.2,19c-3.6,0-6.8-1-9.5-3
			c-2.9-2.3-4.3-5.2-4.3-8.9c0-2.9,0.1-7.3,0.4-13.4c0.3-6.1,0.4-10.6,0.4-13.5c0-5.8-0.2-14.5-0.7-26c-0.5-11.5-0.7-20.1-0.7-25.9
			c0-10.3,4.7-15.4,14-15.4c3.7,0,6.9,1.1,9.5,3.2c2.8,2.3,4.2,5.3,4.2,8.8c0,4.8,0.2,12.5,0.5,23.2c7,0.1,11.8-1.4,14.5-4.3
			c0.5-0.5,2.7-4.6,6.7-12.3c5.7-11.1,13.1-16.7,22.2-16.7c3,0,6.2,0.9,9.8,2.7c4.2,2.1,6.3,4.8,6.3,7.8c0,3-1,5.5-3,7.6
			c-2,2.1-4.5,3.1-7.6,3.1c-1.7,0-4.1,3-7.3,9c-1.7,3.5-3.4,7-5.2,10.5c-1.4,2.3-2.8,4.3-4.3,6c6.8,5.6,13.3,12.9,19.5,22
			c6.7,9.6,10.1,17.1,10.1,22.5c0,3.6-1.6,6.6-4.7,8.9C3821.4,1266.3,3818.4,1267.3,3814.9,1267.3z"/>
	</g>
	<g>
		<path class="st0" d="M2674,1924.6c3,0.7,5.7,2.2,7.6,4.7c3,4.1,3.2,9.6,0.4,13.8c-2.8,4.2-7.9,6.2-12.7,5.1
			c-4.9-1.1-8.6-5.3-9.2-10.3c-0.7-6,3-11.5,8.9-13c0.3-0.1,0.7-0.2,1-0.3C2671.3,1924.6,2672.6,1924.6,2674,1924.6z"/>
		<path class="st0" d="M2660.8,1969.6c-1.7,2.3-3.3,4.7-4.7,7.2c-1.1,2-2.1,4-3,6.1c-0.7,1.6-1.6,2.8-3.4,3.3
			c-0.6,0.2-0.8,0.7-1.1,1.2c-4.3,7.5-8.6,15.1-12.9,22.6c-2.4,4.2-4.8,8.4-7.2,12.6c-0.3,0.6-0.4,1-0.1,1.7c1,2,0.5,4.1-1,5.5
			c-1.6,1.4-3.8,1.6-5.6,0.5c-1.8-1.1-2.6-3.2-1.9-5.3c0.2-0.7,0-1-0.6-1.3c-1.5-0.8-3-1.6-4.4-2.5c-1.9-1.1-2.2-2-1.1-3.9
			c3.3-5.9,6.7-11.9,10.1-17.8c1.4-2.6,2.9-5.1,4.3-7.7c1-1.8,2.1-2.1,3.9-1.1c2.1,1.2,4.3,2.4,6.4,3.6c0.6,0.4,0.9,0.3,1.3-0.3
			c1.6-2.8,3.2-5.7,4.8-8.5c0.2-0.4,0.3-0.8,0-1.2c-1.1-1.6-1-3.2-0.3-4.9c2.6-6.2,6.2-11.8,10.2-17.1c2.6-3.4,5.3-6.6,8.3-9.5
			c4.6-4.6,10.8-5,15.9-1c2.6,2,5,4.3,7.6,6.3c3.9,3.1,8,5.7,12.8,7c1.2,0.3,2.4,0.4,3.5,0.7c2.2,0.6,3.7,2.8,3.4,5
			c-0.3,2.5-2.3,4.3-4.7,4.3c-1.4,0-2.7-0.3-4-0.5c-4.9-0.9-9.5-2.5-13.5-5.5c-0.2-0.1-0.4-0.4-0.6-0.2c-0.1,0.1-0.1,0.5-0.1,0.7
			c0.2,2.6,0.5,5.3,0.7,7.9c0.2,2.3,0.5,4.7,0.5,7c0,1.6-0.4,3.2-1.3,4.5c-0.4,0.6-0.4,1.1,0,1.7c6.1,10.1,11.3,20.7,16.1,31.5
			c1.7,3.9,0.1,7.7-3.8,8.7c-2.8,0.8-5.6-0.6-6.9-3.4c-1.3-2.8-2.6-5.6-3.9-8.4c-3.2-6.8-6.6-13.5-10.4-20c-0.6-1-0.6-1-1.2,0
			c-3.9,7-7.5,14.2-11.2,21.3c-1.3,2.4-2.6,4.9-3.9,7.3c-1.6,2.7-4.4,3.9-7.1,3.1c-3.6-1.1-5.3-5.1-3.6-8.4c1.8-3.6,3.9-7,5.8-10.5
			c3.7-6.7,7.4-13.4,11.1-20.1c0.4-0.7,0.5-1.3-0.1-2c-1.1-1.4-1.4-3-1.6-4.8c-0.4-5-0.9-10-1.3-15.1
			C2660.9,1969.8,2660.8,1969.7,2660.8,1969.6z M2625.6,2026.5c0-0.8-0.7-1.5-1.6-1.5c-0.8,0-1.5,0.7-1.4,1.6c0,0.8,0.7,1.4,1.5,1.4
			C2625,2028,2625.6,2027.3,2625.6,2026.5z"/>
	</g>
	<g>
		<path class="st0" d="M3415.8,1943.9c1.5,0.5,3,1,4.2,2.1c2.9,2.6,4.1,5.8,3,9.6c-1.1,4-3.8,6.3-7.9,6.9c-4.8,0.7-9.3-2.6-10.3-7.5
			c-1-4.5,1.8-9.3,6.4-10.8c0.4-0.1,0.8-0.3,1.1-0.4C3413.5,1943.9,3414.6,1943.9,3415.8,1943.9z"/>
		<path class="st0" d="M3461,2017.2c-5.5-0.1-10-2.1-14.1-5.3c-2.1-1.6-3.9-3.5-5.5-5.5c-0.5-0.6-0.9-0.6-1.6-0.4
			c-6.4,2.3-12,5.8-17.2,10.1c-1.1,0.9-1.9,1.9-2.5,3.2c-2.4,5.1-4.9,10.2-7.4,15.2c-2.1,4.3-7.2,4.9-10.2,1.3
			c-1.3-1.5-1.6-3.3-0.9-5.2c0.9-2.2,2-4.4,3.1-6.6c1.9-3.9,3.8-7.7,5.6-11.6c0.9-2,2.3-3.3,3.9-4.6c4.2-3.5,8.6-6.6,13.4-9.1
			c0.6-0.3,0.7-0.5,0.4-1.1c-3.3-6.2-6.7-12.4-10.1-18.6c-0.4-0.6-0.7-0.7-1.4-0.6c-10.3,2.7-19.2,0-26.8-7.2
			c-1.6-1.5-2.9-3.1-4.2-4.8c-1.3-1.8-2.1-3.7-0.9-5.8c1.2-2.2,3.2-3.2,5.7-3.2c2.1,0,3.7,1,4.9,2.6c1.1,1.5,2.3,2.9,3.8,4.1
			c4.8,4.1,10.2,4.7,16,2.6c1.3-0.5,2.5-1.2,3.8-1.7c3.4-1.4,6.3-3.8,9.7-5.2c10.5-4.3,20.2-3.3,29.2,3.8c2.6,2.1,4.8,4.5,6.7,7.3
			c2,2.9,1.2,6.1-2,7.7c-3,1.5-6,0.9-8.1-1.9c-1.9-2.5-4.1-4.8-7-6.3c-3.6-1.8-7.3-1.9-11.1-0.9c-0.8,0.2-0.6,0.5-0.3,1
			c3.4,6,6.8,12.1,9.9,18.3c1.4,2.9,2.7,5.8,4.6,8.4c1.2,1.7,2.5,3.3,4.1,4.6c3.4,2.8,7.1,3.2,11.1,1.3c0.6-0.3,1.1-0.5,1.6-0.8
			c4.3-2.3,8.3,0.8,9.1,4.6c0.5,2.6-0.3,4.8-2.5,6.2C3469.7,2015.7,3465.4,2017.1,3461,2017.2z"/>
	</g>
	<circle class="st0" cx="3336.5" cy="2009.5" r="9.2"/>
</g>
</svg>
