<?xml version="1.0" encoding="utf-8"?>
<!-- Generator: Adobe Illustrator 28.2.0, SVG Export Plug-In . SVG Version: 6.00 Build 0)  -->
<svg version="1.1" id="Шар_1" xmlns="http://www.w3.org/2000/svg" xmlns:xlink="http://www.w3.org/1999/xlink" x="0px" y="0px"
	 viewBox="0 0 1080 1080" style="enable-background:new 0 0 1080 1080;" xml:space="preserve">
<style type="text/css">
	.st0{fill:#00A43C;}
	.st1{display:none;}
	.st2{display:inline;fill:#00A43C;}
</style>
<g>
	<path class="st0" d="M749.3,40.3c28.4,7,52.9,20.1,70.8,44.1c28.4,38.2,29.9,89.4,3.7,129c-25.9,39.2-73.6,58.3-119.1,47.7
		c-46.1-10.7-80.5-49.1-86.1-96.2c-6.7-55.8,28.2-107.1,82.7-121.8c3.1-0.8,6.1-1.9,9.2-2.9C723.5,40.3,736.4,40.3,749.3,40.3z"/>
	<path class="st0" d="M625.3,460.2c-16.3,21.8-30.9,44.1-44.3,67.2c-10.7,18.5-20,37.7-28.4,57.3c-6.3,14.6-15.4,26.1-31.4,30.6
		c-5.7,1.6-7.5,6.8-10,11.2c-40.2,70.5-80.3,141-120.5,211.5c-22.4,39.3-44.7,78.7-67.3,117.9c-3.2,5.5-3.9,9.8-0.9,16
		c9,18.5,4.8,38.5-9.7,51.3c-14.7,12.9-35.9,14.8-52.3,4.6c-16.6-10.4-23.9-29.6-18-49.9c1.9-6.6-0.2-9.2-5.5-12.1
		c-14-7.5-27.7-15.3-41.5-23.2c-17.7-10.1-20.2-18.8-10.2-36.5c31.3-55.5,62.7-110.8,94.1-166.2c13.5-23.9,27-47.8,40.5-71.8
		c9.7-17.2,19.5-19.9,36.6-10.3c20,11.2,40.1,22.3,59.9,33.8c5.8,3.4,8.9,2.9,12.2-3c14.7-26.6,29.6-53.1,44.5-79.5
		c2.3-4,2.7-7.5-0.1-11.7c-9.9-14.8-9.4-30.3-2.7-46.2c24.4-57.9,57.7-110.4,95.7-160.2c24-31.4,49.6-61.3,77.5-89.2
		c42.7-42.7,100.5-46.4,148.4-9.2c24.2,18.8,46.8,39.8,70.8,58.9c36.2,28.6,74.5,53.7,119.9,65.7c10.9,2.9,22.3,3.9,33.2,6.8
		c20.3,5.4,34.5,26.6,32,46.3c-3,23.2-21.1,39.8-43.9,39.9c-12.6,0-25.1-2.5-37.4-4.6c-45.8-8-88.6-23.5-126.3-51.4
		c-1.7-1.3-3.7-3.9-5.7-1.9c-1.2,1.2-1.1,4.3-0.9,6.4c2.1,24.8,4.6,49.5,6.5,74.3c1.7,21.9,4.7,43.7,5.1,65.7
		c0.3,15.4-3.5,29.5-12,42.2c-3.9,5.8-3.4,10.3,0,15.9c57.3,94.4,105.6,193.4,150.7,294c16.2,36.1,0.8,71.8-35.4,81.8
		c-25.9,7.1-52.3-5.4-64.9-31.6c-12.5-25.9-23.9-52.3-36.2-78.3C817,858.9,785.3,796,749.4,735.3c-5.4-9.2-6-9.2-11.3,0.3
		c-36.4,65.6-70,132.6-104.8,199c-12,22.9-24,45.8-36.7,68.3c-14.5,25.7-41,36.9-66.3,29.2c-33.4-10.2-50-47.2-33.7-78.9
		c17.1-33.3,36.1-65.7,54.2-98.6c34.4-62.6,68.7-125.2,103.3-187.7c3.9-7,4.7-12.1-0.8-18.9c-10.2-12.8-13.4-28.5-14.8-44.4
		c-4.1-47-8-93.9-12.1-140.9C626.4,462.1,626,461.6,625.3,460.2z M296.7,991.9c-0.2-7.8-6.8-14.1-14.5-13.8
		c-7.8,0.3-13.7,6.9-13.4,14.9c0.3,7.5,6.3,13,14,13C290.9,1006,296.9,999.8,296.7,991.9z"/>
</g>
<g class="st1">
	<path class="st2" d="M486.5,1043.1c-25.2-7.7-38.4-25.5-45.5-50.3c-14.9-51.3-31.4-102.2-46.7-153.4c-2.3-7.8-6.1-10-13.9-10
		c-44.7,0.4-89.5-0.9-134.1,0.5c-36.6,1.2-75-24.5-75.4-72.9c-0.5-70-0.9-139.9,0.1-209.9c0.8-55.1,34.8-95.9,86.7-104.5
		c62.1-10.3,113.1,34.6,119.2,88.8c3.7,32.9,0.4,66.1,1.5,99.1c0.6,16.7,0.2,33.5-0.2,50.3c-0.2,6.8,1.7,9.7,8.9,9.5
		c15.1-0.4,30.2-0.6,45.3,0c25.9,0.9,45.3,12.6,55.1,37.1c20.1,50.2,33.9,102.5,49.1,154.3c8.1,27.9,16,55.9,23.6,83.9
		c9.1,33.4-6.1,62.4-38.5,74.4c-2.1,0.8-4.1,1.5-6.2,2.2C506.9,1042.6,494.8,1042.9,486.5,1043.1z"/>
	<path class="st2" d="M152.9,658.9c0,32.9,0,65.9,0,98.8c0.1,42.3,29.4,78.9,70.3,88.1c6.8,1.5,13.6,1.4,20.5,1.4
		c39.8,0.1,79.6,0,119.4,0c11.1,0,11.6,0.6,11.6,11.6c0,42,0.2,84,0,125.9c-0.1,29.8-18.5,52.3-44.6,55.6
		c-33.2,4.2-58.7-19.3-59.2-54.7c-0.3-27.7-0.3-55.4,0.1-83.1c0.2-10.3-3.8-11.9-17.7-10.3c-25.1,2.8-50.5,2.7-75.7,0
		c-12.6-1.3-16.7-0.6-16.6,8.8c0.4,29.1,0.2,58.2,0.1,87.3c-0.1,29.9-22.5,52.8-51.5,52.8c-28.9,0-51.6-23-51.6-52.9
		c-0.1-136.6-0.1-273.3,0-409.9c0-22.3,12.9-41.4,32.5-49c20-7.7,42.2-2.6,56.7,12.9c4,4.3,5.9,8.8,5.8,14.7
		C152.8,590.9,152.9,624.9,152.9,658.9z"/>
	<path class="st2" d="M386.8,311.9c0,62.7-50.2,112.8-113,112.7c-61.8-0.1-112.1-50.8-112.1-113c0-62,50.4-112.1,112.8-112
		C337,199.6,386.8,249.4,386.8,311.9z"/>
</g>
</svg>
