<?xml version="1.0" encoding="utf-8"?>
<!-- Generator: Adobe Illustrator 28.2.0, SVG Export Plug-In . SVG Version: 6.00 Build 0)  -->
<svg version="1.1" id="Шар_1" xmlns="http://www.w3.org/2000/svg" xmlns:xlink="http://www.w3.org/1999/xlink" x="0px" y="0px"
	 viewBox="0 0 1080 1080" style="enable-background:new 0 0 1080 1080;" xml:space="preserve">
<style type="text/css">
	.st0{display:none;}
	.st1{display:inline;fill:#00A43C;}
	.st2{fill:#00A43C;stroke:#00A43C;stroke-width:30;stroke-miterlimit:10;}
</style>
<g class="st0">
	<path class="st1" d="M749.3,40.3c28.4,7,52.9,20.1,70.8,44.1c28.4,38.2,29.9,89.4,3.7,129c-25.9,39.2-73.6,58.3-119.1,47.7
		c-46.1-10.7-80.5-49.1-86.1-96.2c-6.7-55.8,28.2-107.1,82.7-121.8c3.1-0.8,6.1-1.9,9.2-2.9C723.5,40.3,736.4,40.3,749.3,40.3z"/>
	<path class="st1" d="M625.3,460.2c-16.3,21.8-30.9,44.1-44.3,67.2c-10.7,18.5-20,37.7-28.4,57.3c-6.3,14.6-15.4,26.1-31.4,30.6
		c-5.7,1.6-7.5,6.8-10,11.2c-40.2,70.5-80.3,141-120.5,211.5c-22.4,39.3-44.7,78.7-67.3,117.9c-3.2,5.5-3.9,9.8-0.9,16
		c9,18.5,4.8,38.5-9.7,51.3c-14.7,12.9-35.9,14.8-52.3,4.6c-16.6-10.4-23.9-29.6-18-49.9c1.9-6.6-0.2-9.2-5.5-12.1
		c-14-7.5-27.7-15.3-41.5-23.2c-17.7-10.1-20.2-18.8-10.2-36.5c31.3-55.5,62.7-110.8,94.1-166.2c13.5-23.9,27-47.8,40.5-71.8
		c9.7-17.2,19.5-19.9,36.6-10.3c20,11.2,40.1,22.3,59.9,33.8c5.8,3.4,8.9,2.9,12.2-3c14.7-26.6,29.6-53.1,44.5-79.5
		c2.3-4,2.7-7.5-0.1-11.7c-9.9-14.8-9.4-30.3-2.7-46.2c24.4-57.9,57.7-110.4,95.7-160.2c24-31.4,49.6-61.3,77.5-89.2
		c42.7-42.7,100.5-46.4,148.4-9.2c24.2,18.8,46.8,39.8,70.8,58.9c36.2,28.6,74.5,53.7,119.9,65.7c10.9,2.9,22.3,3.9,33.2,6.8
		c20.3,5.4,34.5,26.6,32,46.3c-3,23.2-21.1,39.8-43.9,39.9c-12.6,0-25.1-2.5-37.4-4.6c-45.8-8-88.6-23.5-126.3-51.4
		c-1.7-1.3-3.7-3.9-5.7-1.9c-1.2,1.2-1.1,4.3-0.9,6.4c2.1,24.8,4.6,49.5,6.5,74.3c1.7,21.9,4.7,43.7,5.1,65.7
		c0.3,15.4-3.5,29.5-12,42.2c-3.9,5.8-3.4,10.3,0,15.9c57.3,94.4,105.6,193.4,150.7,294c16.2,36.1,0.8,71.8-35.4,81.8
		c-25.9,7.1-52.3-5.4-64.9-31.6c-12.5-25.9-23.9-52.3-36.2-78.3C817,858.9,785.3,796,749.4,735.3c-5.4-9.2-6-9.2-11.3,0.3
		c-36.4,65.6-70,132.6-104.8,199c-12,22.9-24,45.8-36.7,68.3c-14.5,25.7-41,36.9-66.3,29.2c-33.4-10.2-50-47.2-33.7-78.9
		c17.1-33.3,36.1-65.7,54.2-98.6c34.4-62.6,68.7-125.2,103.3-187.7c3.9-7,4.7-12.1-0.8-18.9c-10.2-12.8-13.4-28.5-14.8-44.4
		c-4.1-47-8-93.9-12.1-140.9C626.4,462.1,626,461.6,625.3,460.2z M296.7,991.9c-0.2-7.8-6.8-14.1-14.5-13.8
		c-7.8,0.3-13.7,6.9-13.4,14.9c0.3,7.5,6.3,13,14,13C290.9,1006,296.9,999.8,296.7,991.9z"/>
</g>
<g>
	<path class="st2" d="M985,471.4c-9.8,32.8-19.8,65.5-29.4,98.4c-25.1,85.7-49.9,171.4-75,257.1c-12.9,43.9-42.5,65.8-88.2,65.8
		c-204.4,0-408.8,0-613.2,0c-42.7,0-76.5-27.2-84.4-67.9c-1-5.1-1.1-10.3-1.1-15.5c-0.1-182.1-0.1-364.3,0-546.4
		c0-42.5,32.6-75.2,75.3-75.4c70.3-0.2,140.5-0.3,210.8,0.1c28.1,0.2,51.6,11.6,69.9,33c11.1,13,22.2,26,32.2,39.7
		c10.3,14.1,23.2,19.7,40.8,19.6c90.2-0.5,180.4-0.3,270.6-0.2c40.5,0,72.8,25.7,77.9,63.6c2.4,17.6,0.8,35.8,1,53.7
		c0.1,12.5,0,12.5,12.1,12.5c11,0,22,0,33,0c38.1,0,53,11.1,67.2,48.6c0.6,1.2,1.4,3.1,1.6,5.6C986.5,467.2,985.6,470,985,471.4z
		 M527.8,853.6c89.9,0,179.8,0,269.7,0c21.8,0,38.2-11.8,44.2-32.2c33.7-115.1,67.2-230.2,100.7-345.3c5.4-18.7-1.5-27.6-21.1-27.6
		c-172.3,0-344.6,0-516.9,0c-24.2,0-39.6,11.4-46.5,34.9c-27.7,94.5-55.1,189.2-82.8,283.7c-7.4,25.2-13.7,50.8-22.9,75.4
		c-4.2,11.2-4.7,11,7.6,11C349.1,853.6,438.4,853.6,527.8,853.6z M610.1,409.5c70.8,0,141.7-0.1,212.5,0.2c8.3,0,11.2-2.3,10.9-10.8
		c-0.6-15.3-0.1-30.6-0.3-46c-0.2-12.2-6.1-21.5-16.1-28.1c-8.1-5.3-17.2-6.2-26.6-6.2c-90.8,0-181.6-0.2-272.3,0.1
		c-26.2,0.1-46.9-10-63.2-30.2c-11.4-14.2-22.8-28.4-34.6-42.3c-11.1-13.1-25.4-19.7-42.6-19.7c-69.4,0-138.8,0-208.1,0.1
		c-3.4,0-7,0.3-10.3,1.2c-17.3,4.7-26.6,18.1-26.6,38.7c0,179.8,0,359.6,0,539.5c0,2.3,0,4.6,0.1,6.9c0.5,13.3,6.4,23.9,16.9,31.8
		c26.7,19.8,60.3,6.7,70.2-27.4c33.3-114.3,66.6-228.5,99.9-342.8c12.1-41.6,42.9-64.9,86.3-64.9
		C474.2,409.5,542.1,409.5,610.1,409.5z"/>
</g>
</svg>
