<?xml version="1.0" encoding="utf-8"?>
<!-- Generator: Adobe Illustrator 28.2.0, SVG Export Plug-In . SVG Version: 6.00 Build 0)  -->
<svg version="1.1" id="Шар_1" xmlns="http://www.w3.org/2000/svg" xmlns:xlink="http://www.w3.org/1999/xlink" x="0px" y="0px"
	 viewBox="0 0 1080 1080" style="enable-background:new 0 0 1080 1080;" xml:space="preserve">
<style type="text/css">
	.st0{display:none;}
	.st1{display:inline;fill:#00A43C;}
	.st2{fill:#EFC825;}
</style>
<g class="st0">
	<path class="st1" d="M749.3,40.3c28.4,7,52.9,20.1,70.8,44.1c28.4,38.2,29.9,89.4,3.7,129c-25.9,39.2-73.6,58.3-119.1,47.7
		c-46.1-10.7-80.5-49.1-86.1-96.2c-6.7-55.8,28.2-107.1,82.7-121.8c3.1-0.8,6.1-1.9,9.2-2.9C723.5,40.3,736.4,40.3,749.3,40.3z"/>
	<path class="st1" d="M625.3,460.2c-16.3,21.8-30.9,44.1-44.3,67.2c-10.7,18.5-20,37.7-28.4,57.3c-6.3,14.6-15.4,26.1-31.4,30.6
		c-5.7,1.6-7.5,6.8-10,11.2c-40.2,70.5-80.3,141-120.5,211.5c-22.4,39.3-44.7,78.7-67.3,117.9c-3.2,5.5-3.9,9.8-0.9,16
		c9,18.5,4.8,38.5-9.7,51.3c-14.7,12.9-35.9,14.8-52.3,4.6c-16.6-10.4-23.9-29.6-18-49.9c1.9-6.6-0.2-9.2-5.5-12.1
		c-14-7.5-27.7-15.3-41.5-23.2c-17.7-10.1-20.2-18.8-10.2-36.5c31.3-55.5,62.7-110.8,94.1-166.2c13.5-23.9,27-47.8,40.5-71.8
		c9.7-17.2,19.5-19.9,36.6-10.3c20,11.2,40.1,22.3,59.9,33.8c5.8,3.4,8.9,2.9,12.2-3c14.7-26.6,29.6-53.1,44.5-79.5
		c2.3-4,2.7-7.5-0.1-11.7c-9.9-14.8-9.4-30.3-2.7-46.2c24.4-57.9,57.7-110.4,95.7-160.2c24-31.4,49.6-61.3,77.5-89.2
		c42.7-42.7,100.5-46.4,148.4-9.2c24.2,18.8,46.8,39.8,70.8,58.9c36.2,28.6,74.5,53.7,119.9,65.7c10.9,2.9,22.3,3.9,33.2,6.8
		c20.3,5.4,34.5,26.6,32,46.3c-3,23.2-21.1,39.8-43.9,39.9c-12.6,0-25.1-2.5-37.4-4.6c-45.8-8-88.6-23.5-126.3-51.4
		c-1.7-1.3-3.7-3.9-5.7-1.9c-1.2,1.2-1.1,4.3-0.9,6.4c2.1,24.8,4.6,49.5,6.5,74.3c1.7,21.9,4.7,43.7,5.1,65.7
		c0.3,15.4-3.5,29.5-12,42.2c-3.9,5.8-3.4,10.3,0,15.9c57.3,94.4,105.6,193.4,150.7,294c16.2,36.1,0.8,71.8-35.4,81.8
		c-25.9,7.1-52.3-5.4-64.9-31.6c-12.5-25.9-23.9-52.3-36.2-78.3C817,858.9,785.3,796,749.4,735.3c-5.4-9.2-6-9.2-11.3,0.3
		c-36.4,65.6-70,132.6-104.8,199c-12,22.9-24,45.8-36.7,68.3c-14.5,25.7-41,36.9-66.3,29.2c-33.4-10.2-50-47.2-33.7-78.9
		c17.1-33.3,36.1-65.7,54.2-98.6c34.4-62.6,68.7-125.2,103.3-187.7c3.9-7,4.7-12.1-0.8-18.9c-10.2-12.8-13.4-28.5-14.8-44.4
		c-4.1-47-8-93.9-12.1-140.9C626.4,462.1,626,461.6,625.3,460.2z M296.7,991.9c-0.2-7.8-6.8-14.1-14.5-13.8
		c-7.8,0.3-13.7,6.9-13.4,14.9c0.3,7.5,6.3,13,14,13C290.9,1006,296.9,999.8,296.7,991.9z"/>
</g>
<g>
	<path class="st2" d="M248.4,421.9c26.5,20.6,53,41.2,79.5,61.9c61,47.5,122,94.9,183,142.4c19.6,15.2,37.2,16.1,55.9,1.7
		c86.4-67,172.6-134.2,258.9-201.4c1.9-1.5,3.8-3.1,7.9-6.4c-19.6,0-36.7,0.2-53.7-0.1c-18.4-0.3-33.9-12.8-38.5-30.5
		c-6.2-24.2,10.4-50,35.4-51c34.5-1.3,69.2-3.3,103.5,1.2c57,7.5,102.7,58.1,102.9,115.2c0.6,137.3,0.7,274.6,0,411.9
		c-0.4,63.4-55.7,116.5-120,116.7c-99.9,0.3-199.8,0.1-299.7,0.1c-113.4,0-226.8,0-340.3,0c-74.3,0-126.8-52.7-126.9-127.2
		c0-130.7,0-261.4,0-392.1c0-73.8,52.8-126.4,126.6-126.5c25.4,0,50.9-0.3,76.3,0.1c21.6,0.4,38,16.4,40.5,38.5
		c2.1,18.3-11.5,37.4-30.5,42.3c-4.2,1.1-8.7,1.2-13.1,1.2c-15.7,0.1-31.4,0.1-47,0.1C248.9,420.6,248.7,421.3,248.4,421.9z
		 M539.4,901.3c104.6,0,209.2,0,313.9,0c32.7,0,47.9-15.2,47.9-48c0-123.2,0-246.3,0-369.5c0-3,1.6-7.2-1.3-8.8
		c-3.2-1.7-5.3,2.3-7.7,4.2c-91.3,70.9-182.5,142-273.8,212.8c-49.4,38.3-107.2,38.6-156.3,0.5c-81.5-63.1-162.7-126.5-244-189.8
		c-10.7-8.3-21.3-16.6-32-24.8c-1.9-1.4-3.6-4.5-6.3-3c-2.5,1.4-0.9,4.6-1.2,7c-0.1,0.9,0,1.9,0,2.8c0,122.8,0,245.7,0,368.5
		c0,32.8,15.2,48,47.9,48C330.8,901.4,435.1,901.3,539.4,901.3z"/>
	<path class="st2" d="M583.2,239.9c-2.4,4.9-1.6,8.7-1.6,12.4c-0.1,54,0,108.1-0.1,162.1c-0.1,22.9-11.6,39.4-30.6,44.6
		c-27.5,7.5-52.2-12.5-52.6-43c-0.4-33.9-0.1-67.9-0.1-101.8c0-21.4,0-42.7-0.1-64.1c0-3,1-6.2-1.2-9.1c-3.6,0.3-5.2,3.4-7.3,5.5
		c-13.9,13.7-27.4,27.7-41.5,41.2c-12.2,11.7-26.9,14.8-42.8,9.3c-16-5.5-24.8-17.7-27.2-34.3c-1.4-10,1.4-19.4,7.2-27.6
		c2.9-4.1,6.3-7.8,9.9-11.3c36.4-36.5,72.8-72.9,109.3-109.3c24.4-24.3,46.3-24.2,70.8,0.2c36.9,36.8,73.7,73.8,110.7,110.6
		c10.5,10.5,17.3,22.5,15.3,37.8c-2.2,16.7-11.3,28.7-27.4,34.1c-15.9,5.3-30.5,2.1-42.7-9.6c-13.5-13.1-26.7-26.6-40.1-39.9
		C588.9,245.2,586.3,242.9,583.2,239.9z"/>
</g>
</svg>
