<?xml version="1.0" encoding="utf-8"?>
<!-- Generator: Adobe Illustrator 28.2.0, SVG Export Plug-In . SVG Version: 6.00 Build 0)  -->
<svg version="1.1" id="Шар_1" xmlns="http://www.w3.org/2000/svg" xmlns:xlink="http://www.w3.org/1999/xlink" x="0px" y="0px"
	 viewBox="0 0 1080 1080" style="enable-background:new 0 0 1080 1080;" xml:space="preserve">
<style type="text/css">
	.st0{fill:#00A43C;}
</style>
<g>
	<path class="st0" d="M538.4,1016.1c-110.8,0-221.6,0-332.4,0c-23.5,0-34.5-10.4-33.6-33.8c6.4-154.1,80.2-263.9,218.5-331.1
		c10.6-5.1,20.7-4.9,31.2-0.1c36.8,16.9,75.6,25.1,115.9,25.2c40.3,0.1,79.3-7.6,116-24.6c12.3-5.7,23.4-5.3,35.3,0.5
		c119.9,57.9,191.2,152.1,212.7,283.8c2.7,16.2,3.6,32.6,3.4,49c-0.2,19.8-11.2,31-31.2,31C762.4,1016.1,650.4,1016.1,538.4,1016.1z
		"/>
	<path class="st0" d="M764.8,396.5C764.7,521.6,664,621.5,538.6,622.1c-122.9,0.5-225.9-101.9-225.8-226.4
		C313,272.5,415.3,169.4,540.2,170C663.3,170.6,766.2,272.7,764.8,396.5z"/>
</g>
</svg>
