<?xml version="1.0" encoding="utf-8"?>
<!-- Generator: Adobe Illustrator 28.2.0, SVG Export Plug-In . SVG Version: 6.00 Build 0)  -->
<svg version="1.1" id="Шар_1" xmlns="http://www.w3.org/2000/svg" xmlns:xlink="http://www.w3.org/1999/xlink" x="0px" y="0px"
	 viewBox="0 0 1080 1080" style="enable-background:new 0 0 1080 1080;" xml:space="preserve">
<style type="text/css">
	.st0{display:none;}
	.st1{display:inline;fill:#00A43C;}
	.st2{fill:#00A43C;stroke:#00A43C;stroke-width:15;stroke-miterlimit:10;}
</style>
<g class="st0">
	<path class="st1" d="M749.3,40.3c28.4,7,52.9,20.1,70.8,44.1c28.4,38.2,29.9,89.4,3.7,129c-25.9,39.2-73.6,58.3-119.1,47.7
		c-46.1-10.7-80.5-49.1-86.1-96.2c-6.7-55.8,28.2-107.1,82.7-121.8c3.1-0.8,6.1-1.9,9.2-2.9C723.5,40.3,736.4,40.3,749.3,40.3z"/>
	<path class="st1" d="M625.3,460.2C609,482,594.4,504.3,581,527.4c-10.7,18.5-20,37.7-28.4,57.3c-6.3,14.6-15.4,26.1-31.4,30.6
		c-5.7,1.6-7.5,6.8-10,11.2C471,697,430.9,767.5,390.7,838c-22.4,39.3-44.7,78.7-67.3,117.9c-3.2,5.5-3.9,9.8-0.9,16
		c9,18.5,4.8,38.5-9.7,51.3c-14.7,12.9-35.9,14.8-52.3,4.6c-16.6-10.4-23.9-29.6-18-49.9c1.9-6.6-0.2-9.2-5.5-12.1
		c-14-7.5-27.7-15.3-41.5-23.2c-17.7-10.1-20.2-18.8-10.2-36.5c31.3-55.5,62.7-110.8,94.1-166.2c13.5-23.9,27-47.8,40.5-71.8
		c9.7-17.2,19.5-19.9,36.6-10.3c20,11.2,40.1,22.3,59.9,33.8c5.8,3.4,8.9,2.9,12.2-3c14.7-26.6,29.6-53.1,44.5-79.5
		c2.3-4,2.7-7.5-0.1-11.7c-9.9-14.8-9.4-30.3-2.7-46.2C494.7,493.3,528,440.8,566,391c24-31.4,49.6-61.3,77.5-89.2
		c42.7-42.7,100.5-46.4,148.4-9.2c24.2,18.8,46.8,39.8,70.8,58.9c36.2,28.6,74.5,53.7,119.9,65.7c10.9,2.9,22.3,3.9,33.2,6.8
		c20.3,5.4,34.5,26.6,32,46.3c-3,23.2-21.1,39.8-43.9,39.9c-12.6,0-25.1-2.5-37.4-4.6c-45.8-8-88.6-23.5-126.3-51.4
		c-1.7-1.3-3.7-3.9-5.7-1.9c-1.2,1.2-1.1,4.3-0.9,6.4c2.1,24.8,4.6,49.5,6.5,74.3c1.7,21.9,4.7,43.7,5.1,65.7
		c0.3,15.4-3.5,29.5-12,42.2c-3.9,5.8-3.4,10.3,0,15.9c57.3,94.4,105.6,193.4,150.7,294c16.2,36.1,0.8,71.8-35.4,81.8
		c-25.9,7.1-52.3-5.4-64.9-31.6c-12.5-25.9-23.9-52.3-36.2-78.3c-30.4-63.8-62.1-126.7-98-187.4c-5.4-9.2-6-9.2-11.3,0.3
		c-36.4,65.6-70,132.6-104.8,199c-12,22.9-24,45.8-36.7,68.3c-14.5,25.7-41,36.9-66.3,29.2c-33.4-10.2-50-47.2-33.7-78.9
		c17.1-33.3,36.1-65.7,54.2-98.6c34.4-62.6,68.7-125.2,103.3-187.7c3.9-7,4.7-12.1-0.8-18.9c-10.2-12.8-13.4-28.5-14.8-44.4
		c-4.1-47-8-93.9-12.1-140.9C626.4,462.1,626,461.6,625.3,460.2z M296.7,991.9c-0.2-7.8-6.8-14.1-14.5-13.8
		c-7.8,0.3-13.7,6.9-13.4,14.9c0.3,7.5,6.3,13,14,13C290.9,1006,296.9,999.8,296.7,991.9z"/>
</g>
<g>
	<path class="st2" d="M465,658.3c0-19.7,0.1-39.4,0-59.1c-0.1-14.7-5.4-22.6-19.2-27.8c-65-24.5-130.1-48.9-195.2-73.1
		c-20.2-7.5-36.3,3.8-36.4,25.5c-0.1,39.7-0.1,79.3,0,119c0,14.8,5.4,22.5,19.2,27.7c64.8,24.3,129.5,48.7,194.3,72.9
		c21.3,8,37.1-3.2,37.2-26C465.1,697.7,465,678,465,658.3z M414.9,684.5c-2.1-0.5-3.2-0.6-4.2-1c-47.2-17.7-94.4-35.3-141.4-53.3
		c-2.3-0.9-4.7-5.1-4.8-7.8c-0.4-19.7-0.2-39.4-0.2-59.1c0-1.8,0.5-3.5,0.9-5.9c9,3.4,17.3,6.4,25.6,9.5
		c38.9,14.5,77.8,29,116.6,43.8c3,1.1,7.1,4.6,7.2,7.1C415.2,639.6,414.9,661.5,414.9,684.5z"/>
	<path class="st2" d="M768.5,901.6c18.4-6.9,36.9-13.8,55.3-20.8c13.7-5.3,19.3-13,19.3-27.8c0.1-69.5,0-139-0.2-208.4
		c-0.1-21.5-16.3-32.6-36.7-25.1c-37.2,13.9-74.3,27.8-111.4,41.9c-13.9,5.2-19.2,13-19.2,27.7c0,69.2,0,138.4,0.1,207.5
		c0,22.8,16,33.6,37.4,25.7C731.7,915.6,750.1,908.5,768.5,901.6z M726.4,863.9c-0.3-2.1-0.6-3.2-0.5-4.3
		c0-50.4-0.2-100.8,0.2-151.1c0-2.5,3.1-6.2,5.6-7.2c18.3-7.3,36.8-14,55.3-21c1.7-0.6,3.5-0.8,5.8-1.2c0,9.6,0.1,18.4,0.1,27.3
		c0.1,41.5,0.2,83,0,124.6c0,3.2-1.8,8.3-4.1,9.2C768.5,848.4,747.9,855.8,726.4,863.9z"/>
	<path class="st2" d="M943,287.9c-129.4-48.4-255.8-105.6-388-145.7c-1.8-0.5-7.3-2.2-14.7-2.3c0,0-7.4,0-15,2.3
		c-11.1,3.4-170.8,63.3-388.8,145.8c-0.1,0-0.2,0.1-0.3,0.1c-13.4,5.1-22.2,18-22.2,32.4v499.9c0,0.3,0.1,0.7,0.2,1
		c4,10.4,11.9,15.9,22.3,19.7c113.4,42.2,226.6,84.8,339.8,127.4c17.5,6.6,34.9,13.5,52.4,20.3c3.2,1.2,6.4,1.8,9.7,1.8
		c4.1,0,8.2-0.7,12-2.2l1.2-0.5c130.6-49,261.3-98,391.9-147c18.1-6.8,22.5-13,22.5-32.1V321.3C966,300.8,962,295,943,287.9z
		 M515.1,795c-0.5,43.3-0.7,64.9-0.3,66.9c0,0,0.3,11.8,0.3,63.4c0,1.9-1.8,3.2-3.6,2.6c-1.7-0.6-3.2-1.1-4.8-1.7
		C446.3,903.6,386,881,325.6,858.4C274.1,839,222.5,819.7,171,800.2c-4.9-1.9-6.6-6.6-6.6-6.6c-0.8-1.6-1.2-3-1.3-3.9
		c0.4-143.7,0.8-287.4,1.2-431.1c0-4.1,4-6.9,7.8-5.4C363.6,425,502.4,477.1,508.1,479c0.7,0.2,3.6,1.1,5.4,3.8c1.2,1.8,1.6,4,1.6,7
		C515.1,591.5,516.2,693.2,515.1,795z M528.4,433.3c-83.8-31.8-167.8-63.2-251.7-94.7c-17.8-6.7-35.5-13.3-54.2-20.3
		c-4.1-1.5-4.1-7.3,0-8.8h0.1C326,270.7,429.4,232,532.7,193.1c5.3-2,9.7-2,15,0c85.2,32.1,170.5,63.9,255.7,95.9
		c19.4,7.3,38.8,14.7,59.4,22.5c2.4,0.9,2.4,4.2,0,5.1c-103.6,38.9-207.2,77.6-310.7,116.7C543.7,436.5,536.7,436.5,528.4,433.3z
		 M914.6,796.5c-102.3,40.2-197.6,76.1-293,111.8c-17.3,6.5-34.7,13-52.8,19.7c-2.4,0.9-3.7-2.6-3.7-2.6c-1.2-1.5-1.6-3.2-1.7-4.2
		c0.7-145.9,1.4-291.8,2.1-437.7c0-1.4,1.8-2.5,1.8-2.5c0.9-1.2,1.7-2.2,2.5-3.1c41.7-14.9,83.4-29.7,125.1-44.6
		c71.3-26.8,142.6-53.5,213.9-80.3h0.1c3.4-1.3,6.9,1.2,6.9,4.8v313c-0.2,64.4-0.2,110.8,0.4,117.9
		C916.3,789.6,918.1,795.1,914.6,796.5z"/>
</g>
</svg>
