<?xml version="1.0" encoding="utf-8"?>
<!-- Generator: Adobe Illustrator 28.2.0, SVG Export Plug-In . SVG Version: 6.00 Build 0)  -->
<svg version="1.1" id="Шар_1" xmlns="http://www.w3.org/2000/svg" xmlns:xlink="http://www.w3.org/1999/xlink" x="0px" y="0px"
	 viewBox="0 0 1080 1080" style="enable-background:new 0 0 1080 1080;" xml:space="preserve">
<style type="text/css">
	.st0{fill:#00A43C;}
</style>
<path class="st0" d="M875.4,141H204.6c-35.1,0-63.6,28.5-63.6,63.6v670.8c0,35.1,28.5,63.6,63.6,63.6h670.8
	c35.1,0,63.6-28.5,63.6-63.6V204.6C939,169.5,910.5,141,875.4,141z M519.5,837.5c0.2-49.7,0.2-99.4,0-149.1c0-8.7,2.3-12.3,9.6-12.1
	c17,0.4,34,0.3,51,0c6.8-0.1,9.1,3.4,9,11.5c-0.2,25.1-0.1,50.1-0.1,75.2c0,24.6-0.2,49.3,0.2,73.9c0.1,4.8-0.6,8.1-2.3,10.1h-65.3
	C520.1,845.1,519.5,841.9,519.5,837.5z M847,783.5c0,35.1-28.5,63.6-63.6,63.6H664.2c-2.1-2.4-2.9-6.4-2.8-12.7
	c0.4-66.1,0.3-132.2,0.2-198.2c-0.1-31.6-14.2-49-39.8-49.1c-44.7-0.1-89.5-0.1-134.2,0c-27.2,0-40.6,16.7-40.6,50.6
	c0,65.1-0.2,130.4,0.2,195.5c0.1,6.8-0.6,11.2-3.2,13.8H296.5c-35.1,0-63.6-28.5-63.6-63.6V296.5c0-35.1,28.5-63.6,63.6-63.6h486.9
	c35.1,0,63.6,28.5,63.6,63.6V783.5z"/>
</svg>
