<?xml version="1.0" encoding="utf-8"?>
<!-- Generator: Adobe Illustrator 28.2.0, SVG Export Plug-In . SVG Version: 6.00 Build 0)  -->
<svg version="1.1" id="Шар_1" xmlns="http://www.w3.org/2000/svg" xmlns:xlink="http://www.w3.org/1999/xlink" x="0px" y="0px"
	 viewBox="0 0 1080 1080" style="enable-background:new 0 0 1080 1080;" xml:space="preserve">
<style type="text/css">
	.st0{fill:#00A43C;}
</style>
<g>
	<path class="st0" d="M903.2,933.6C881.7,802,810.4,707.8,690.5,649.9c-12-5.8-23.1-6.1-35.3-0.5c-36.7,17-75.7,24.7-116,24.6
		c-40.3-0.1-79.1-8.3-115.9-25.2c-10.6-4.9-20.7-5.1-31.2,0.1C253.6,716,179.9,825.8,173.5,979.9c-1,23.4,10.1,33.8,33.6,33.8
		c110.8,0,221.6,0,332.4,0c112,0,224,0,336,0c19.9,0,30.9-11.2,31.2-31C906.8,966.2,905.8,949.9,903.2,933.6z"/>
	<path class="st0" d="M343.2,327.8c-6.6-5.5-16.6-2.4-19.2,5.8c-6.5,20.8-10,42.9-10,65.6c-0.2,124.5,102.9,226.9,225.8,226.4
		C665.2,625.1,765.9,525.2,766,400c0.2-19.3-2.1-38.2-6.7-56.1c-2.1-8.3-12-11.6-18.8-6.5c-31.1,23.2-99.9,65.4-195.2,64.6
		C444.7,401.2,373.8,352.9,343.2,327.8z"/>
	<path class="st0" d="M247.7,195.3c31,6.7,60.9,17.1,91.5,25.1c5.5,1.4,7.6,4.1,7.5,9.8c-0.3,16.1,0,32.2-0.1,48.4
		c-0.1,10.5,3.8,18.5,12,25.1c23.1,18.5,48.4,33,75.9,43.7c37.2,14.4,75.9,17.8,115.6,18c67.5,0.3,127.2-20,180-61.7
		c8.2-6.5,12.1-14.6,12-25.1c-0.2-15.8,0.2-31.7-0.2-47.5c-0.2-6.5,2.2-9.3,8.4-10.9c12.2-3.1,24.2-7.1,36.2-10.7
		c10.5-3.1,10.5-3,10.5,7.8c0,57.5,0,114.9,0,172.4c0,6.6,0.7,12.8,4.4,18.5c7.1,10.6,20.2,15.6,32.3,12.2
		c12.3-3.4,20.7-14,20.7-27.4c0.2-38.1,0.1-76.2,0.1-114.3c0,0,0,0,0,0c0-35.8-0.1-71.5,0-107.3c0.1-20.2-5.9-28.8-25.3-34.6
		C738.8,109.4,648.3,82.3,557.8,55c-8.8-2.7-18.2-2.6-26.9,0c-66.7,20.2-133.5,40.4-200.3,60.2c-27.8,8.2-55.2,17.8-83.5,24
		c-12.5,2.7-21.5,15.1-21.6,27.9C225.4,180,234.9,192.6,247.7,195.3z"/>
</g>
</svg>
